<svg xmlns="http://www.w3.org/2000/svg" viewBox="0 0 46 45"><defs><style>.a{fill:none;stroke:#505050;stroke-linejoin:round;stroke-width:2px;}</style></defs><title>1</title><line class="a" x1="23" y1="11" x2="40" y2="11"/><path class="a" d="M1212.73,3315.25v-31a3,3,0,0,0-3-3,2.51,2.51,0,0,0-2,1v31a2.51,2.51,0,0,1,2-1,3,3,0,0,1,0,6h-41v-33h24" transform="translate(-1167.73 -3274.25)"/><path class="a" d="M1176.73,3292.25h0a3,3,0,0,1,3,3v2h-3l-2,2v1l-1,1h-3" transform="translate(-1167.73 -3274.25)"/><polyline class="a" points="3 16 6 16 7 17"/><polyline class="a" points="38 16 35 16 32.99 18 32 18"/><polyline class="a" points="22 20 24 20 26 18 30 18"/><path class="a" d="M1193.73,3314.25h-2v-5l-2-2h-3v-2a3,3,0,0,1,3-3h3l4,4v5Z" transform="translate(-1167.73 -3274.25)"/><polygon class="a" points="9 40 11 38 11 34 13 32 13 31 11 29 7 29 5 31 5 34 7 36 7 40 9 40"/><circle class="a" cx="7" cy="4" r="3"/><line class="a" x1="7" y1="7" x2="7" y2="21"/><polyline class="a" points="20 21 20 24 25 24 29 28 29 28 31 28 32 27 33 27 35 29 38 29"/></svg>