<svg xmlns="http://www.w3.org/2000/svg" viewBox="0 0 48 48"><defs><style>.a{fill:none;stroke:#505050;stroke-linejoin:round;stroke-width:2px;}</style></defs><title>10</title><path class="a" d="M571.78,3597.24a4.1,4.1,0,0,0,4-4.28v-1.43a4,4,0,1,0-8,0V3593A4.1,4.1,0,0,0,571.78,3597.24Z" transform="translate(-561.78 -3572.24)"/><path class="a" d="M579.78,3602.24a16.07,16.07,0,0,0-6-2h-5c-3.58,0-6,1.51-6,6v4c0,4,3.24,5,6,5h4" transform="translate(-561.78 -3572.24)"/><path class="a" d="M567.78,3605.24v4a1,1,0,0,0,1,1h6" transform="translate(-561.78 -3572.24)"/><line class="a" x1="5" y1="43" x2="5" y2="48"/><line class="a" x1="16" y1="45" x2="16" y2="48"/><path class="a" d="M584.54,3613.24h-3.76l2-4h3.38a1,1,0,0,1,.9,1.45l-.73,1.44A2,2,0,0,1,584.54,3613.24Z" transform="translate(-561.78 -3572.24)"/><line class="a" x1="10" y1="33" x2="15" y2="36"/><polyline class="a" points="24 37 26 33 16 33 10 45 20 45 22 41"/><path class="a" d="M583.78,3573.24h22a3,3,0,0,1,3,3v15a4,4,0,0,1-4,4h-13l-4.2,5.6a1,1,0,0,1-1.8-.6v-5h-2a3,3,0,0,1-3-3v-16A3,3,0,0,1,583.78,3573.24Z" transform="translate(-561.78 -3572.24)"/><path class="a" d="M599.78,3591.24v-3c0-2-2.75-3-5-3s-5,1-5,3v3" transform="translate(-561.78 -3572.24)"/><path class="a" d="M594.78,3585.24a2.91,2.91,0,0,0,3-3v-1a3,3,0,0,0-6,0v1A2.91,2.91,0,0,0,594.78,3585.24Z" transform="translate(-561.78 -3572.24)"/></svg>