<svg xmlns="http://www.w3.org/2000/svg" viewBox="0 0 48.16 48"><defs><style>.a{fill:none;stroke:#505050;stroke-linejoin:round;stroke-width:2px;}</style></defs><title>10</title><line class="a" x1="33.16" y1="34" x2="33.16" y2="31"/><line class="a" x1="35.84" y1="34.83" x2="37.39" y2="32.15"/><line class="a" x1="37.58" y1="36.58" x2="40.27" y2="35.03"/><line class="a" x1="38.16" y1="39" x2="41.16" y2="39"/><line class="a" x1="31.06" y1="34.83" x2="29.51" y2="32.15"/><path class="a" d="M97.18,5202.34l-8.88,8.87a1.3,1.3,0,0,0-1.84,0l-.46.46a1.3,1.3,0,0,0,0,1.84l2.76,2.76a1.3,1.3,0,0,0,1.84,0l.46-.46a1.3,1.3,0,0,0,0-1.84l8.88-8.87" transform="translate(-84.62 -5174.43)"/><path class="a" d="M95.18,5198l1.38,1.47H98.4l4.38,4.41v1.84l1.49,1.38a1.37,1.37,0,0,0,1.9,0l5.54-5.52a1.23,1.23,0,0,0,0-1.78l-1.36-1.33h-1.84l-4.74-4.71v-1.84l-1.31-1.38a1.25,1.25,0,0,0-1.8,0l-5.5,5.57A1.37,1.37,0,0,0,95.18,5198Z" transform="translate(-84.62 -5174.43)"/><line class="a" x1="3.66" y1="36.76" x2="5.04" y2="38.14"/><line class="a" x1="19.3" y1="19.29" x2="17.46" y2="21.13"/><line class="a" x1="23.9" y1="23.89" x2="22.06" y2="25.73"/><line class="a" x1="15.16" y1="23.43" x2="13.78" y2="24.81"/><line class="a" x1="19.76" y1="28.02" x2="18.38" y2="29.4"/><path class="a" d="M119.44,5216.43h-.66v-1.73a2.24,2.24,0,0,0-1.94-2.27H105.78a2.29,2.29,0,0,0-2,2.27v1.73h-.6c-1.08,0-2.4.44-2.4,1.52v3.48h21V5218C121.78,5216.87,120.52,5216.43,119.44,5216.43Z" transform="translate(-84.62 -5174.43)"/><path class="a" d="M103.78,5216.43v-1.73a2.29,2.29,0,0,1,2-2.27h11.06a2.24,2.24,0,0,1,1.94,2.27v1.73" transform="translate(-84.62 -5174.43)"/><path class="a" d="M110.78,5216.43h-7.6c-1.08,0-2.4.44-2.4,1.52v3.48h21V5218c0-1.08-1.26-1.52-2.34-1.52h-3.66" transform="translate(-84.62 -5174.43)"/><path class="a" d="M98.78,5188.43v-11a2,2,0,0,1,2-2h24l7,7v37a2,2,0,0,1-2,2h-5" transform="translate(-84.62 -5174.43)"/><polyline class="a" points="44.16 9 39.16 9 39.16 4"/></svg>