<svg xmlns="http://www.w3.org/2000/svg" viewBox="0 0 41 47"><defs><style>.a{fill:none;stroke:#505050;stroke-linejoin:round;stroke-width:2px;}</style></defs><title>11</title><path class="a" d="M2825.94,1053.62a4,4,0,0,1-4-4.28v-1.43a4,4,0,1,1,8,0v1.43A4,4,0,0,1,2825.94,1053.62Z" transform="translate(-2813.94 -1042.62)"/><path class="a" d="M2834.94,1088.62l-6-10h-7a4,4,0,0,1-4-4v-15a3,3,0,0,1,3-3h3l7,8h6s.45,4-3,4h-6l-6-7" transform="translate(-2813.94 -1042.62)"/><path class="a" d="M2824.94,1067.62v4a1,1,0,0,0,1,1h3.32c1.6,0,3.15.49,3.68,2l7,14" transform="translate(-2813.94 -1042.62)"/><polyline class="a" points="18 19 22 12 40 12 34 23 25 23"/><line class="a" x1="11" y1="26" x2="40" y2="26"/><line class="a" x1="35" y1="26" x2="35" y2="47"/><path class="a" d="M2826.94,1081.62h-7a5,5,0,0,1-5-5v-16" transform="translate(-2813.94 -1042.62)"/></svg>