<svg xmlns="http://www.w3.org/2000/svg" viewBox="0 0 47.28 43.83"><defs><style>.a{fill:none;stroke:#505050;stroke-linejoin:round;stroke-width:2px;}</style></defs><title>12</title><path class="a" d="M1936.46,1375.28l-1.9-4.59-2.79.93a12,12,0,0,0-2.76-2.76l.93-2.79-4.58-1.9-1.32,2.64a11.6,11.6,0,0,0-3.9,0l-1.32-2.63-4.58,1.9.93,2.79a11.85,11.85,0,0,0-2.76,2.76l-2.79-.93-1.9,4.59,2.63,1.31a11.66,11.66,0,0,0,0,3.91l-2.63,1.31,1.9,4.59,2.78-.93a11.9,11.9,0,0,0,2.77,2.76l-.93,2.79,4.58,1.9,1.32-2.63a11.87,11.87,0,0,0,3.9,0l1.32,2.63,4.58-1.9-.93-2.79a11.85,11.85,0,0,0,2.76-2.76l2.79.93,1.9-4.59-2.63-1.31a11.93,11.93,0,0,0,0-3.91Z" transform="translate(-1906.72 -1363.17)"/><path class="a" d="M1940.19,1377.42a3.28,3.28,0,1,1,4.67,4.1" transform="translate(-1906.72 -1363.17)"/><path class="a" d="M1952.62,1393.83l-1.31-3.16-2.44,1a7.69,7.69,0,0,0-1.76-1.75l1-2.45-3.16-1.31-1,2.45a7.37,7.37,0,0,0-2.48,0l-1-2.45-3.16,1.31,1,2.45a7.69,7.69,0,0,0-1.76,1.75l-2.44-1-1.31,3.16,2.44,1a7.64,7.64,0,0,0,0,2.48l-2.44,1,1.31,3.16,2.44-1a7.31,7.31,0,0,0,1.76,1.75l-1,2.45,3.16,1.31,1-2.45a7.37,7.37,0,0,0,2.48,0l1,2.44,3.16-1.31-1-2.44a7.74,7.74,0,0,0,1.76-1.76l2.44,1,1.31-3.16-2.44-1a7.64,7.64,0,0,0,0-2.48Z" transform="translate(-1906.72 -1363.17)"/><path class="a" d="M1949,1383.25l2.32,1.13,1.46-3-2.33-1.13a7.26,7.26,0,0,0,.15-2.42l2.44-.84-1.09-3.16-2.44.85a7.17,7.17,0,0,0-1.61-1.81l1.13-2.33-3-1.46-1.13,2.33a7.24,7.24,0,0,0-2.42-.15l-.84-2.44-3.15,1.09.84,2.44" transform="translate(-1906.72 -1363.17)"/><circle class="a" cx="36" cy="33" r="3"/><path class="a" d="M1919,1381a1.92,1.92,0,0,0,2,2h2.26a1.86,1.86,0,0,0,1.74-2h0a2,2,0,0,0-1.19-1.86l-3.62-1.36A2,2,0,0,1,1919,1376h0a1.86,1.86,0,0,1,1.74-2H1923a1.92,1.92,0,0,1,2,2" transform="translate(-1906.72 -1363.17)"/><line class="a" x1="15.28" y1="7.83" x2="15.28" y2="10.83"/><line class="a" x1="15.28" y1="19.83" x2="15.28" y2="22.83"/></svg>