<svg xmlns="http://www.w3.org/2000/svg" viewBox="0 0 48 44"><defs><style>.a{fill:none;stroke:#505050;stroke-linejoin:round;stroke-width:2px;}</style></defs><title>13</title><polyline class="a" points="19 11 19 3 47 3 47 38 19 38 19 21"/><path class="a" d="M2169.4,3126.43a4.1,4.1,0,0,0,4-4.28v-1.43a4,4,0,1,0-8,0v1.43A4.1,4.1,0,0,0,2169.4,3126.43Z" transform="translate(-2159.4 -3115.43)"/><path class="a" d="M2174.4,3159.43v-26h6c3,0,4-1.78,4-4h-19c-3.59,0-5,1.51-5,6v7c0,2.15.85,4,3,4h1" transform="translate(-2159.4 -3115.43)"/><line class="a" x1="10" y1="28" x2="10" y2="44"/><line class="a" x1="5" y1="20" x2="5" y2="44"/><circle class="a" cx="27" cy="29" r="4"/><rect class="a" x="35" y="25" width="8" height="8"/><polygon class="a" points="33 9 28 17 38 17 33 9"/><line class="a" x1="33" y1="17" x2="33" y2="21"/><polyline class="a" points="39 25 39 21 27 21 27 25"/></svg>