<svg xmlns="http://www.w3.org/2000/svg" viewBox="0 0 45 48"><defs><style>.a{fill:none;stroke:#505050;stroke-linejoin:round;stroke-width:2px;}</style></defs><title>14</title><path class="a" d="M2430.9,3976.05v-3c0-2.76-5.68-4-8.5-4s-8.5,1.24-8.5,4v3" transform="translate(-2399.9 -3934.05)"/><path class="a" d="M2422.4,3966a3.58,3.58,0,0,0,3.5-3.84v-1.29a3.52,3.52,0,1,0-7,0v1.29A3.57,3.57,0,0,0,2422.4,3966Z" transform="translate(-2399.9 -3934.05)"/><path class="a" d="M2407.4,3968a3.58,3.58,0,0,1-3.5-3.86v-1.29a3.52,3.52,0,1,1,7,0v1.29A3.59,3.59,0,0,1,2407.4,3968Z" transform="translate(-2399.9 -3934.05)"/><path class="a" d="M2437.4,3968a3.59,3.59,0,0,0,3.5-3.86v-1.29a3.52,3.52,0,1,0-7,0v1.29A3.58,3.58,0,0,0,2437.4,3968Z" transform="translate(-2399.9 -3934.05)"/><path class="a" d="M2443.9,3982.05v-8a3,3,0,0,0-3-3h-3l-5,5h-6s-.45,4,3,4h6l4-4" transform="translate(-2399.9 -3934.05)"/><path class="a" d="M2400.9,3982.05v-8a3,3,0,0,1,3-3h3l5,5h6s.45,4-3,4h-6l-4-4" transform="translate(-2399.9 -3934.05)"/><line class="a" x1="37" y1="45" x2="37" y2="48"/><line class="a" x1="8" y1="45" x2="8" y2="48"/><line class="a" x1="15" y1="46" x2="30" y2="46"/><path class="a" d="M2409.9,3935.05h26a2,2,0,0,1,2,2v14a2,2,0,0,1-2,2h-4v4.3a1,1,0,0,1-1.76.65l-4.24-4.95h-16a2,2,0,0,1-2-2v-14A2,2,0,0,1,2409.9,3935.05Z" transform="translate(-2399.9 -3934.05)"/></svg>