<svg xmlns="http://www.w3.org/2000/svg" viewBox="0 0 48 48"><defs><style>.a{fill:none;stroke:#505050;stroke-linejoin:round;stroke-width:2px;}</style></defs><title>15</title><polyline class="a" points="14 41 1 41 1 1 47 1 47 41 34 41"/><line class="a" x1="1" y1="7" x2="47" y2="7"/><line class="a" x1="4" y1="4" x2="6" y2="4"/><line class="a" x1="8" y1="4" x2="10" y2="4"/><line class="a" x1="12" y1="4" x2="14" y2="4"/><rect class="a" x="16" y="35" width="16" height="12" rx="1"/><path class="a" d="M927.28,1080a5,5,0,0,1,10,0v5h-10Z" transform="translate(-908.28 -1050)"/><rect class="a" x="6" y="12" width="10" height="10"/><line class="a" x1="21" y1="16" x2="42" y2="16"/><line class="a" x1="21" y1="12" x2="42" y2="12"/><line class="a" x1="21" y1="20" x2="35" y2="20"/></svg>