<svg xmlns="http://www.w3.org/2000/svg" viewBox="0 0 46 46"><defs><style>.a{fill:none;stroke:#505050;stroke-linejoin:round;stroke-width:2px;}</style></defs><title>16</title><line class="a" x1="23" y1="12" x2="40" y2="12"/><path class="a" d="M1212.73,3315.25v-31a3,3,0,0,0-3-3,2.51,2.51,0,0,0-2,1v31a2.51,2.51,0,0,1,2-1,3,3,0,0,1,0,6h-41v-33h16" transform="translate(-1167.73 -3273.25)"/><path class="a" d="M1176.73,3292.25h0a3,3,0,0,1,3,3v2h-3l-2,2v1l-1,1h-3" transform="translate(-1167.73 -3273.25)"/><polyline class="a" points="3 17 6 17 7 18"/><polyline class="a" points="38 17 35 17 32.99 19 32 19"/><polyline class="a" points="22 21 24 21 26 19 30 19"/><path class="a" d="M1193.73,3314.25h-2v-5l-2-2h-3v-2a3,3,0,0,1,3-3h3l4,4v5Z" transform="translate(-1167.73 -3273.25)"/><polygon class="a" points="9 41 11 39 11 35 13 33 13 32 11 30 7 30 5 32 5 35 7 37 7 41 9 41"/><circle class="a" cx="7" cy="5" r="3"/><circle class="a" cx="20" cy="11" r="3"/><circle class="a" cx="30" cy="4" r="3"/><line class="a" x1="7" y1="8" x2="7" y2="22"/><polyline class="a" points="20 14 20 25 25 25 29 29 29 29 31 29 32 28 33 28 35 30 38 30"/><line class="a" x1="30" y1="7" x2="30" y2="23"/></svg>