<svg xmlns="http://www.w3.org/2000/svg" viewBox="0 0 41.97 46"><defs><style>.a{fill:none;stroke:#505050;stroke-linejoin:round;stroke-width:2px;}</style></defs><title>2</title><path class="a" d="M1614.42,3221.21a4.05,4.05,0,0,1-4-4.28v-1.43a4,4,0,1,1,8,0v1.43A4.05,4.05,0,0,1,1614.42,3221.21Z" transform="translate(-1603.45 -3191.21)"/><path class="a" d="M1604.42,3236.21l2-8c.61-2.5,1.8-4,4-4h2l7,8h6s.45,4-3,4h-6l-5-6" transform="translate(-1603.45 -3191.21)"/><polyline class="a" points="16.97 38 20.97 31 38.97 31 32.97 42 23.97 42"/><line class="a" x1="8.97" y1="45" x2="40.97" y2="45"/><path class="a" d="M1623.42,3192.21h18a3,3,0,0,1,3,3v12a4,4,0,0,1-4,4h-9l-4.2,5.6a1,1,0,0,1-1.8-.6v-5h-2a3,3,0,0,1-3-3v-13A3,3,0,0,1,1623.42,3192.21Z" transform="translate(-1603.45 -3191.21)"/><polyline class="a" points="23.97 11 27.97 15 34.97 6"/></svg>