<svg xmlns="http://www.w3.org/2000/svg" viewBox="0 0 42 47.99"><defs><style>.a{fill:none;stroke:#505050;stroke-linejoin:round;stroke-width:2px;}</style></defs><title>3</title><path class="a" d="M1784.55,2624.22c-1.94,2.63-14.92,8-20,8v19c0,8.94,18.89,18.71,20,19,1.11-.28,20-10.74,20-18v-20C1799,2632.22,1786.5,2626.85,1784.55,2624.22Z" transform="translate(-1763.54 -2623.22)"/><rect class="a" x="9" y="16.99" width="24" height="16" rx="1"/><path class="a" d="M1781.54,2640.21v-3a1,1,0,0,1,1-1h4a1,1,0,0,1,1,1v3" transform="translate(-1763.54 -2623.22)"/><path class="a" d="M1782.54,2648.21v2a1,1,0,0,0,1,1h2a1,1,0,0,0,1-1v-2" transform="translate(-1763.54 -2623.22)"/><path class="a" d="M1796.54,2646.21c0,1.11-5.37,2-12,2s-12-.89-12-2" transform="translate(-1763.54 -2623.22)"/></svg>