<svg xmlns="http://www.w3.org/2000/svg" viewBox="0 0 39.09 48"><defs><style>.a{fill:none;stroke:#505050;stroke-linejoin:round;stroke-width:2px;}</style></defs><title>3</title><path class="a" d="M1341.14,2801.25h-11v5c0,2.31,1.81,5,6,5h14c3,0,4,2.66,4,5v1h3v3.93a2,2,0,0,1-.89,1.66l-2.11,1.41v3c0,3.87-5.13,5.56-6,6a8.5,8.5,0,0,1-8,0c-.88-.44-6-2.13-6-6v-3l-2.11-1.41a2,2,0,0,1-.89-1.66v-3.93h3v-2a4.78,4.78,0,0,1,2-4" transform="translate(-1329.14 -2787.25)"/><path class="a" d="M1357.14,2815.25v-5a7.57,7.57,0,0,0-1-3" transform="translate(-1329.14 -2787.25)"/><path class="a" d="M1331.14,2809.25a3.72,3.72,0,0,0-1,3v2a3.17,3.17,0,0,0,2,3" transform="translate(-1329.14 -2787.25)"/><line class="a" x1="25" y1="30" x2="23" y2="32"/><line class="a" x1="5" y1="30" x2="7" y2="32"/><circle class="a" cx="10" cy="32" r="3"/><circle class="a" cx="20" cy="32" r="3"/><line class="a" x1="13" y1="32" x2="17" y2="32"/><path class="a" d="M1364.14,2800.25h1.36a1.48,1.48,0,0,0,1.08-.47c1-1,.77-2,0-2.57l-11.43-8.63a3.9,3.9,0,0,0-2-.33h-15a1.14,1.14,0,0,0-1,.74h0a1.26,1.26,0,0,0,.37,1.58l12.5,9.2a4,4,0,0,0,2.15.48h10" transform="translate(-1329.14 -2787.25)"/><path class="a" d="M1353.07,2793.36l8,5.8c.6.41,1,1.09,1,3.17v8.92" transform="translate(-1329.14 -2787.25)"/><path class="a" d="M1343,2795l-2,5.94c-.48,1.46,2.68,3.82,7,5.28s8.32,1.44,8.8,0l2-5.95" transform="translate(-1329.14 -2787.25)"/></svg>