<svg xmlns="http://www.w3.org/2000/svg" viewBox="0 0 41 45"><defs><style>.a{fill:none;stroke:#505050;stroke-linejoin:round;stroke-width:2px;}</style></defs><title>4</title><line class="a" x1="10" y1="43" x2="39" y2="43"/><path class="a" d="M267.74,3475.74v-8a3.79,3.79,0,0,1,3.74-4h4l5,6h7s.58,4-4,4h-6l-3.87-4" transform="translate(-266.74 -3430.74)"/><path class="a" d="M273.24,3460.74a4.38,4.38,0,0,0,4.5-4.28V3455a4.51,4.51,0,0,0-9,0v1.43A4.37,4.37,0,0,0,273.24,3460.74Z" transform="translate(-266.74 -3430.74)"/><polyline class="a" points="18.67 36 21.75 28 39.75 28 34.95 40 24 40"/><line class="a" x1="20" y1="11" x2="32" y2="11"/><line class="a" x1="20" y1="7" x2="32" y2="7"/><line class="a" x1="20" y1="15" x2="27" y2="15"/><path class="a" d="M293.24,3431.74c-7.46,0-13.5,4.48-13.5,10a8.47,8.47,0,0,0,2.85,6.13,37,37,0,0,1-1.41,5.55c-.23.72.27,1.48.87,1.29a15.58,15.58,0,0,0,6.38-3.63,17.74,17.74,0,0,0,4.81.66c7.45,0,13.5-4.48,13.5-10S300.69,3431.74,293.24,3431.74Z" transform="translate(-266.74 -3430.74)"/></svg>