<svg xmlns="http://www.w3.org/2000/svg" viewBox="0 0 48 43"><defs><style>.a{fill:none;stroke:#505050;stroke-linejoin:round;stroke-width:2px;}</style></defs><title>5</title><path class="a" d="M2646.84,2234.46a4.1,4.1,0,0,0,4-4.29v-1.42a4,4,0,1,0-8,0v1.42A4.1,4.1,0,0,0,2646.84,2234.46Z" transform="translate(-2636.84 -2214.46)"/><path class="a" d="M2653.84,2239.46c-1.34-.71-2.92-1.92-5-2h-5c-3.59,0-6,1.51-6,6v4c0,4,3.23,5,6,5h4" transform="translate(-2636.84 -2214.46)"/><path class="a" d="M2642.84,2242.46v4a1,1,0,0,0,1,1h6" transform="translate(-2636.84 -2214.46)"/><line class="a" x1="5" y1="38" x2="5" y2="43"/><line class="a" x1="16" y1="40" x2="16" y2="43"/><path class="a" d="M2659.6,2250.46h-3.76l2-4h3.38a1,1,0,0,1,.89,1.45l-.72,1.44A2,2,0,0,1,2659.6,2250.46Z" transform="translate(-2636.84 -2214.46)"/><line class="a" x1="10" y1="27" x2="14" y2="32"/><polyline class="a" points="24 32 26 28 16 28 10 40 20 40 22 36"/><line class="a" x1="30" y1="4" x2="30" y2="6"/><line class="a" x1="44" y1="18" x2="42" y2="18"/><line class="a" x1="30" y1="32" x2="30" y2="30"/><polyline class="a" points="25 14 30 19 38 11"/><path class="a" d="M2653,2222.57a17,17,0,1,1,13.83,26.89c-.38,0-.76,0-1.13,0" transform="translate(-2636.84 -2214.46)"/></svg>