<svg xmlns="http://www.w3.org/2000/svg" viewBox="0 0 45 48"><defs><style>.a{fill:none;stroke:#505050;stroke-linejoin:round;stroke-width:2px;}</style></defs><title>6</title><path class="a" d="M298.78,2762.72v-3c0-2.76-5.68-4-8.5-4s-8.5,1.24-8.5,4v3" transform="translate(-267.78 -2719.72)"/><path class="a" d="M290.28,2752.69a3.35,3.35,0,0,0,3.5-3.42v-1.14a3.5,3.5,0,0,0-7,0v1.14A3.36,3.36,0,0,0,290.28,2752.69Z" transform="translate(-267.78 -2719.72)"/><path class="a" d="M275.28,2754.68a3.36,3.36,0,0,1-3.5-3.41v-1.14a3.5,3.5,0,0,1,7,0v1.14A3.35,3.35,0,0,1,275.28,2754.68Z" transform="translate(-267.78 -2719.72)"/><path class="a" d="M305.28,2754.68a3.35,3.35,0,0,0,3.5-3.41v-1.14a3.5,3.5,0,0,0-7,0v1.14A3.36,3.36,0,0,0,305.28,2754.68Z" transform="translate(-267.78 -2719.72)"/><path class="a" d="M311.78,2767.72v-7a3,3,0,0,0-3-3h-3l-5,5h-6s-.45,4,3,4h6l4-4" transform="translate(-267.78 -2719.72)"/><path class="a" d="M268.78,2767.72v-7a3,3,0,0,1,3-3h3l5,5h6s.45,4-3,4h-6l-4-4" transform="translate(-267.78 -2719.72)"/><line class="a" x1="15" y1="47" x2="30" y2="47"/><polyline class="a" points="17 9 23 17 28 13"/><path class="a" d="M283.57,2746.72a14,14,0,1,1,13.24.64" transform="translate(-267.78 -2719.72)"/></svg>