<svg xmlns="http://www.w3.org/2000/svg" viewBox="0 0 46 46"><defs><style>.a{fill:none;stroke:#505050;stroke-linejoin:round;stroke-width:2px;}</style></defs><title>6</title><polyline class="a" points="24 25 17 25 17 23.76 20.76 18 22 18 22 29"/><path class="a" d="M1872.39,3956.92v-2h6v1l-1.78,2.67a13.19,13.19,0,0,0-2.22,7.33h0" transform="translate(-1840.39 -3936.92)"/><path class="a" d="M1855.39,3964.92h-7v-1c1-.76,3.22-2.36,4-3a4.59,4.59,0,0,0,2-3.49c0-1.72-1.35-2.51-3-2.51s-3,.9-3,2v1" transform="translate(-1840.39 -3936.92)"/><line class="a" x1="29" y1="15" x2="26" y2="32"/><path class="a" d="M1870.27,3980.82a22,22,0,0,1-28.76-23.19" transform="translate(-1840.39 -3936.92)"/><path class="a" d="M1856.45,3939a22,22,0,0,1,28.94,20.88" transform="translate(-1840.39 -3936.92)"/><path class="a" d="M1847.56,3951.34a18,18,0,0,1,28-4.72" transform="translate(-1840.39 -3936.92)"/><path class="a" d="M1879.21,3968.5a18,18,0,0,1-28,4.73" transform="translate(-1840.39 -3936.92)"/></svg>