<svg xmlns="http://www.w3.org/2000/svg" viewBox="0 0 48 43"><defs><style>.a{fill:none;stroke:#505050;stroke-linejoin:round;stroke-width:2px;}</style></defs><title>7</title><path class="a" d="M2282.4,3315.43h-38a4,4,0,0,1-4-4v-1h20l1,1h5l1-1h19v1A4,4,0,0,1,2282.4,3315.43Z" transform="translate(-2239.4 -3273.43)"/><line class="a" x1="44" y1="20" x2="44" y2="37"/><path class="a" d="M2243.4,3310.43v-25a2,2,0,0,1,2-2h21" transform="translate(-2239.4 -3273.43)"/><circle class="a" cx="38" cy="10" r="9"/><polyline class="a" points="41 14 38 14 38 8 36 8"/><line class="a" x1="35" y1="14" x2="38" y2="14"/><line class="a" x1="38" y1="6" x2="38" y2="4"/><rect class="a" x="13" y="16" width="8" height="4"/><rect class="a" x="9" y="28" width="6" height="4"/><rect class="a" x="19" y="28" width="6" height="4"/><polyline class="a" points="22 28 22 24 12 24 12 28"/><line class="a" x1="17" y1="20" x2="17" y2="24"/><line class="a" x1="29" y1="28" x2="40" y2="28"/><line class="a" x1="29" y1="24" x2="40" y2="24"/><line class="a" x1="29" y1="32" x2="34" y2="32"/></svg>