<svg xmlns="http://www.w3.org/2000/svg" viewBox="0 0 48 48"><defs><style>.a{fill:none;stroke:#505050;stroke-linejoin:round;stroke-width:2px;}</style></defs><title>8</title><path class="a" d="M214.74,3702.74v-1.25c0-2.48-5.22-3.75-8-3.75s-8,1.27-8,3.75v1.25" transform="translate(-182.74 -3669.74)"/><path class="a" d="M206.74,3694.74a3.83,3.83,0,0,0,4-4v-2a4,4,0,0,0-8,0v2A3.83,3.83,0,0,0,206.74,3694.74Z" transform="translate(-182.74 -3669.74)"/><circle class="a" cx="24" cy="24" r="14"/><line class="a" x1="24" y1="8" x2="24" y2="1"/><polyline class="a" points="28 5 24 1 20 5"/><line class="a" x1="24" y1="40" x2="24" y2="47"/><polyline class="a" points="28 43 24 47 20 43"/><line class="a" x1="8" y1="24" x2="1" y2="24"/><polyline class="a" points="5 28 1 24 5 20"/><line class="a" x1="40" y1="24" x2="47" y2="24"/><polyline class="a" points="43 28 47 24 43 20"/><line class="a" x1="12" y1="12" x2="7" y2="7"/><polyline class="a" points="7 12 7 7 12 7"/><line class="a" x1="36" y1="12" x2="41" y2="7"/><polyline class="a" points="41 12 41 7 36 7"/><line class="a" x1="12" y1="36" x2="7" y2="41"/><polyline class="a" points="7 36 7 41 12 41"/><line class="a" x1="36" y1="36" x2="41" y2="41"/><polyline class="a" points="41 36 41 41 36 41"/></svg>