<svg xmlns="http://www.w3.org/2000/svg" viewBox="0 0 40.6 44.96"><defs><style>.a{fill:none;stroke:#505050;stroke-linejoin:round;stroke-width:2px;}</style></defs><title>8</title><path class="a" d="M1868.39,3812.92a2,2,0,0,1-2,2h-2a2,2,0,0,1-2-2h0a2,2,0,0,1,2-2h2a2,2,0,0,1,2,2Z" transform="translate(-1843.1 -3777.92)"/><path class="a" d="M1879.39,3793.92a2,2,0,0,1,2,2v4a2,2,0,0,1-2,2h-2" transform="translate(-1843.1 -3777.92)"/><path class="a" d="M1850.39,3793.92a2,2,0,0,0-2,2v4a2,2,0,0,0,2,2h2" transform="translate(-1843.1 -3777.92)"/><path class="a" d="M1856.39,3810.34v5.42a3,3,0,0,1-2.05,2.85l-10.95,3.31" transform="translate(-1843.1 -3777.92)"/><path class="a" d="M1871.39,3814.92v1a2.76,2.76,0,0,0,2,2.69l10,3.31" transform="translate(-1843.1 -3777.92)"/><path class="a" d="M1877.39,3794.92l-2.31-1.89a6.81,6.81,0,0,0-3.72-1.11h-9.15c-3.82,0-5.82-4-5.82-4" transform="translate(-1843.1 -3777.92)"/><path class="a" d="M1859.59,3812.68c-4-1.08-7.2-5.54-7.2-8.76v-15a10,10,0,0,1,10-10h5a10,10,0,0,1,10,10v15c0,3.69-4.2,9-9,9" transform="translate(-1843.1 -3777.92)"/></svg>