<svg xmlns="http://www.w3.org/2000/svg" viewBox="0 0 48 48"><defs><style>.a{fill:none;stroke:#505050;stroke-linejoin:round;stroke-width:2px;}</style></defs><title>9</title><path class="a" d="M214.74,3625.74v-4c0-3.3-5.22-5-8-5s-8,1.7-8,5v4" transform="translate(-182.74 -3589.74)"/><path class="a" d="M206.74,3613.74a3.83,3.83,0,0,0,4-4v-2a4,4,0,0,0-8,0v2A3.83,3.83,0,0,0,206.74,3613.74Z" transform="translate(-182.74 -3589.74)"/><circle class="a" cx="24" cy="24" r="18"/><line class="a" y1="24" x2="10" y2="24"/><line class="a" x1="38" y1="24" x2="48" y2="24"/><line class="a" x1="24" x2="24" y2="10"/><line class="a" x1="24" y1="38" x2="24" y2="48"/></svg>