<svg xmlns="http://www.w3.org/2000/svg" viewBox="0 0 43 46"><defs><style>.a{fill:none;stroke:#505050;stroke-linejoin:round;stroke-width:2px;}</style></defs><title>9</title><path class="a" d="M40.74,3637.74v-4a4.65,4.65,0,0,0-5-5h-6a4.65,4.65,0,0,0-5,5v4" transform="translate(-23.74 -3591.74)"/><path class="a" d="M32.74,3625.74a3.83,3.83,0,0,0,4-4v-2a3.83,3.83,0,0,0-4-4,3.83,3.83,0,0,0-4,4v2A3.83,3.83,0,0,0,32.74,3625.74Z" transform="translate(-23.74 -3591.74)"/><line class="a" x1="22" y1="45" x2="19" y2="45"/><polyline class="a" points="12 22 12 11 22 11"/><rect class="a" x="22" y="1" width="10" height="44"/><polyline class="a" points="32 22 42 22 42 45 32 45"/></svg>