<svg xmlns="http://www.w3.org/2000/svg" viewBox="0 0 47.35 47"><title>icon_56</title><path d="M-481.1,544.59l-14,14-1.53,5.55,5.54-1.54,14-14.06c.39-.39.25-1.15-.3-1.71l-2-2A1.27,1.27,0,0,0-481.1,544.59Z" transform="translate(523.22 -527.72)" style="fill:none;stroke:#000;stroke-linejoin:round;stroke-width:2px"/><line x1="44" y1="23" x2="40" y2="19" style="fill:none;stroke:#000;stroke-linejoin:round;stroke-width:2px"/><path d="M-487.22,562.72v11h-27v-41a4,4,0,0,0-4-4,4,4,0,0,0-4,4v3h6" transform="translate(523.22 -527.72)" style="fill:none;stroke:#000;stroke-linejoin:round;stroke-width:2px"/><path d="M-518.22,528.72h27a4,4,0,0,1,4,4v15" transform="translate(523.22 -527.72)" style="fill:none;stroke:#000;stroke-linejoin:round;stroke-width:2px"/><line x1="23" y1="9" x2="32" y2="9" style="fill:none;stroke:#000;stroke-linejoin:round;stroke-width:2px"/><polyline points="20 8 16 13 14 10" style="fill:none;stroke:#000;stroke-linejoin:round;stroke-width:2px"/><line x1="23" y1="18" x2="32" y2="18" style="fill:none;stroke:#000;stroke-linejoin:round;stroke-width:2px"/><line x1="23" y1="13" x2="30" y2="13" style="fill:none;stroke:#000;stroke-linejoin:round;stroke-width:2px"/><line x1="23" y1="22" x2="29" y2="22" style="fill:none;stroke:#000;stroke-linejoin:round;stroke-width:2px"/><polyline points="20 17 16 22 14 19" style="fill:none;stroke:#000;stroke-linejoin:round;stroke-width:2px"/><polyline points="20 26 16 31 14 28" style="fill:none;stroke:#000;stroke-linejoin:round;stroke-width:2px"/></svg>