<svg xmlns="http://www.w3.org/2000/svg" viewBox="0 0 46 42"><title>icon_57</title><line x1="23" y1="26" x2="22" y2="26" style="fill:none;stroke:#000;stroke-linejoin:round;stroke-width:2px"/><path d="M-618.22,2683.54a2.85,2.85,0,0,1-1-1.89c0-1.59,2-2.85,2-4.43s-3-5.31-1.65-6.44,5.26,1.74,7,1.74,3.09-2.09,4.81-2.09,2.9,2.09,4.62,2.09,2.89-2.09,4.61-2.09,3.09,2.09,4.81,2.09,6.4-3,7.47-1.74-1.64,4.86-1.64,6.44,2,2.63,2,4.21-2,2.63-2,4.22,2.79,5.4,1.64,6.46-5.76-1.63-7.47-1.63-3.09,1.95-4.81,1.95-3.09-1.95-4.81-1.95" transform="translate(625.22 -2664.43)" style="fill:none;stroke:#000;stroke-linejoin:round;stroke-width:2px"/><polyline points="17 29 17 41 14 38 11 41 11 29" style="fill:none;stroke:#000;stroke-linejoin:round;stroke-width:2px"/><path d="M-606.22,2689.43a5,5,0,0,1-5,5,5,5,0,0,1-5-5,5,5,0,0,1,5-5A5,5,0,0,1-606.22,2689.43Z" transform="translate(625.22 -2664.43)" style="fill:none;stroke:#000;stroke-linejoin:round;stroke-width:2px"/><line x1="16" y1="13" x2="30" y2="13" style="fill:none;stroke:#000;stroke-linejoin:round;stroke-width:2px"/><line x1="19" y1="17" x2="27" y2="17" style="fill:none;stroke:#000;stroke-linejoin:round;stroke-width:2px"/><polyline points="8 33 1 33 1 1 45 1 45 33 20 33" style="fill:none;stroke:#000;stroke-linejoin:round;stroke-width:2px"/></svg>