<svg xmlns="http://www.w3.org/2000/svg" viewBox="0 0 47 48"><title>icon_55</title><path d="M-622.72-2084v-13a3,3,0,0,1,3-3h23a3,3,0,0,1,3,3v26a3,3,0,0,1-3,3h-25" transform="translate(639.72 2101)" style="fill:none;stroke:#fff;stroke-linejoin:round;stroke-width:2px"/><polyline points="22 17 22 10 28 10 28 28 22 28 22 25" style="fill:none;stroke:#fff;stroke-linejoin:round;stroke-width:2px"/><rect x="28" y="17" width="6" height="11" style="fill:none;stroke:#fff;stroke-linejoin:round;stroke-width:2px"/><rect x="34" y="6" width="6" height="22" style="fill:none;stroke:#fff;stroke-linejoin:round;stroke-width:2px"/><path d="M-624.72-2053v-25h5c3,0,4-1.78,4-4h-18c-1.88,0-5,1.51-5,6v7a4.09,4.09,0,0,0,4,4" transform="translate(639.72 2101)" style="fill:none;stroke:#fff;stroke-linejoin:round;stroke-width:2px"/><line x1="10" y1="34" x2="10" y2="48" style="fill:none;stroke:#fff;stroke-linejoin:round;stroke-width:2px"/><line x1="5" y1="25" x2="5" y2="48" style="fill:none;stroke:#fff;stroke-linejoin:round;stroke-width:2px"/><rect x="6" y="7" width="7" height="9" rx="3" style="fill:none;stroke:#fff;stroke-linejoin:round;stroke-width:2px"/></svg>