<svg xmlns="http://www.w3.org/2000/svg" viewBox="0 0 814.4 285.33"><title>icon_59</title><path d="M460.24,88.06H368.32c-9.5,0-17.2,8.6-17.2,19.22v246.5c-.18,10.61,7.38,19.37,16.88,19.57h92.24c9.5,0,17.2-8.6,17.2-19.21V107.28C477.44,96.66,469.74,88.06,460.24,88.06Zm-93.12,19.22a1.28,1.28,0,0,1,1.2-1.34h91.92a1.28,1.28,0,0,1,1.2,1.34v20.11H367.12Zm0,38h94.32v24.49H367.12ZM398.4,355.48H368.32a1.26,1.26,0,0,1-1.24-1.29,1.39,1.39,0,0,1,0-.41V255.46H398.4Zm62.2-.05a1.08,1.08,0,0,1-.36.05H414.48v-109c0-4.94-3.58-8.94-8-8.94H367.12V187.72h94.32V353.78A1.37,1.37,0,0,1,460.6,355.43Z" transform="translate(336.96 -88.06)"/><ellipse cx="775.92" cy="243.28" rx="11.2" ry="12.51"/><path d="M439,231.15c-4.42,0-8,4-8,8.94v61.76c0,4.94,3.58,8.94,8,8.94s8-4,8-8.94V240.09C447,235.16,443.38,231.15,439,231.15Z" transform="translate(336.96 -88.06)"/><path d="M-41.08,291.53v32.16a73.83,73.83,0,0,0-33.76,38.56,8,8,0,0,0,4.24,10.48,8,8,0,0,0,3.2.64H66.84a8,8,0,0,0,8-11.12A73.91,73.91,0,0,0,41,323.69v-32ZM54.2,357.37H-54.44A64.52,64.52,0,0,1-.12,329.53,64.55,64.55,0,0,1,54.2,357.37Zm-79.28-40V291.53H24.84v25.84A85.6,85.6,0,0,0-25.08,317.37Z" transform="translate(336.96 -88.06)"/><path d="M-18.24,88.07H-318.72A17.6,17.6,0,0,0-337,104.87V290.71a17.6,17.6,0,0,0,18.24,16.8h109.28l82.08.16H-18.24A17.6,17.6,0,0,0,0,290.87v-186A17.6,17.6,0,0,0-18.24,88.07Zm-175.2,219.44h49.92M-16,290.63a2.61,2.61,0,0,1-2.24.88H-318.72a2.94,2.94,0,0,1-2.24-.8V105a2.67,2.67,0,0,1,2.24-1H-18.24a3,3,0,0,1,2.24.8Z" transform="translate(336.96 -88.06)"/><path d="M318.72,88.07H18.24A17.6,17.6,0,0,0,0,104.87V290.71a17.6,17.6,0,0,0,18.24,16.8H127.52l82.08.16H318.72A17.6,17.6,0,0,0,337,290.87v-186A17.6,17.6,0,0,0,318.72,88.07ZM143.52,307.51h49.92M321,290.63a2.61,2.61,0,0,1-2.24.88H18.24a2.94,2.94,0,0,1-2.24-.8V105a2.67,2.67,0,0,1,2.24-1H318.72a3,3,0,0,1,2.24.8Z" transform="translate(336.96 -88.06)"/></svg>