<?xml version="1.0" encoding="iso-8859-1"?>
<!-- Generator: Adobe Illustrator 19.0.0, SVG Export Plug-In . SVG Version: 6.00 Build 0)  -->
<svg version="1.1" id="Capa_1" xmlns="http://www.w3.org/2000/svg" xmlns:xlink="http://www.w3.org/1999/xlink" x="0px" y="0px"
	 viewBox="0 0 480 480" style="enable-background:new 0 0 480 480;" xml:space="preserve">
<g>
	<g>
		<rect x="176" y="40" width="16" height="16"/>
	</g>
</g>
<g>
	<g>
		<rect x="208" y="40" width="16" height="16"/>
	</g>
</g>
<g>
	<g>
		<rect x="240" y="40" width="16" height="16"/>
	</g>
</g>
<g>
	<g>
		<path d="M80,104c-26.499,0.026-47.974,21.501-48,48v176c0,26.51,21.49,48,48,48s48-21.49,48-48V152
			C127.974,125.501,106.499,104.026,80,104z M112,328c0,17.673-14.327,32-32,32s-32-14.327-32-32V152c0-17.673,14.327-32,32-32
			s32,14.327,32,32V328z"/>
	</g>
</g>
<g>
	<g>
		<path d="M440,72h-24V16c0-4.418-3.582-8-8-8H152c-4.418,0-8,3.582-8,8v56H40C17.92,72.026,0.026,89.92,0,112v272
			c0.026,22.08,17.92,39.974,40,40h104v40c0,4.418,3.582,8,8,8h256c4.418,0,8-3.582,8-8v-40h24c22.08-0.026,39.974-17.92,40-40V112
			C479.974,89.92,462.08,72.026,440,72z M160,24h240v80H160V24z M400,456H160v-32h240V456z M464,360h-48v-48h48V360z M464,264h-56
			c-4.418,0-8,3.582-8,8s3.582,8,8,8h56v16h-56c-4.418,0-8,3.582-8,8v64c0,4.418,3.582,8,8,8h56v8c0,13.255-10.745,24-24,24H40
			c-13.255,0-24-10.745-24-24V112c0-13.255,10.745-24,24-24h104v24c0,4.418,3.582,8,8,8h256c4.418,0,8-3.582,8-8V88h24
			c13.255,0,24,10.745,24,24V264z"/>
	</g>
</g>
<g>
	<g>
		<path d="M392,136H152c-4.418,0-8,3.582-8,8v48c0,4.418,3.582,8,8,8h240c4.418,0,8-3.582,8-8v-48C400,139.582,396.418,136,392,136z
			 M384,184H160v-32h224V184z"/>
	</g>
</g>
<g>
	<g>
		<path d="M216,216c-13.255,0-24,10.745-24,24s10.745,24,24,24s24-10.745,24-24S229.255,216,216,216z M216,248c-4.418,0-8-3.582-8-8
			s3.582-8,8-8s8,3.582,8,8S220.418,248,216,248z"/>
	</g>
</g>
<g>
	<g>
		<path d="M216,280c-13.255,0-24,10.745-24,24s10.745,24,24,24s24-10.745,24-24S229.255,280,216,280z M216,312c-4.418,0-8-3.582-8-8
			s3.582-8,8-8s8,3.582,8,8S220.418,312,216,312z"/>
	</g>
</g>
<g>
	<g>
		<path d="M216,344c-13.255,0-24,10.745-24,24s10.745,24,24,24s24-10.745,24-24S229.255,344,216,344z M216,376c-4.418,0-8-3.582-8-8
			s3.582-8,8-8s8,3.582,8,8S220.418,376,216,376z"/>
	</g>
</g>
<g>
	<g>
		<path d="M280,216c-13.255,0-24,10.745-24,24s10.745,24,24,24s24-10.745,24-24S293.255,216,280,216z M280,248c-4.418,0-8-3.582-8-8
			s3.582-8,8-8s8,3.582,8,8S284.418,248,280,248z"/>
	</g>
</g>
<g>
	<g>
		<path d="M280,280c-13.255,0-24,10.745-24,24s10.745,24,24,24s24-10.745,24-24S293.255,280,280,280z M280,312c-4.418,0-8-3.582-8-8
			s3.582-8,8-8s8,3.582,8,8S284.418,312,280,312z"/>
	</g>
</g>
<g>
	<g>
		<path d="M280,344c-13.255,0-24,10.745-24,24s10.745,24,24,24s24-10.745,24-24S293.255,344,280,344z M280,376c-4.418,0-8-3.582-8-8
			s3.582-8,8-8s8,3.582,8,8S284.418,376,280,376z"/>
	</g>
</g>
<g>
	<g>
		<path d="M344,216c-13.255,0-24,10.745-24,24s10.745,24,24,24s24-10.745,24-24S357.255,216,344,216z M344,248c-4.418,0-8-3.582-8-8
			s3.582-8,8-8s8,3.582,8,8S348.418,248,344,248z"/>
	</g>
</g>
<g>
	<g>
		<path d="M344,280c-13.255,0-24,10.745-24,24s10.745,24,24,24s24-10.745,24-24S357.255,280,344,280z M344,312c-4.418,0-8-3.582-8-8
			s3.582-8,8-8s8,3.582,8,8S348.418,312,344,312z"/>
	</g>
</g>
<g>
	<g>
		<path d="M344,344c-13.255,0-24,10.745-24,24s10.745,24,24,24s24-10.745,24-24S357.255,344,344,344z M344,376c-4.418,0-8-3.582-8-8
			s3.582-8,8-8s8,3.582,8,8S348.418,376,344,376z"/>
	</g>
</g>
<g>
	<g>
		<path d="M440,152c-4.418,0-8,3.582-8,8v80c0,4.418,3.582,8,8,8s8-3.582,8-8v-80C448,155.582,444.418,152,440,152z"/>
	</g>
</g>
<g>
</g>
<g>
</g>
<g>
</g>
<g>
</g>
<g>
</g>
<g>
</g>
<g>
</g>
<g>
</g>
<g>
</g>
<g>
</g>
<g>
</g>
<g>
</g>
<g>
</g>
<g>
</g>
<g>
</g>
</svg>
