<svg xmlns="http://www.w3.org/2000/svg" viewBox="0 0 46.07133 46.24404"><title>icon_43</title><line x1="20.81954" y1="0.12854" x2="21.79954" y2="7.68934" style="fill:none;stroke:#e53633;stroke-linejoin:round;stroke-width:2px"/><line x1="14.67413" y1="5.82964" x2="17.62254" y2="11.52134" style="fill:none;stroke:#e53633;stroke-linejoin:round;stroke-width:2px"/><line x1="6.48813" y1="7.18534" x2="12.09873" y2="12.34744" style="fill:none;stroke:#e53633;stroke-linejoin:round;stroke-width:2px"/><line x1="5.38073" y1="15.52614" x2="11.29783" y2="17.99104" style="fill:none;stroke:#e53633;stroke-linejoin:round;stroke-width:2px"/><line x1="0.04563" y1="21.80334" x2="7.66173" y2="22.15124" style="fill:none;stroke:#e53633;stroke-linejoin:round;stroke-width:2px"/><line x1="4.49433" y1="28.92784" x2="10.61143" y2="27.01254" style="fill:none;stroke:#e53633;stroke-linejoin:round;stroke-width:2px"/><line x1="4.50663" y1="37.14254" x2="10.56454" y2="32.51354" style="fill:none;stroke:#e53633;stroke-linejoin:round;stroke-width:2px"/><line x1="12.42973" y1="39.76384" x2="15.88463" y2="34.36464" style="fill:none;stroke:#e53633;stroke-linejoin:round;stroke-width:2px"/><line x1="17.78383" y1="46.02564" x2="19.44893" y2="38.58564" style="fill:none;stroke:#e53633;stroke-linejoin:round;stroke-width:2px"/><line x1="25.47383" y1="42.96404" x2="24.64983" y2="36.60724" style="fill:none;stroke:#e53633;stroke-linejoin:round;stroke-width:2px"/><line x1="33.66463" y1="44.29604" x2="30.15783" y2="37.52634" style="fill:none;stroke:#e53633;stroke-linejoin:round;stroke-width:2px"/><line x1="37.52313" y1="37.03094" x2="32.80593" y2="32.69084" style="fill:none;stroke:#e53633;stroke-linejoin:round;stroke-width:2px"/><line x1="44.71823" y1="32.76304" x2="37.68043" y2="29.83134" style="fill:none;stroke:#e53633;stroke-linejoin:round;stroke-width:2px"/><line x1="42.93973" y1="24.74064" x2="36.53643" y2="24.44814" style="fill:none;stroke:#e53633;stroke-linejoin:round;stroke-width:2px"/><line x1="45.77254" y1="16.82314" x2="38.49683" y2="19.10114" style="fill:none;stroke:#e53633;stroke-linejoin:round;stroke-width:2px"/><line x1="39.18903" y1="11.84404" x2="34.09583" y2="15.73594" style="fill:none;stroke:#e53633;stroke-linejoin:round;stroke-width:2px"/><line x1="36.33423" y1="3.93474" x2="32.22493" y2="10.35654" style="fill:none;stroke:#e53633;stroke-linejoin:round;stroke-width:2px"/><line x1="28.02613" y1="4.37554" x2="26.62613" y2="10.63074" style="fill:none;stroke:#e53633;stroke-linejoin:round;stroke-width:2px"/><polygon points="27.924 16.991 20.924 23.991 17.924 20.991 14.924 23.991 20.924 29.991 30.924 19.991 27.924 16.991" style="fill:none;stroke:#e53633;stroke-linejoin:round;stroke-width:2px"/></svg>