<svg xmlns="http://www.w3.org/2000/svg" viewBox="0 0 44 47"><title>icon_51</title><path d="M2926.93953,1136.62384a4.85935,4.85935,0,0,0,5-5v-2a5,5,0,1,0-10,0v2A4.85934,4.85934,0,0,0,2926.93953,1136.62384Z" transform="translate(-2892.93953 -1123.62384)" style="fill:none;stroke:#505050;stroke-linejoin:round;stroke-width:2px"/><polyline points="31 32 35 36 31 40" style="fill:none;stroke:#505050;stroke-linejoin:round;stroke-width:2px"/><line x1="35" y1="36" x2="9" y2="36" style="fill:none;stroke:#505050;stroke-linejoin:round;stroke-width:2px"/><polyline points="13 25 9 29 13 33" style="fill:none;stroke:#505050;stroke-linejoin:round;stroke-width:2px"/><line x1="9" y1="29" x2="35" y2="29" style="fill:none;stroke:#505050;stroke-linejoin:round;stroke-width:2px"/><path d="M2911.93953,1148.62384v-5c0-2.7709-5.87351-4-8.99981-4s-9.00019,1.2292-9.00019,4v11l3,3v12h10v-4" transform="translate(-2892.93953 -1123.62384)" style="fill:none;stroke:#505050;stroke-linejoin:round;stroke-width:2px"/><path d="M2917.93953,1148.62384v-5c0-2.7709,5.87339-4,8.99969-4s9.00031,1.2292,9.00031,4v11l-3,3v12h-10v-4" transform="translate(-2892.93953 -1123.62384)" style="fill:none;stroke:#505050;stroke-linejoin:round;stroke-width:2px"/><path d="M2902.93953,1136.62384a4.85934,4.85934,0,0,1-5-5v-2a5,5,0,1,1,10,0v2A4.85935,4.85935,0,0,1,2902.93953,1136.62384Z" transform="translate(-2892.93953 -1123.62384)" style="fill:none;stroke:#505050;stroke-linejoin:round;stroke-width:2px"/></svg>