<svg xmlns="http://www.w3.org/2000/svg" viewBox="0 0 46 28.16"><title>icon_13</title><path d="M3532.5,1438h7.94a2,2,0,0,1,1.66.87l3.4,6.13h1a2,2,0,0,1,2,2.21V1454a2,2,0,0,1-2,2h-2" transform="translate(-3503.5 -1432.84)" style="fill:none;stroke:#505050;stroke-linejoin:round;stroke-width:2px"/><line x1="5" y1="23.16" y2="23.16" style="fill:none;stroke:#505050;stroke-linejoin:round;stroke-width:2px"/><line x1="29" y1="23.16" x2="13.02" y2="23.16" style="fill:none;stroke:#505050;stroke-linejoin:round;stroke-width:2px"/><line x1="1" y1="18.16" x2="1" y2="23.16" style="fill:none;stroke:#505050;stroke-linejoin:round;stroke-width:2px"/><polyline points="16.56 16.16 16.56 9.16 25.56 9.16 25.56 17.16" style="fill:none;stroke:#505050;stroke-linejoin:round;stroke-width:2px"/><line x1="15.56" y1="17.16" x2="26.44" y2="17.16" style="fill:none;stroke:#505050;stroke-linejoin:round;stroke-width:2px"/><polyline points="1.63 15.63 1.63 4.94 7.28 4.94 7.28 17.16" style="fill:none;stroke:#505050;stroke-linejoin:round;stroke-width:2px"/><line x1="0.66" y1="16.22" x2="8.23" y2="16.22" style="fill:none;stroke:#505050;stroke-linejoin:round;stroke-width:2px"/><polyline points="7.28 8.71 7.28 1 20.26 1 20.26 9.81" style="fill:none;stroke:#505050;stroke-linejoin:round;stroke-width:2px"/><line x1="29" y1="4.16" x2="29" y2="23.16" style="fill:none;stroke:#505050;stroke-linejoin:round;stroke-width:2px"/><path d="M3544.5,1456a4,4,0,1,1-4-4A4,4,0,0,1,3544.5,1456Z" transform="translate(-3503.5 -1432.84)" style="fill:none;stroke:#505050;stroke-linejoin:round;stroke-width:2px"/><path d="M3516.52,1456a4,4,0,1,1-4-4A4,4,0,0,1,3516.52,1456Z" transform="translate(-3503.5 -1432.84)" style="fill:none;stroke:#505050;stroke-linejoin:round;stroke-width:2px"/><line x1="29" y1="23.16" x2="33" y2="23.16" style="fill:none;stroke:#505050;stroke-linejoin:round;stroke-width:2px"/><polyline points="31 13.16 38 13.16 40 12.16 42 12.16" style="fill:none;stroke:#505050;stroke-linejoin:round;stroke-width:2px"/><line y1="18.16" x2="28" y2="18.16" style="fill:none;stroke:#505050;stroke-linejoin:round;stroke-width:2px"/></svg>