<svg xmlns="http://www.w3.org/2000/svg" viewBox="0 0 372.94144 144.96661"><title>icon_20</title><path d="M1021.00659,825.66667c-.473,5.28491-.90246,10.08277-1.34357,15.011h-8.62466v-9.78618H860.18954v4.57512a3.2805,3.2805,0,0,0,1.06472.3143c5.80717.026,11.61453.01741,17.58291.01741v14.66284l-1.209,1.209H766.37184l-1.28007-1.28008V835.95878h18.66494v-5.02H728.22225v34.78743H732.802v3.977H718.17052v-3.769h5.68783V830.88755H648.06516c0-8.46469.82189-5.22088.82189-5.22088Zm-145.1078,14.28041H768.25v8.70242H875.89879ZM808.906,831.96971H786.96059q.13371,2.12351.23028,3.65715H808.906Zm3.1815,3.66356h20.94648l-.21021-3.67H812.08746Zm24,0H857.034c-.08048-1.40477-.15073-2.63134-.21022-3.67H836.08746Zm181.74585,2.08169v-6.94878l-3.66662.19822V837.715Z" transform="translate(-648.06516 -736)"/><circle cx="291.02826" cy="125.84161" r="17.125" style="fill:none;stroke:#000;stroke-miterlimit:10;stroke-width:4px"/><circle cx="290.84173" cy="125.71211" r="6.57778" style="fill:none;stroke:#000;stroke-miterlimit:10;stroke-width:4px"/><circle cx="332.64691" cy="125.84161" r="17.125" style="fill:none;stroke:#000;stroke-miterlimit:10;stroke-width:4px"/><circle cx="332.46038" cy="125.71211" r="6.57778" style="fill:none;stroke:#000;stroke-miterlimit:10;stroke-width:4px"/><polygon points="311.713 112.217 297.713 102.217 325.713 102.217 311.713 112.217" style="fill:none;stroke:#000;stroke-miterlimit:10;stroke-width:4px"/><rect x="270.43484" y="99.63327" width="29.56008" height="4.91667"/><rect x="322.99227" y="99.63327" width="29.56008" height="4.91667"/><rect x="32.60151" y="2" width="333.50002" height="87.66667" rx="43.83329" ry="43.83329" style="fill:none;stroke:#000;stroke-miterlimit:10;stroke-width:4px"/><path d="M780.66667,783.84689a13.33333,13.33333,0,0,1-26.66667,0c0-7.3638,7.98319-17.17087,13.33333-22.521C772.72725,766.71979,780.66667,776.48309,780.66667,783.84689Z" transform="translate(-648.06516 -736)" style="fill:none;stroke:#000;stroke-miterlimit:10;stroke-width:4px"/><path d="M857.034,783.84689a13.33334,13.33334,0,0,1-26.66667,0c0-7.3638,7.98319-17.17087,13.33333-22.521C849.09458,766.71979,857.034,776.48309,857.034,783.84689Z" transform="translate(-648.06516 -736)" style="fill:none;stroke:#000;stroke-miterlimit:10;stroke-width:4px"/><path d="M935.30174,783.84689a13.33333,13.33333,0,0,1-26.66666,0c0-7.3638,7.98319-17.17087,13.33333-22.521C927.36232,766.71979,935.30174,776.48309,935.30174,783.84689Z" transform="translate(-648.06516 -736)" style="fill:none;stroke:#000;stroke-miterlimit:10;stroke-width:4px"/></svg>