<svg xmlns="http://www.w3.org/2000/svg" viewBox="0 0 48 42.0024"><title>icon_54</title><path d="M1422.13336,4661.0134v-2.4987c.00009-.9495-2.20071-2.4935-3.99851-2.4935s-4.00149,1.5439-4.00149,2.4935v2.4987" transform="translate(-1394.13336 -4630.011)" style="fill:none;stroke:#505050;stroke-linejoin:round;stroke-width:2px"/><circle cx="24" cy="24.0024" r="10" style="fill:none;stroke:#505050;stroke-linejoin:round;stroke-width:2px"/><path d="M1418.13345,4655.9717a2.90139,2.90139,0,0,1-3.00009-2.9819v-.9944a3.00005,3.00005,0,0,1,6,0v.9944A2.90124,2.90124,0,0,1,1418.13345,4655.9717Z" transform="translate(-1394.13336 -4630.011)" style="fill:none;stroke:#505050;stroke-linejoin:round;stroke-width:2px"/><path d="M1413.62306,4641.014a6.86411,6.86411,0,0,0-4.4878-1.9936c-2.2479,0-5.0017,1.8532-5.0019,2.993v3" transform="translate(-1394.13336 -4630.011)" style="fill:none;stroke:#505050;stroke-linejoin:round;stroke-width:2px"/><path d="M1409.13346,4638.9717a3.13207,3.13207,0,0,1-3.0001-3.4115v-1.1377a3.02482,3.02482,0,1,1,6,0v1.1378A3.13189,3.13189,0,0,1,1409.13346,4638.9717Z" transform="translate(-1394.13336 -4630.011)" style="fill:none;stroke:#505050;stroke-linejoin:round;stroke-width:2px"/><path d="M1422.64436,4641.0132a6.86436,6.86436,0,0,1,4.48709-1.9928c2.24791,0,5.00191,1.8532,5.00191,2.993v3" transform="translate(-1394.13336 -4630.011)" style="fill:none;stroke:#505050;stroke-linejoin:round;stroke-width:2px"/><path d="M1427.13325,4638.9717a3.13208,3.13208,0,0,0,3.00011-3.4115v-1.1377a3.02482,3.02482,0,1,0-6,0v1.1378A3.13188,3.13188,0,0,0,1427.13325,4638.9717Z" transform="translate(-1394.13336 -4630.011)" style="fill:none;stroke:#505050;stroke-linejoin:round;stroke-width:2px"/><path d="M1408.13336,4672.0134v-2c0-1.1398-2.7521-2.993-5-2.993s-4.9998,1.8532-5,2.993v2" transform="translate(-1394.13336 -4630.011)" style="fill:none;stroke:#505050;stroke-linejoin:round;stroke-width:2px"/><path d="M1438.13336,4672.0134v-2c-.00021-1.1398-2.75211-2.993-5-2.993s-5,1.8532-5,2.993v2" transform="translate(-1394.13336 -4630.011)" style="fill:none;stroke:#505050;stroke-linejoin:round;stroke-width:2px"/><path d="M1403.13346,4666.9717a3.13207,3.13207,0,0,1-3.0001-3.4115v-1.1377a3.02482,3.02482,0,1,1,6,0v1.1378A3.13189,3.13189,0,0,1,1403.13346,4666.9717Z" transform="translate(-1394.13336 -4630.011)" style="fill:none;stroke:#505050;stroke-linejoin:round;stroke-width:2px"/><path d="M1433.13325,4666.9717a3.13208,3.13208,0,0,0,3.00011-3.4115v-1.1377a3.02482,3.02482,0,1,0-6,0v1.1378A3.13188,3.13188,0,0,0,1433.13325,4666.9717Z" transform="translate(-1394.13336 -4630.011)" style="fill:none;stroke:#505050;stroke-linejoin:round;stroke-width:2px"/><path d="M1441.13336,4660.0134v-3c.00019-1.1398-2.75021-2.993-4.99811-2.993" transform="translate(-1394.13336 -4630.011)" style="fill:none;stroke:#505050;stroke-linejoin:round;stroke-width:2px"/><path d="M1436.13345,4653.9717a3.13207,3.13207,0,0,1-3.00009-3.4115v-1.1377a3.02482,3.02482,0,1,1,6,0v1.1378A3.1319,3.1319,0,0,1,1436.13345,4653.9717Z" transform="translate(-1394.13336 -4630.011)" style="fill:none;stroke:#505050;stroke-linejoin:round;stroke-width:2px"/><path d="M1395.13336,4660.0134v-3c-.0002-1.1398,2.7501-2.993,4.998-2.993" transform="translate(-1394.13336 -4630.011)" style="fill:none;stroke:#505050;stroke-linejoin:round;stroke-width:2px"/><path d="M1400.13316,4653.9717a3.13207,3.13207,0,0,0,3.0001-3.4115v-1.1377a3.02477,3.02477,0,1,0-5.9999,0v1.1378A3.13188,3.13188,0,0,0,1400.13316,4653.9717Z" transform="translate(-1394.13336 -4630.011)" style="fill:none;stroke:#505050;stroke-linejoin:round;stroke-width:2px"/><line x1="24" y1="10.0024" x2="24" y2="17.0024" style="fill:none;stroke:#505050;stroke-linejoin:round;stroke-width:2px"/><line x1="24" y1="31.0024" x2="24" y2="38.0024" style="fill:none;stroke:#505050;stroke-linejoin:round;stroke-width:2px"/><line x1="17" y1="24.0024" x2="11" y2="24.0024" style="fill:none;stroke:#505050;stroke-linejoin:round;stroke-width:2px"/><line x1="37" y1="24.0024" x2="31" y2="24.0024" style="fill:none;stroke:#505050;stroke-linejoin:round;stroke-width:2px"/></svg>