<svg xmlns="http://www.w3.org/2000/svg" viewBox="0 0 37 46.00017"><title>icon_48</title><path d="M1859.421,3156.21137v-3s3-2.25,3-5v-1" transform="translate(-1843.42101 -3110.21137)" style="fill:none;stroke:#e53633;stroke-linejoin:round;stroke-width:2px"/><path d="M1851.421,3134.21137l-4,3.2c-1.41351,1.2966-3,2.8-3,5.8v5.7887l.00119,7.2113" transform="translate(-1843.42101 -3110.21137)" style="fill:none;stroke:#e53633;stroke-linejoin:round;stroke-width:2px"/><path d="M1849.1177,3145.21137s6.4617-6.1584,8.30331-8,4.34749,2.2551,2.15159,5c-1.0783,1.0783-2.15159,2-2.15159,2v2a4.97239,4.97239,0,0,1-4.15161,5" transform="translate(-1843.42101 -3110.21137)" style="fill:none;stroke:#e53633;stroke-linejoin:round;stroke-width:2px"/><polyline points="8 33 8 4.997 12 1 36 1 36 37 14 37" style="fill:none;stroke:#e53633;stroke-linejoin:round;stroke-width:2px"/><polyline points="14 3 14 7 10 7" style="fill:none;stroke:#e53633;stroke-linejoin:round;stroke-width:2px"/><polygon points="30.476 12.959 27.476 9.959 22.476 14.959 17.476 9.959 14.476 12.959 19.476 17.959 14.476 22.959 17.476 25.959 22.476 20.959 27.476 25.959 30.476 22.959 25.476 17.959 30.476 12.959" style="fill:none;stroke:#e53633;stroke-linejoin:round;stroke-width:2px"/></svg>