<svg xmlns="http://www.w3.org/2000/svg" viewBox="0 0 44 47"><title>icon_46</title><path d="M2326.5,2901.81573a4.21683,4.21683,0,0,1-4-4v-9c0-3.3032,5.52629-5,9-5s10,1.6967,10,5v12" transform="translate(-2321.5 -2868.81573)" style="fill:none;stroke:#e53633;stroke-linejoin:round;stroke-width:2px"/><path d="M2331.5,2880.81573a3.834,3.834,0,0,1-4-4v-2a4,4,0,0,1,8,0v2A3.83406,3.83406,0,0,1,2331.5,2880.81573Z" transform="translate(-2321.5 -2868.81573)" style="fill:none;stroke:#e53633;stroke-linejoin:round;stroke-width:2px"/><line x1="5" y1="47" x2="5" y2="22" style="fill:none;stroke:#e53633;stroke-linejoin:round;stroke-width:2px"/><line x1="16" y1="22" x2="16" y2="32" style="fill:none;stroke:#e53633;stroke-linejoin:round;stroke-width:2px"/><line x1="16" y1="41" x2="16" y2="47" style="fill:none;stroke:#e53633;stroke-linejoin:round;stroke-width:2px"/><line x1="10" y1="32" x2="10" y2="47" style="fill:none;stroke:#e53633;stroke-linejoin:round;stroke-width:2px"/><rect x="2335.5" y="2900.81573" width="11" height="9" transform="translate(2360.5 2941.81573) rotate(180)" style="fill:none;stroke:#e53633;stroke-linejoin:round;stroke-width:2px"/><path d="M2338.374,2876.81393a13.99669,13.99669,0,1,1,6.17149,19.676" transform="translate(-2321.5 -2868.81573)" style="fill:none;stroke:#e53633;stroke-linejoin:round;stroke-width:2px"/><path d="M2347.5,2884.81573v1a2.09483,2.09483,0,0,0,2.022,2h1.978a2.07463,2.07463,0,0,0,2-2v-.3026a1.81648,1.81648,0,0,0-1.35651-1.7076l-3.27049-.9796a1.83264,1.83264,0,0,1-1.373-1.7076v-.3026a2.07462,2.07462,0,0,1,2-2h2a2.07463,2.07463,0,0,1,2,2v1" transform="translate(-2321.5 -2868.81573)" style="fill:none;stroke:#e53633;stroke-linejoin:round;stroke-width:2px"/><line x1="29" y1="10" x2="29" y2="7" style="fill:none;stroke:#e53633;stroke-linejoin:round;stroke-width:2px"/><line x1="29" y1="19" x2="29" y2="22" style="fill:none;stroke:#e53633;stroke-linejoin:round;stroke-width:2px"/></svg>