<svg xmlns="http://www.w3.org/2000/svg" viewBox="0 0 383.03518 80.02152"><title>icon_17</title><path d="M1021.00659,424.86838c-.473,5.28491-.90246,10.08277-1.34357,15.011h-8.62466v-9.78618H860.18954v4.57512a3.2805,3.2805,0,0,0,1.06472.3143c5.80717.026,11.61453.01741,17.58291.01741v14.66284l-1.209,1.209H766.37184l-1.28007-1.28008V435.16049h18.66494v-5.02H728.22225v34.78742H732.802v3.977H718.17052v-3.769h5.68783V430.08926H708.06516v-24.5241l-1.39946-1.39945h-68.499l-.19527-4.01891h73.91564v24.72158Zm-145.1078,14.28041H768.25v8.70242H875.89879ZM808.906,431.17142H786.96059q.13371,2.1235.23028,3.65716H808.906Zm3.1815,3.66356h20.94648l-.21021-3.67H812.08746Zm24,0H857.034c-.08048-1.40477-.15073-2.63134-.21022-3.67H836.08746Zm181.74585,2.08169v-6.94878l-3.66662.19822v6.75056Z" transform="translate(-637.97141 -400.1468)"/><circle cx="301.122" cy="60.89652" r="17.125" style="fill:none;stroke:#000;stroke-miterlimit:10;stroke-width:4px"/><circle cx="300.93548" cy="60.76702" r="6.57778" style="fill:none;stroke:#000;stroke-miterlimit:10;stroke-width:4px"/><circle cx="342.74065" cy="60.89652" r="17.125" style="fill:none;stroke:#000;stroke-miterlimit:10;stroke-width:4px"/><circle cx="342.55413" cy="60.76702" r="6.57778" style="fill:none;stroke:#000;stroke-miterlimit:10;stroke-width:4px"/><polygon points="321.806 47.272 307.806 37.272 335.806 37.272 321.806 47.272" style="fill:none;stroke:#000;stroke-miterlimit:10;stroke-width:4px"/><rect x="280.52859" y="34.68819" width="29.56008" height="4.91667"/><rect x="333.08601" y="34.68819" width="29.56008" height="4.91667"/></svg>