<svg xmlns="http://www.w3.org/2000/svg" viewBox="0 0 44 44"><title>icon_45</title><polygon points="43 31 40 28 31 37 27 33 24 36 31 43 43 31" style="fill:none;stroke:#e53633;stroke-linejoin:round;stroke-width:2px"/><path d="M2582.99414,2494.21185a19.97749,19.97749,0,1,1,16.3588-15.3639" transform="translate(-2558.83584 -2453.45985)" style="fill:none;stroke:#e53633;stroke-linejoin:round;stroke-width:2px"/><path d="M2580.87524,2490.42665q-.5154.033-1.0394.0332a15.98362,15.98362,0,1,1,15.1789-10.9265" transform="translate(-2558.83584 -2453.45985)" style="fill:none;stroke:#e53633;stroke-linejoin:round;stroke-width:2px"/><polyline points="30 13 21 22 15 17" style="fill:none;stroke:#e53633;stroke-linejoin:round;stroke-width:2px"/><line x1="21" y1="7" x2="21" y2="10" style="fill:none;stroke:#e53633;stroke-linejoin:round;stroke-width:2px"/><line x1="21" y1="32" x2="21" y2="35" style="fill:none;stroke:#e53633;stroke-linejoin:round;stroke-width:2px"/><line x1="7" y1="21" x2="10" y2="21" style="fill:none;stroke:#e53633;stroke-linejoin:round;stroke-width:2px"/><line x1="32" y1="21" x2="35" y2="21" style="fill:none;stroke:#e53633;stroke-linejoin:round;stroke-width:2px"/></svg>