<svg xmlns="http://www.w3.org/2000/svg" viewBox="0 0 50.67 29.83"><title>icon_14</title><path d="M3626,1438h7.94a2,2,0,0,1,1.66.87l3.4,6.13h1a2,2,0,0,1,2,2.21V1454a2,2,0,0,1-2,2h-2" transform="translate(-3592.33 -1431.17)" style="fill:none;stroke:#505050;stroke-linejoin:round;stroke-width:2px"/><line x1="9.67" y1="24.83" x2="4.67" y2="24.83" style="fill:none;stroke:#505050;stroke-linejoin:round;stroke-width:2px"/><line x1="33.67" y1="24.83" x2="17.68" y2="24.83" style="fill:none;stroke:#505050;stroke-linejoin:round;stroke-width:2px"/><line x1="5.67" y1="19.83" x2="5.67" y2="24.83" style="fill:none;stroke:#505050;stroke-linejoin:round;stroke-width:2px"/><polyline points="5.5 19.83 8.17 1 31.9 1 29.23 19.83" style="fill:none;stroke:#505050;stroke-linejoin:round;stroke-width:2px"/><line x1="33.67" y1="5.83" x2="33.67" y2="24.83" style="fill:none;stroke:#505050;stroke-linejoin:round;stroke-width:2px"/><path d="M3638,1456a4,4,0,1,1-4-4A4,4,0,0,1,3638,1456Z" transform="translate(-3592.33 -1431.17)" style="fill:none;stroke:#505050;stroke-linejoin:round;stroke-width:2px"/><path d="M3610,1456a4,4,0,1,1-4-4A4,4,0,0,1,3610,1456Z" transform="translate(-3592.33 -1431.17)" style="fill:none;stroke:#505050;stroke-linejoin:round;stroke-width:2px"/><line x1="33.67" y1="24.83" x2="37.67" y2="24.83" style="fill:none;stroke:#505050;stroke-linejoin:round;stroke-width:2px"/><polyline points="35.67 14.83 42.67 14.83 44.67 13.83 46.67 13.83" style="fill:none;stroke:#505050;stroke-linejoin:round;stroke-width:2px"/><line x1="4.67" y1="19.83" x2="32.67" y2="19.83" style="fill:none;stroke:#505050;stroke-linejoin:round;stroke-width:2px"/><line x1="17.68" y1="10.49" x2="3.35" y2="10.49" style="fill:none;stroke:#505050;stroke-linejoin:round;stroke-width:2px"/><line x1="14.33" y1="14.83" y2="14.83" style="fill:none;stroke:#505050;stroke-linejoin:round;stroke-width:2px"/><line x1="22.5" y1="6.08" y2="6.08" style="fill:none;stroke:#505050;stroke-linejoin:round;stroke-width:2px"/></svg>