<svg xmlns="http://www.w3.org/2000/svg" viewBox="0 0 47 43"><title>icon_24</title><path d="M2748.83584,2217.45985h5a1,1,0,0,1,1,1v14" transform="translate(-2716.83584 -2214.45985)" style="fill:none;stroke:#505050;stroke-linejoin:round;stroke-width:2px"/><path d="M2738.83584,2246.45985h-20a1,1,0,0,1-1-1v-27a1,1,0,0,1,1-1h5" transform="translate(-2716.83584 -2214.45985)" style="fill:none;stroke:#505050;stroke-linejoin:round;stroke-width:2px"/><circle cx="35" cy="31" r="11" style="fill:none;stroke:#505050;stroke-linejoin:round;stroke-width:2px"/><line x1="1" y1="11" x2="38" y2="11" style="fill:none;stroke:#505050;stroke-linejoin:round;stroke-width:2px"/><polyline points="40 26 35 32 31 29" style="fill:none;stroke:#505050;stroke-linejoin:round;stroke-width:2px"/><line x1="30" x2="30" y2="6" style="fill:none;stroke:#505050;stroke-linejoin:round;stroke-width:2px"/><line x1="11" y1="3" x2="28" y2="3" style="fill:none;stroke:#505050;stroke-linejoin:round;stroke-width:2px"/><line x1="9" x2="9" y2="6" style="fill:none;stroke:#505050;stroke-linejoin:round;stroke-width:2px"/><line x1="12" y1="16" x2="15" y2="16" style="fill:none;stroke:#505050;stroke-linejoin:round;stroke-width:2px"/><line x1="17" y1="16" x2="20" y2="16" style="fill:none;stroke:#505050;stroke-linejoin:round;stroke-width:2px"/><line x1="22" y1="16" x2="25" y2="16" style="fill:none;stroke:#505050;stroke-linejoin:round;stroke-width:2px"/><line x1="27" y1="16" x2="30" y2="16" style="fill:none;stroke:#505050;stroke-linejoin:round;stroke-width:2px"/><line x1="7" y1="21" x2="10" y2="21" style="fill:none;stroke:#505050;stroke-linejoin:round;stroke-width:2px"/><line x1="12" y1="21" x2="15" y2="21" style="fill:none;stroke:#505050;stroke-linejoin:round;stroke-width:2px"/><line x1="17" y1="21" x2="20" y2="21" style="fill:none;stroke:#505050;stroke-linejoin:round;stroke-width:2px"/><line x1="22" y1="21" x2="25" y2="21" style="fill:none;stroke:#505050;stroke-linejoin:round;stroke-width:2px"/><line x1="7" y1="26" x2="10" y2="26" style="fill:none;stroke:#505050;stroke-linejoin:round;stroke-width:2px"/><line x1="12" y1="26" x2="15" y2="26" style="fill:none;stroke:#505050;stroke-linejoin:round;stroke-width:2px"/><line x1="17" y1="26" x2="20" y2="26" style="fill:none;stroke:#505050;stroke-linejoin:round;stroke-width:2px"/></svg>