<svg xmlns="http://www.w3.org/2000/svg" viewBox="0 0 62.24 57"><defs><style>.cls-1{fill:none;stroke:#fff;stroke-linejoin:round;stroke-width:2px;}.cls-2{fill:#fff;}</style></defs><title>Ресурс 2</title><g id="Слой_2" data-name="Слой 2"><g id="Layer_1" data-name="Layer 1"><polyline class="cls-1" points="4.93 8.86 1 8.86 1 1 8.86 1 8.86 4.93"/><polyline class="cls-1" points="57.31 8.86 61.24 8.86 61.24 1 53.38 1 53.38 4.93"/><line class="cls-1" x1="12.79" y1="2.31" x2="49.45" y2="2.31"/><polyline class="cls-1" points="4.93 37.67 1 37.67 1 45.52 8.86 45.52 8.86 41.59"/><polyline class="cls-1" points="57.31 37.67 61.24 37.67 61.24 45.52 53.38 45.52 53.38 41.59"/><line class="cls-1" x1="12.79" y1="44.21" x2="23.26" y2="44.21"/><line class="cls-1" x1="38.98" y1="44.21" x2="49.45" y2="44.21"/><line class="cls-1" x1="2.31" y1="12.79" x2="2.31" y2="33.74"/><line class="cls-1" x1="59.93" y1="12.79" x2="59.93" y2="33.74"/><polyline class="cls-1" points="27.19 42.91 27.19 56 31.12 53.38 35.05 56 35.05 42.91"/><path class="cls-1" d="M33,25.39h0a2.47,2.47,0,0,0,2.17.8h0A2.53,2.53,0,0,1,38,28.59h0a2.54,2.54,0,0,0,1.15,2h0a2.56,2.56,0,0,1,.65,3.68h0a2.52,2.52,0,0,0-.4,2.3h0a2.54,2.54,0,0,1-1.84,3.24h0a2.51,2.51,0,0,0-1.77,1.5h0a2.51,2.51,0,0,1-3.48,1.28h0a2.48,2.48,0,0,0-2.31,0h0a2.5,2.5,0,0,1-3.47-1.28h0a2.54,2.54,0,0,0-1.77-1.5h0a2.56,2.56,0,0,1-1.86-3.24h0a2.52,2.52,0,0,0-.4-2.3h0a2.56,2.56,0,0,1,.64-3.68h0a2.51,2.51,0,0,0,1.15-2h0a2.52,2.52,0,0,1,2.83-2.4h0a2.5,2.5,0,0,0,2.18-.8h0A2.49,2.49,0,0,1,33,25.39Z"/><circle class="cls-1" cx="31.13" cy="33.74" r="3.93"/><path class="cls-2" d="M13.85,13.47h-2.8V14.9H13.8v1.63H11.05v2.73H9.35V11.84h4.5Z"/><path class="cls-2" d="M16.4,14.9a1.31,1.31,0,0,1,.6-.78,1.89,1.89,0,0,1,1-.27v1.8a1.6,1.6,0,0,0-1.09.2,1.07,1.07,0,0,0-.5,1v2.4H14.81V14H16.4Z"/><path class="cls-2" d="M20,17.24a1.19,1.19,0,0,0,1.27.74,1.32,1.32,0,0,0,1-.4l1.27.73a2.65,2.65,0,0,1-2.31,1.09,2.88,2.88,0,0,1-2.13-.79,2.68,2.68,0,0,1-.8-2,2.7,2.7,0,0,1,2.81-2.8,2.58,2.58,0,0,1,1.93.8,2.78,2.78,0,0,1,.77,2,3.2,3.2,0,0,1-.07.63Zm0-1.18h2.28a1.19,1.19,0,0,0-2.28,0Z"/><path class="cls-2" d="M26.08,17.24a1.2,1.2,0,0,0,1.28.74,1.28,1.28,0,0,0,1-.4l1.27.73a2.65,2.65,0,0,1-2.31,1.09,2.88,2.88,0,0,1-2.13-.79,2.8,2.8,0,0,1,2-4.8,2.56,2.56,0,0,1,1.92.8,2.78,2.78,0,0,1,.77,2,3.21,3.21,0,0,1-.06.63Zm0-1.18h2.28a1.06,1.06,0,0,0-1.12-.84A1.08,1.08,0,0,0,26.05,16.06Z"/><path class="cls-2" d="M38.49,11.84v1.63h-1.9v5.79h-1.7V13.47H33V11.84Z"/><path class="cls-2" d="M40.14,14.9a1.26,1.26,0,0,1,.59-.78,1.9,1.9,0,0,1,1-.27v1.8a1.59,1.59,0,0,0-1.09.2,1.05,1.05,0,0,0-.5,1v2.4H38.55V14h1.59Z"/><path class="cls-2" d="M43.93,13.21a.89.89,0,0,1-.67.28,1,1,0,0,1-.95-1,.93.93,0,0,1,.28-.68,1,1,0,0,1,.67-.28,1,1,0,0,1,1,1A.92.92,0,0,1,43.93,13.21Zm-1.46,6.05V14h1.59v5.3Z"/><path class="cls-2" d="M49.07,14h1.59v5.3H49.07v-.5a2,2,0,0,1-1.58.64,2.33,2.33,0,0,1-1.79-.81,2.8,2.8,0,0,1-.74-2,2.81,2.81,0,0,1,.74-2,2.33,2.33,0,0,1,1.79-.81,2,2,0,0,1,1.58.65ZM46.9,17.55a1.23,1.23,0,0,0,.91.35,1.24,1.24,0,0,0,.91-.35,1.28,1.28,0,0,0,.35-.94,1.31,1.31,0,0,0-.35-.95,1.24,1.24,0,0,0-.91-.35,1.23,1.23,0,0,0-.91.35,1.27,1.27,0,0,0-.35.95A1.24,1.24,0,0,0,46.9,17.55Z"/><path class="cls-2" d="M51.82,19.26V11.52h1.59v7.74Z"/></g></g></svg>