<svg xmlns="http://www.w3.org/2000/svg" viewBox="0 0 403.04763 121.9543"><title>icon_16</title><path d="M746.99944,156h185.999c.66666,0,1.33335-.00415,2,.00072,2.96631.02164,2.99616.02257,2.99695,2.79053.00775,26.66652.12036,53.334-.11179,79.99854-.03771,4.32835-1.11526,8.6783-.93692,13.08888.0145.35814-.71844,1.06024-1.1173,1.07015-2.48093.06165-4.96561-.02865-7.44907-.06857-.12677-2.28082-.25833-4.56139-.3765-6.84266a11.142,11.142,0,0,1,.0036-1.49917c.07868-.941-.07174-1.56988-1.26263-1.55451-3.49939.04515-7-.0022-10.49942.04024-.41717.00505-1.06.24682-1.184.54891a1.4799,1.4799,0,0,0,.3483,1.29186c1.96512,1.93785,2.70776,4.53359,3.91336,6.88775.3775.73707,1.15008,1.27383.32556,2.0696-.59354.57286-2.175-.00478-2.649-.88456-1.02658-1.90531-1.364-4.125-2.97714-5.77944-2.5965-2.663-4.68072-5.63639-8.94855-6.33871-2.52771-.416-4.86187-1.99984-7.704-1.89832a11.74828,11.74828,0,0,0-4.58185,1.08116,14.0963,14.0963,0,0,1-2.09481.96768c-.76865.20414-2.22065-.01765-2.3082.27051-.84332,2.77575-4.00989,2.84011-5.5191,5.01541-1.44529,2.08307-2.47925,4.36-3.77076,6.49375-.47039.77723-.57791,1.28963-1.58047,1.27877-.96524-.01044-1.12445-.4534-1.61356-1.24536-1.31189-2.12413-2.20086-4.4665-3.75873-6.51258-1.09707-1.44095-2.91153-1.69482-3.74758-3.3078-.79535-1.53449-2.527-1.6607-4.03263-2.25555a19.64257,19.64257,0,0,0-8.29178-1.73083c-3.08062.14509-9.33389,2.9233-12.116,5.56919-3.65827,3.47917-3.64991,3.48274-5.25,7.23947-.30194.70886-.536,1.66-1.09861,1.98537-.58047.33573-1.52368.04425-2.30819.02718.03729-.569-.11167-1.24444.14258-1.68956,1.46719-2.56881,3.06671-5.06258,4.50408-7.647.14817-.26645-.36508-1.21747-.7727-1.39916A5.20682,5.20682,0,0,0,837.19913,243q-28.74986,0-57.49967.009c-.804.00048-2.229-.04029-2.30514.23326a13.72305,13.72305,0,0,0-.36936,3.85077c.02,1.33718,1.14965.88383,1.86145.88932,4.49973.03478,9-.00927,13.49973.02679,3.18433.02551,3.57013.43849,3.60638,3.75578.03464,3.16628.05429,6.33419-.01071,9.4995a2.44557,2.44557,0,0,1-2.62585,2.7262c-.82978.05461-1.666.00938-2.49939.00938q-51.7497,0-103.49936.03316c-5.35233.01-5.55051-.35782-5.372-5.55513.08575-2.497-.0247-5.00028.02672-7.49922.04455-2.16507.76367-2.93788,2.88832-2.96222,4.666-.05346,9.33763-.136,13.99754.04107,1.91612.07281,2.21512-.56187,2.14276-2.25228-.11844-2.76627-.00894-2.79949-2.5263-2.80078q-25.74987-.01317-51.49967-.02922c-1.36268-.003-2.07131.11111-2.0548,1.80334.08616,8.83246.056,17.66624.02139,26.49939-.00462,1.18129.16175,1.94908,1.59162,1.73358a9.04957,9.04957,0,0,1,1.4982-.01009c.94844.01723,1.90706-.28938,1.9893,1.35932.0984,1.97247-1.1012,1.63374-2.21711,1.636-3.8333.00792-7.667-.02493-11.49972.02057-1.10806.01316-1.39718-.43854-1.36867-1.46785.0255-.9209.066-1.58784,1.268-1.56886,1.475.02328,3.74376.45106,4.24678-.2778.79325-1.1494.48819-3.11666.4955-4.73841.0338-7.4998.02343-14.99987.01-22.4998-.00433-2.41873-.03069-2.45606-2.32316-2.45856q-18.24987-.01993-36.49979-.00625H561.17236c-1,0-2.12469.28675-2.96564-.079a4.86524,4.86524,0,0,1-2.13959-2.162c-.33972-.65792-.06713-1.632-.06713-2.46533V159.79417c0-.83332.04664-1.66991-.01125-2.49919-.08086-1.15835.52009-1.36741,1.51084-1.31059,1.16283.06668,2.33242.01561,3.49908.01561Zm.29722,4H592.36005q-14.99386,0-29.98772.006c-2.33225.00327-2.36626.03767-2.36708,2.41276q-.0128,36.98487-.01507,73.96973c-.00226,3.14918.01764,2.60926,2.68913,2.60967q31.98691.005,63.97383.00187,107.70592,0,215.41183.03278a31.69126,31.69126,0,0,0,10.60044-2.19257,13.00943,13.00943,0,0,1,2.65417-.814c3.0885-.37064,5.93292.76568,8.81339,1.61669,1.034.30549,2.36068.41338,2.99017,1.11623a4.07294,4.07294,0,0,0,3.5296,1.25477c4.66446-.036,9.32938-.00985,13.99414-.01845.65219-.00121,1.73328.16105,1.88846-.13439,1.231-2.34343,3.7525-1.51854,5.55984-2.39853,4.21216-2.05092,8.47733-1.81964,12.8267-.116a20.95569,20.95569,0,0,0,6.81555,1.58c6.6575.20717,13.32559.08534,19.98947.06677,2.24081-.00624,2.268-.04166,2.2688-2.51134q.01089-33.7362.0043-67.47241c0-2.499-.03354-4.99863.01682-7.49659.01956-.97062-.1261-1.58154-1.2967-1.52725-1.32992.06169-2.66491.01425-3.99771.01425Zm-8.80177,101q23.233,0,46.466-.01447c2.62048-.005,5.2406-.20007,7.8609-.30734.05942-2.80665.09207-5.61426.19082-8.41953.04181-1.1878-.60009-1.31529-1.54608-1.2715-1.16333.05385-2.33105.01284-3.49685.01284q-47.965,0-95.92989.01386c-2.28728.00147-4.57442.20068-6.8616.30794-.05941,2.307-.15976,4.61391-.16761,6.9211-.00929,2.73295.02527,2.75264,3.02115,2.75385Q713.26333,261.00685,738.49489,261Zm-23.24741-17c-3.32213,0-6.64526.049-9.96594-.02029-1.70821-.03565-1.26515,1.12663-1.26627,2.022-.00111.89728-.43733,2.03351,1.26938,2.01959,6.47771-.05285,12.95618-.0391,19.43413-.00477,1.15916.00614,1.28282-.55,1.30573-1.51929.05786-2.44681.10754-2.469-2.30568-2.49115C720.89526,243.98009,718.07129,244,715.24748,244Zm48.77178,0c-3.15558,0-6.31594.1052-9.465-.03792-2.01441-.09154-1.48193,1.208-1.55653,2.26587-.07724,1.09519-.00569,1.83248,1.51335,1.80935,5.9776-.091,11.9588-.10976,17.93566.00319,2.01.038,1.481-1.21053,1.55555-2.26845.07726-1.09518.01-1.87678-1.5144-1.80827C769.67015,244.09041,766.84267,244,764.01926,244Zm-25.021,4c3.15557,0,6.31413-.08071,9.46542.03551,1.4805.0546,1.63954-.652,1.53883-1.7831-.09263-1.04047.50264-2.32786-1.53122-2.291-5.977.10829-11.958.08915-17.93574.00271-1.47634-.02135-1.63874.65241-1.538,1.78349.09262,1.04047-.50609,2.38832,1.53224,2.2874C733.34625,247.89555,736.17484,248,738.99825,248ZM935,246.48508c.00034-3.8065.00354-3.757-3.75748-3.51441-1.16864.0754-1.30249.6265-1.25409,1.55977.05136.98987.003,1.98457.01328,2.977.0256,2.47186.029,2.47182,2.26507,2.49255C934.99969,250.02534,934.99969,250.02534,935,246.48508ZM877.64258,243c-1.31534,0-2.63165-.02166-3.94415.03934-.11023.00512-.34867.77873-.26847.83665a9.00451,9.00451,0,0,1,3.14853,5.13593c.19794.66229.91486,1.31629,1.7056.22635,1.27225-1.7537,1.5798-4.11169,3.45572-5.47809-.21485-.2534-.41626-.71058-.64676-.72576C879.94708,242.959,878.79349,243,877.64258,243Z" transform="translate(-534.98177 -155.97598)"/><path d="M839.02512,260.40787a17.76577,17.76577,0,0,1,17.8508-18.38014c1.41424.04524,2.83813-.38444,4.2871.51584.99625.619,2.52216.32832,3.633.8351a21.82941,21.82941,0,0,1,3.49643,2.41759c.93076.67405.64688,2.21125,2.37665,2.58124,1.02472.21918,1.52933,2.3104,2.54873,3.2575,1.23374,1.14624.54905,2.46993.79542,3.69634.27563,1.37223,1.28347,2.96958.867,4.03794-1.1868,3.04448-.79333,6.39584-2.71783,9.39906a22.74713,22.74713,0,0,1-6.0889,6.04523,15.59961,15.59961,0,0,1-9.10312,2.92958,19.98765,19.98765,0,0,1-8.50314-2.084c-2.92078-1.653-5.01535-4.76586-7.46732-7.24719C841.42532,265.272,837.34375,263.17259,839.02512,260.40787ZM856.9404,273c3.29187,1.03294,5.86362-1.432,8.81723-2.93587a6.35016,6.35016,0,0,0,2.82211-3.40973,14.929,14.929,0,0,0,1.48313-5.9017c-.267-9.10931-5.13465-13.77187-13.0564-13.76062-3.28806.00467-6.27856.59419-8.68726,3.14653-2.59933,2.75434-4.93075,5.5096-4.35162,9.69713.203,1.468-.48737,3.28778.1604,4.41a20.76748,20.76748,0,0,1,2.33368,4.55513c.123.42033,1.86694.31386,1.57718,1.738a10.32214,10.32214,0,0,1,4.58111,2.346C853.28708,273.54977,855.165,273,856.9404,273Z" transform="translate(-534.98177 -155.97598)"/><path d="M881.00037,259.45644c.05252-3.1819-.02942-6.1942,1.81091-9.25616,1.16623-1.94039,3.824-2.22663,4.13455-4.64612,2.17075-.39509,3.20059-3.43527,5.92178-2.55416,4.04465-2.4099,8.1019-.366,12.1247.083.94974.106,1.748,1.30517,2.67645,1.90821,6.68707,4.34316,9.91632,10.70434,8.15421,17.95854-.57083,2.35-1.20709,5.23132-3.352,7.04432a30.49487,30.49487,0,0,0-3.29367,3.61437c-2.168,2.532-5.10382,2.44388-7.71064,3.25627-1.15817.36092-2.64862,1.31361-3.48391,1.00493-2.50064-.92413-5.13825-1.18987-7.62738-2.03622-.72141-.24531-1.8566-.56753-1.97925-1.05959-.58194-2.33469-3.34433-2.26354-4.26117-4.1431-.40653-.83336-.91928-1.6159-1.39978-2.41188-.56265-.9321-1.50729-1.80527-1.63812-2.7901A45.5955,45.5955,0,0,1,881.00037,259.45644ZM911,260.7746a13.5452,13.5452,0,0,1,.0072-1.49384c.78742-7.05444-5.70608-12.24516-12.459-12.34161-1.84452-.02635-3.38864.6625-5.07276,1.03476-2.13018.47085-3.86523,2.14261-5.55792,3.3687-2.23523,1.61914-1.73712,4.02951-2.58838,5.98481-.95746,2.19933-.1983,4.58251.60184,6.94373,2.39108,7.056,10.10928,11.06566,16.89832,8.3721C908.10184,270.55135,911.94339,266.29071,911,260.7746Z" transform="translate(-534.98177 -155.97598)"/><path d="M864.90344,259.44524c.499,2.17915-.31683,3.76655-1.96887,5.172-1.95526,1.6635-4.17154,3.09747-6.5997,3.22487a6.32545,6.32545,0,0,1-4.89-2.17365c-1.11115-1.68953-2.56162-3.50833-2.49891-5.93095.063-2.43477,1.22522-4.12167,2.64542-5.92883,1.47382-1.87543,3.27444-1.76675,5.27179-1.85451,2.43863-.10717,4.365.32706,6.07626,2.35237C864.28256,255.89615,865.46878,257.27563,864.90344,259.44524ZM856.74341,265c3.70819.04176,5.20456-1.27332,5.25656-4.61971.05991-3.85423-1.16248-5.31712-4.496-5.38031-3.82971-.07258-5.48224,1.24019-5.504,4.37232C851.97348,263.19664,853.46231,264.963,856.74341,265Z" transform="translate(-534.98177 -155.97598)"/><path d="M890,258.573a3.936,3.936,0,0,1,.37231-2.31314A37.42482,37.42482,0,0,1,894.53046,252c2.65924.5332,5.558-1.07865,8.07132.97656.76138.62258,4.44275,4.78571,4.348,5.61893a10.61948,10.61948,0,0,1-.98486,3.55788,11.35535,11.35535,0,0,1-6.74823,5.79814c-2.72214.88142-9.0625-4.01653-9.21305-6.8897C889.97763,260.56517,890,260.066,890,258.573Zm8.29025-3.57248c-3.87964-.00831-5.27429,1.35254-5.29025,4.917-.01636,3.658,1.33176,4.96207,4.873,5.12313,1.78463.08117,3.25027-.19455,4.30059-1.71891.62269-.90368,1.81919-1.91879,1.69538-2.71953a13.71062,13.71062,0,0,0-1.94138-4.156C901.06705,254.88753,899.54843,254.91443,898.29025,255.00053Z" transform="translate(-534.98177 -155.97598)"/><rect x="1.5" y="16.35736" width="21.50832" height="55.33333" rx="2" ry="2" style="fill:none;stroke:#000;stroke-miterlimit:10;stroke-width:3px"/><path d="M665.32907,209.005l-4.67312-2.70026,3.94522-2.34957a1.28152,1.28152,0,0,0,.46986-1.78342,1.26507,1.26507,0,0,0-1.76136-.42585l-5.26016,3.081-8.35987-4.86447,8.35981-4.81435,5.26015,3.076a1.02841,1.02841,0,0,0,.61071.19036,1.425,1.425,0,0,0,1.15065-.6112,1.28616,1.28616,0,0,0-.46985-1.78343l-3.94522-2.34957L665.329,190.97a1.3197,1.3197,0,0,0,.46985-1.78348,1.29628,1.29628,0,0,0-1.78491-.4709l-4.69667,2.72529-.07015-4.69914a1.29892,1.29892,0,0,0-1.29151-1.31259,1.3171,1.3171,0,0,0-1.29144,1.31259l.0466,6.202-8.31271,4.81435v-9.769l5.23667-2.9858a1.32381,1.32381,0,0,0,.51651-1.78343,1.26123,1.26123,0,0,0-1.76135-.4709l-3.99183,2.25439V179.673a1.31179,1.31179,0,0,0-1.31506-1.31252,1.29191,1.29191,0,0,0-1.29151,1.31252v5.38043l-4.13305-2.30445a1.24927,1.24927,0,0,0-1.73787.4709,1.29368,1.29368,0,0,0,.493,1.78343l5.378,3.03092v9.67382l-8.501-4.90453.04709-6.06178a1.2556,1.2556,0,0,0-1.268-1.31259h-.04709a1.32761,1.32761,0,0,0-1.29151,1.31259l-.04709,4.55884-4.57887-2.63011a1.26516,1.26516,0,0,0-1.76142.46589,1.3034,1.3034,0,0,0,.46991,1.7885l4.626,2.67516-4.0393,2.41972a1.25545,1.25545,0,0,0-.44593,1.78349,1.20868,1.20868,0,0,0,1.10361.6112,1.26726,1.26726,0,0,0,.6808-.19036l5.28377-3.1211L644.5,199.96246l-8.47749,4.90953-5.28377-3.12605a1.27764,1.27764,0,0,0-1.78447.42585,1.31867,1.31867,0,0,0,.44587,1.78342l4.03936,2.39463-4.626,2.70026a1.28729,1.28729,0,0,0-.46991,1.78849,1.198,1.198,0,0,0,1.10374.65632,2.35375,2.35375,0,0,0,.6578-.19036l4.57887-2.63011.04709,4.55884a1.30536,1.30536,0,0,0,1.29151,1.28749h.0471a1.2876,1.2876,0,0,0,1.268-1.33762l-.04709-6.05678,8.501-4.85941v9.62369l-5.378,3.03087a1.28236,1.28236,0,0,0-.493,1.78349,1.19361,1.19361,0,0,0,1.10361.66126,1.25567,1.25567,0,0,0,.63426-.14531l4.13306-2.34462V220.347a1.275,1.275,0,0,0,1.2915,1.29249,1.2949,1.2949,0,0,0,1.31506-1.29249v-5.3805l3.99183,2.25445a1.33885,1.33885,0,0,0,1.76136-.516,1.30411,1.30411,0,0,0-.51652-1.78349l-5.23667-2.93568v-9.769l8.31272,4.81435-.04661,6.152a1.30655,1.30655,0,0,0,1.29151,1.33762,1.2775,1.2775,0,0,0,1.29145-1.28749l.07015-4.72417,4.69667,2.75032a1.37747,1.37747,0,0,0,.68129.1403,1.20944,1.20944,0,0,0,1.10355-.6112A1.29224,1.29224,0,0,0,665.32907,209.005Z" transform="translate(-534.98177 -155.97598)"/><path d="M768.28492,209.005l-4.67312-2.70026,3.94523-2.34957a1.28152,1.28152,0,0,0,.46985-1.78342,1.26507,1.26507,0,0,0-1.76136-.42585l-5.26015,3.081-8.35988-4.86447,8.35981-4.81435,5.26016,3.076a1.02839,1.02839,0,0,0,.61071.19036,1.425,1.425,0,0,0,1.15065-.6112,1.28617,1.28617,0,0,0-.46985-1.78343l-3.94523-2.34957,4.67312-2.7002a1.31969,1.31969,0,0,0,.46985-1.78348,1.29628,1.29628,0,0,0-1.78491-.4709l-4.69666,2.72529-.07016-4.69914a1.29892,1.29892,0,0,0-1.2915-1.31259,1.31711,1.31711,0,0,0-1.29145,1.31259l.04661,6.202-8.31272,4.81435v-9.769l5.23667-2.9858a1.32382,1.32382,0,0,0,.51652-1.78343,1.26124,1.26124,0,0,0-1.76136-.4709l-3.99183,2.25439V179.673a1.31179,1.31179,0,0,0-1.31505-1.31252,1.29191,1.29191,0,0,0-1.29151,1.31252v5.38043L744.6143,182.749a1.24928,1.24928,0,0,0-1.73787.4709,1.29368,1.29368,0,0,0,.493,1.78343l5.378,3.03092v9.67382l-8.501-4.90453.0471-6.06178a1.25561,1.25561,0,0,0-1.268-1.31259h-.0471a1.3276,1.3276,0,0,0-1.2915,1.31259l-.0471,4.55884-4.57887-2.63011a1.26516,1.26516,0,0,0-1.76142.46589,1.30339,1.30339,0,0,0,.46992,1.7885l4.626,2.67516-4.0393,2.41972a1.25546,1.25546,0,0,0-.44593,1.78349,1.20869,1.20869,0,0,0,1.10362.6112,1.26726,1.26726,0,0,0,.6808-.19036l5.28376-3.1211,8.47749,4.85947-8.47749,4.90953-5.28376-3.12605a1.27766,1.27766,0,0,0-1.78448.42585,1.31868,1.31868,0,0,0,.44587,1.78342l4.03936,2.39463-4.626,2.70026a1.28729,1.28729,0,0,0-.46992,1.78849,1.198,1.198,0,0,0,1.10374.65632,2.35379,2.35379,0,0,0,.65781-.19036l4.57886-2.63011.0471,4.55884a1.30536,1.30536,0,0,0,1.2915,1.28749h.0471a1.28761,1.28761,0,0,0,1.268-1.33762l-.0471-6.05678,8.501-4.85941v9.62369l-5.378,3.03087a1.28236,1.28236,0,0,0-.493,1.78349,1.19362,1.19362,0,0,0,1.10362.66126,1.25563,1.25563,0,0,0,.63425-.14531l4.13306-2.34462V220.347a1.275,1.275,0,0,0,1.29151,1.29249,1.2949,1.2949,0,0,0,1.31505-1.29249v-5.3805l3.99183,2.25445a1.33885,1.33885,0,0,0,1.76136-.516,1.30411,1.30411,0,0,0-.51651-1.78349l-5.23668-2.93568v-9.769l8.31272,4.81435-.0466,6.152a1.30653,1.30653,0,0,0,1.29151,1.33762,1.27749,1.27749,0,0,0,1.29144-1.28749l.07015-4.72417,4.69667,2.75032a1.3775,1.3775,0,0,0,.68129.1403,1.20946,1.20946,0,0,0,1.10356-.6112A1.29223,1.29223,0,0,0,768.28492,209.005Z" transform="translate(-534.98177 -155.97598)"/><path d="M870.2579,209.005l-4.67312-2.70026,3.94522-2.34957a1.28152,1.28152,0,0,0,.46986-1.78342,1.26507,1.26507,0,0,0-1.76136-.42585l-5.26016,3.081-8.35987-4.86447,8.35981-4.81435,5.26015,3.076a1.02841,1.02841,0,0,0,.61071.19036,1.425,1.425,0,0,0,1.15065-.6112,1.28616,1.28616,0,0,0-.46985-1.78343l-3.94522-2.34957,4.67312-2.7002a1.3197,1.3197,0,0,0,.46985-1.78348,1.29628,1.29628,0,0,0-1.78491-.4709l-4.69667,2.72529-.07015-4.69914a1.29892,1.29892,0,0,0-1.29151-1.31259,1.3171,1.3171,0,0,0-1.29144,1.31259l.0466,6.202-8.31271,4.81435v-9.769l5.23667-2.9858a1.32381,1.32381,0,0,0,.51651-1.78343,1.26124,1.26124,0,0,0-1.76136-.4709l-3.99182,2.25439V179.673a1.31179,1.31179,0,0,0-1.31506-1.31252,1.29191,1.29191,0,0,0-1.29151,1.31252v5.38043l-4.13305-2.30445a1.24927,1.24927,0,0,0-1.73787.4709,1.29368,1.29368,0,0,0,.493,1.78343l5.378,3.03092v9.67382l-8.501-4.90453.04709-6.06178a1.2556,1.2556,0,0,0-1.268-1.31259h-.04709a1.32761,1.32761,0,0,0-1.29151,1.31259l-.04709,4.55884-4.57887-2.63011a1.26516,1.26516,0,0,0-1.76142.46589,1.3034,1.3034,0,0,0,.46991,1.7885l4.626,2.67516-4.0393,2.41972a1.25545,1.25545,0,0,0-.44593,1.78349,1.20868,1.20868,0,0,0,1.10361.6112,1.26726,1.26726,0,0,0,.6808-.19036l5.28377-3.1211,8.47749,4.85947-8.47749,4.90953-5.28377-3.12605a1.27764,1.27764,0,0,0-1.78447.42585,1.31867,1.31867,0,0,0,.44587,1.78342l4.03935,2.39463-4.626,2.70026a1.28729,1.28729,0,0,0-.46991,1.78849,1.198,1.198,0,0,0,1.10374.65632,2.35375,2.35375,0,0,0,.6578-.19036l4.57887-2.63011.04709,4.55884a1.30536,1.30536,0,0,0,1.29151,1.28749h.0471a1.2876,1.2876,0,0,0,1.26795-1.33762l-.04709-6.05678,8.501-4.85941v9.62369l-5.378,3.03087a1.28236,1.28236,0,0,0-.493,1.78349,1.19361,1.19361,0,0,0,1.10361.66126,1.25567,1.25567,0,0,0,.63426-.14531l4.13306-2.34462V220.347a1.275,1.275,0,0,0,1.2915,1.29249,1.2949,1.2949,0,0,0,1.31506-1.29249v-5.3805l3.99183,2.25445a1.33885,1.33885,0,0,0,1.76136-.516,1.30411,1.30411,0,0,0-.51652-1.78349l-5.23667-2.93568v-9.769l8.31271,4.81435-.0466,6.152a1.30654,1.30654,0,0,0,1.29151,1.33762,1.2775,1.2775,0,0,0,1.29145-1.28749l.07015-4.72417,4.69667,2.75032a1.37747,1.37747,0,0,0,.68129.1403,1.20944,1.20944,0,0,0,1.10355-.6112A1.29224,1.29224,0,0,0,870.2579,209.005Z" transform="translate(-534.98177 -155.97598)"/></svg>