<svg xmlns="http://www.w3.org/2000/svg" viewBox="0 0 47 45"><defs><style>.cls-1{fill:none;stroke:#fff;stroke-linejoin:round;stroke-width:2px;}</style></defs><title>slider_item_img_3</title><g id="Слой_2" data-name="Слой 2"><g id="Layer_1" data-name="Layer 1"><polyline class="cls-1" points="27 42 27 13 35 13 35 20"/><polyline class="cls-1" points="15 42 15 1 23 1 23 42"/><polyline class="cls-1" points="3 42 3 21 11 21 11 42"/><line class="cls-1" y1="44" x2="45" y2="44"/><path class="cls-1" d="M29.88,23.26a11,11,0,0,1,12.2,18.16"/><path class="cls-1" d="M32,35v1a2.1,2.1,0,0,0,2,2h2a2.08,2.08,0,0,0,2-2v-.3A1.81,1.81,0,0,0,36.64,34l-3.27-1A1.83,1.83,0,0,1,32,31.3V31a2.08,2.08,0,0,1,2-2h2a2.08,2.08,0,0,1,2,2v1"/><line class="cls-1" x1="35" y1="29" x2="35" y2="26"/><line class="cls-1" x1="35" y1="38" x2="35" y2="41"/></g></g></svg>