<svg xmlns="http://www.w3.org/2000/svg" viewBox="0 0 42 47"><defs><style>.cls-1{fill:none;stroke:#fff;stroke-linejoin:round;stroke-width:2px;}</style></defs><title>Ресурс 1</title><g id="Слой_2" data-name="Слой 2"><g id="Layer_1" data-name="Layer 1"><path class="cls-1" d="M30,5v9c0,1.66-6.49,3-14.5,3S1,15.66,1,14V5"/><path class="cls-1" d="M23,25.57a62.37,62.37,0,0,1-7.5.43C7.49,26,1,24.66,1,23V15"/><line class="cls-1" x1="30" y1="15" x2="30" y2="17"/><path class="cls-1" d="M19,34.91c-1.12.06-2.29.09-3.5.09C7.49,35,1,33.66,1,32V24"/><path class="cls-1" d="M1,4C1,2.34,7.49,1,15.5,1S30,2.34,30,4V5c0,1.66-6.49,3-14.5,3S1,6.66,1,5Z"/><line class="cls-1" x1="4" y1="12" x2="6" y2="12"/><line class="cls-1" x1="4" y1="21" x2="6" y2="21"/><line class="cls-1" x1="4" y1="30" x2="6" y2="30"/><rect class="cls-1" x="21" y="31" width="20" height="15" rx="1" ry="1"/><path class="cls-1" d="M25,24c0-2.76,2.69-5,6-5s6,2.24,6,5v7H25Z"/></g></g></svg>