<svg xmlns="http://www.w3.org/2000/svg" viewBox="0 0 46 24"><title>icon_12</title><path d="M3428,1438h7.94a2,2,0,0,1,1.66.87l3.4,6.13h1a2,2,0,0,1,2,2.21V1454a2,2,0,0,1-2,2h-2" transform="translate(-3399 -1437)" style="fill:none;stroke:#505050;stroke-linejoin:round;stroke-width:2px"/><line x1="5" y1="19" y2="19" style="fill:none;stroke:#505050;stroke-linejoin:round;stroke-width:2px"/><line x1="29" y1="19" x2="13.02" y2="19" style="fill:none;stroke:#505050;stroke-linejoin:round;stroke-width:2px"/><line x1="1" y1="14" x2="1" y2="19" style="fill:none;stroke:#505050;stroke-linejoin:round;stroke-width:2px"/><polyline points="16.56 12 16.56 5 25.56 5 25.56 13" style="fill:none;stroke:#505050;stroke-linejoin:round;stroke-width:2px"/><line x1="15.56" y1="13" x2="26.44" y2="13" style="fill:none;stroke:#505050;stroke-linejoin:round;stroke-width:2px"/><line x1="29" x2="29" y2="19" style="fill:none;stroke:#505050;stroke-linejoin:round;stroke-width:2px"/><path d="M3440,1456a4,4,0,1,1-4-4A4,4,0,0,1,3440,1456Z" transform="translate(-3399 -1437)" style="fill:none;stroke:#505050;stroke-linejoin:round;stroke-width:2px"/><path d="M3412,1456a4,4,0,1,1-4-4A4,4,0,0,1,3412,1456Z" transform="translate(-3399 -1437)" style="fill:none;stroke:#505050;stroke-linejoin:round;stroke-width:2px"/><line x1="29" y1="19" x2="33" y2="19" style="fill:none;stroke:#505050;stroke-linejoin:round;stroke-width:2px"/><polyline points="31 9 38 9 40 8 42 8" style="fill:none;stroke:#505050;stroke-linejoin:round;stroke-width:2px"/><line y1="14" x2="28" y2="14" style="fill:none;stroke:#505050;stroke-linejoin:round;stroke-width:2px"/></svg>