<svg xmlns="http://www.w3.org/2000/svg" viewBox="0 0 48 42"><title>icon_49</title><path d="M42.7376,3541.74045v-2c0-1.3041-2.7519-3-5-3s-5,1.6959-5,3v2" transform="translate(-22.7376 -3512.74045)" style="fill:none;stroke:#505050;stroke-linejoin:round;stroke-width:2px"/><path d="M37.7376,3529.74045a2.86128,2.86128,0,0,0-3,2.5205v1.959a3.04561,3.04561,0,0,0,6,0v-1.959A2.86128,2.86128,0,0,0,37.7376,3529.74045Z" transform="translate(-22.7376 -3512.74045)" style="fill:none;stroke:#505050;stroke-linejoin:round;stroke-width:2px"/><rect x="1" y="11" width="46" height="30" style="fill:none;stroke:#505050;stroke-linejoin:round;stroke-width:2px"/><polyline points="4 9 4 6 44 6 44 9" style="fill:none;stroke:#505050;stroke-linejoin:round;stroke-width:2px"/><polyline points="7 4 7 1 41 1 41 4" style="fill:none;stroke:#505050;stroke-linejoin:round;stroke-width:2px"/><line x1="24" y1="18" x2="39" y2="18" style="fill:none;stroke:#505050;stroke-linejoin:round;stroke-width:2px"/><line x1="24" y1="23" x2="39" y2="23" style="fill:none;stroke:#505050;stroke-linejoin:round;stroke-width:2px"/><line x1="24" y1="28" x2="39" y2="28" style="fill:none;stroke:#505050;stroke-linejoin:round;stroke-width:2px"/><line x1="9" y1="33" x2="39" y2="33" style="fill:none;stroke:#505050;stroke-linejoin:round;stroke-width:2px"/></svg>