<svg xmlns="http://www.w3.org/2000/svg" viewBox="0 0 46 32"><title>icon_11</title><path d="M3318,1438h7.94a2,2,0,0,1,1.66.87l3.4,6.13h1a2,2,0,0,1,2,2.21V1454a2,2,0,0,1-2,2h-2" transform="translate(-3289 -1429)" style="fill:none;stroke:#505050;stroke-linejoin:round;stroke-width:2px"/><polyline points="15 1 29 1 29 27 13 27" style="fill:none;stroke:#505050;stroke-linejoin:round;stroke-width:2px"/><line x1="5" y1="27" y2="27" style="fill:none;stroke:#505050;stroke-linejoin:round;stroke-width:2px"/><line x1="1" y1="22" x2="1" y2="27" style="fill:none;stroke:#505050;stroke-linejoin:round;stroke-width:2px"/><line x1="2.33" x2="2.33" y2="21" style="fill:none;stroke:#505050;stroke-linejoin:round;stroke-width:2px"/><line x1="16.59" y1="1" x2="1.42" y2="1" style="fill:none;stroke:#505050;stroke-linejoin:round;stroke-width:2px"/><path d="M3330,1456a4,4,0,1,1-4-4A4,4,0,0,1,3330,1456Z" transform="translate(-3289 -1429)" style="fill:none;stroke:#505050;stroke-linejoin:round;stroke-width:2px"/><path d="M3302,1456a4,4,0,1,1-4-4A4,4,0,0,1,3302,1456Z" transform="translate(-3289 -1429)" style="fill:none;stroke:#505050;stroke-linejoin:round;stroke-width:2px"/><line x1="29" y1="27" x2="33" y2="27" style="fill:none;stroke:#505050;stroke-linejoin:round;stroke-width:2px"/><polyline points="31 17 38 17 40 16 42 16" style="fill:none;stroke:#505050;stroke-linejoin:round;stroke-width:2px"/><line y1="22" x2="28" y2="22" style="fill:none;stroke:#505050;stroke-linejoin:round;stroke-width:2px"/></svg>