<svg xmlns="http://www.w3.org/2000/svg" viewBox="0 0 378.38087 108.43861"><title>icon_18</title><path d="M1021.00659,652c-.473,5.28491-.90246,10.08277-1.34357,15.011h-8.62466v-9.78618H860.18954v4.57512a3.2805,3.2805,0,0,0,1.06472.3143c5.80717.026,11.61453.01741,17.58291.01741v14.66284l-1.209,1.209H766.37184l-1.28007-1.28008V662.29211h18.66494v-5.02H728.22225v34.78742H732.802v3.977H718.17052v-3.769h5.68783V657.22089H648.06516c0-8.46469.82189-5.22089.82189-5.22089Zm-145.1078,14.28041H768.25v8.70242H875.89879ZM808.906,658.303H786.96059q.13371,2.12351.23028,3.65716H808.906Zm3.1815,3.66357h20.94648l-.21021-3.67H812.08746Zm24,0H857.034c-.08048-1.40478-.15073-2.63135-.21022-3.67H836.08746Zm181.74585,2.08168v-6.94878l-3.66662.19822v6.75056Z" transform="translate(-644.21414 -598.86133)"/><circle cx="294.87928" cy="89.31361" r="17.125" style="fill:none;stroke:#000;stroke-miterlimit:10;stroke-width:4px"/><circle cx="294.69275" cy="89.18411" r="6.57778" style="fill:none;stroke:#000;stroke-miterlimit:10;stroke-width:4px"/><circle cx="336.49793" cy="89.31361" r="17.125" style="fill:none;stroke:#000;stroke-miterlimit:10;stroke-width:4px"/><circle cx="336.3114" cy="89.18411" r="6.57778" style="fill:none;stroke:#000;stroke-miterlimit:10;stroke-width:4px"/><polygon points="315.564 75.689 301.564 65.689 329.564 65.689 315.564 75.689" style="fill:none;stroke:#000;stroke-miterlimit:10;stroke-width:4px"/><rect x="274.28586" y="63.10528" width="29.56008" height="4.91667"/><rect x="326.84329" y="63.10528" width="29.56008" height="4.91667"/><polygon points="67.036 51.056 5.703 2 128.036 2 67.036 51.056" style="fill:none;stroke:#000;stroke-miterlimit:10;stroke-width:4px"/><polygon points="189.369 51.056 128.036 2 250.369 2 189.369 51.056" style="fill:none;stroke:#000;stroke-miterlimit:10;stroke-width:4px"/><polygon points="311.703 51.056 250.369 2 372.703 2 311.703 51.056" style="fill:none;stroke:#000;stroke-miterlimit:10;stroke-width:4px"/></svg>