<svg xmlns="http://www.w3.org/2000/svg" viewBox="0 0 47 48"><defs><style>.cls-1{fill:none;stroke:#fff;stroke-linejoin:round;stroke-width:2px;}</style></defs><title>slider_item_img_2</title><g id="Слой_2" data-name="Слой 2"><g id="Layer_1" data-name="Layer 1"><polyline class="cls-1" points="33 3 46 3 46 29 43 29"/><line class="cls-1" x1="11" y1="16" x2="13" y2="16"/><path class="cls-1" d="M17.93,16a4.75,4.75,0,0,1,4.53-4.94A4.74,4.74,0,0,1,27,16a4.74,4.74,0,0,1-4.53,4.94A4.74,4.74,0,0,1,17.93,16Z"/><path class="cls-1" d="M27,7H8a3,3,0,0,1-3,3V22a2.77,2.77,0,0,1,3,3H27"/><path class="cls-1" d="M33,7h6a2.85,2.85,0,0,0,3,3.06V16"/><line class="cls-1" x1="30" x2="30" y2="4"/><line class="cls-1" x1="30" y1="7" x2="30" y2="11"/><line class="cls-1" x1="30" y1="14" x2="30" y2="18"/><line class="cls-1" x1="30" y1="21" x2="30" y2="25"/><polyline class="cls-1" points="30 31 28 29 1 29 1 3 27 3"/><line class="cls-1" x1="25" y1="33" x2="21" y2="29"/><path class="cls-1" d="M28,34l-5.95,6a3.9,3.9,0,0,0-2.55-1,4,4,0,0,0,0,8c1.83,0,2.72-1.28,3.5-2L39,29c1.66-1.67,2-3.64,2-6V20l-9,9"/><path class="cls-1" d="M35,37l3,3a3.9,3.9,0,0,1,2.55-1,4,4,0,0,1,0,8c-1.83,0-2.72-1.28-3.5-2l-5-5"/></g></g></svg>