<svg xmlns="http://www.w3.org/2000/svg" viewBox="0 0 48 45"><title>icon_52</title><polyline points="36 33 36 44 1 44 1 1 36 1 36 10" style="fill:none;stroke:#505050;stroke-linejoin:round;stroke-width:2px"/><line x1="1" y1="7" x2="36" y2="7" style="fill:none;stroke:#505050;stroke-linejoin:round;stroke-width:2px"/><line x1="4" y1="4" x2="6" y2="4" style="fill:none;stroke:#505050;stroke-linejoin:round;stroke-width:2px"/><line x1="7" y1="4" x2="9" y2="4" style="fill:none;stroke:#505050;stroke-linejoin:round;stroke-width:2px"/><polyline points="12 22 5 22 5 12 12 12" style="fill:none;stroke:#505050;stroke-linejoin:round;stroke-width:2px"/><line x1="4" y1="27" x2="12" y2="27" style="fill:none;stroke:#505050;stroke-linejoin:round;stroke-width:2px"/><line x1="4" y1="31" x2="12" y2="31" style="fill:none;stroke:#505050;stroke-linejoin:round;stroke-width:2px"/><line x1="4" y1="35" x2="17" y2="35" style="fill:none;stroke:#505050;stroke-linejoin:round;stroke-width:2px"/><line x1="4" y1="39" x2="17" y2="39" style="fill:none;stroke:#505050;stroke-linejoin:round;stroke-width:2px"/><path d="M2617.91651,187.40675h-28a2,2,0,0,0-2,2v15a2,2,0,0,0,2,2h4l3,5,3-5h18a2,2,0,0,0,2-2v-15A2,2,0,0,0,2617.91651,187.40675Z" transform="translate(-2572.91651 -175.40675)" style="fill:none;stroke:#505050;stroke-linejoin:round;stroke-width:2px"/><line x1="34" y1="18" x2="41" y2="25" style="fill:none;stroke:#505050;stroke-linejoin:round;stroke-width:2px"/><line x1="41" y1="18" x2="34" y2="25" style="fill:none;stroke:#505050;stroke-linejoin:round;stroke-width:2px"/><polyline points="29 18 24 25 21 22" style="fill:none;stroke:#505050;stroke-linejoin:round;stroke-width:2px"/></svg>