<svg xmlns="http://www.w3.org/2000/svg" viewBox="0 0 44.46 46.45"><defs><style>.cls-1{fill:none;stroke:#fff;stroke-linejoin:round;stroke-width:2px;}</style></defs><title>Ресурс 3</title><g id="Слой_2" data-name="Слой 2"><g id="Layer_1" data-name="Layer 1"><rect class="cls-1" x="12.26" y="19.4" width="16" height="12.27" rx="2" ry="2"/><path class="cls-1" d="M14.93,19.4V14.6a5.33,5.33,0,0,1,5.33-5.33h0A5.33,5.33,0,0,1,25.6,14.6v4.8"/><path class="cls-1" d="M36.19,33.51l4.53-.5a.76.76,0,0,0,.66-1.12,4.16,4.16,0,0,1-.63-1.56c.09-.31.59-.39,1.78-1.1a1.55,1.55,0,0,0,.57-2.42c-.48-.75-3.69-4.93-3.78-6.2,0-.82.94-2.9.24-6.17S35,.71,21,1,1,10.84,1,17.61,4.43,27.66,5.55,31C7,35.28,7.81,40.3,5.06,46"/><path class="cls-1" d="M27,46.22a11.5,11.5,0,0,1,3.05-5.56"/><path class="cls-1" d="M26,38.67A10.14,10.14,0,0,0,28,40c1.34.42,6.19,2.18,8.2,1.42s1.61-2.59,1.64-3.14c.07-1.34,1.43-1.5,1.22-3.31"/></g></g></svg>