<svg xmlns="http://www.w3.org/2000/svg" viewBox="0 0 44 46"><title>icon_22</title><path d="M414.27912,895.99993h-5v-2l-6,5,6,5v-2h5a15.076,15.076,0,1,1-10.07281,3.9272l-4.2454-4.2454a20.96649,20.96649,0,1,0,14.31821-5.6818Z" transform="translate(-392.27912 -892.99993)" style="fill:none;stroke:#505050;stroke-linejoin:round;stroke-width:2px"/><path d="M414.27912,921.99993h-7v-.9475l3.08249-2.9918a18.33156,18.33156,0,0,0,1.8391-1.9159,4.99336,4.99336,0,0,0,.769-1.2677,3.16027,3.16027,0,0,0,.2372-1.2674,2.55948,2.55948,0,0,0-2.1819-2.3375,4.39269,4.39269,0,0,0-4.5722,2.1173m1.5768,7.5747" transform="translate(-392.27912 -892.99993)" style="fill:none;stroke:#505050;stroke-linejoin:round;stroke-width:2px"/><path d="M423.27912,918.99993h-7v-1.4591l4.14529-6.5409h.85471v12" transform="translate(-392.27912 -892.99993)" style="fill:none;stroke:#505050;stroke-linejoin:round;stroke-width:2px"/></svg>