<svg xmlns="http://www.w3.org/2000/svg" viewBox="0 0 46 46.556"><title>icon_47</title><polyline points="32 16 23 24 19 18" style="fill:none;stroke:#e53633;stroke-linejoin:round;stroke-width:2px"/><line x1="22.9999" y1="7" x2="22.9999" y2="11" style="fill:none;stroke:#e53633;stroke-linejoin:round;stroke-width:2px"/><line x1="38.9999" y1="23" x2="34.9999" y2="23" style="fill:none;stroke:#e53633;stroke-linejoin:round;stroke-width:2px"/><line x1="22.9999" y1="39" x2="22.9999" y2="35" style="fill:none;stroke:#e53633;stroke-linejoin:round;stroke-width:2px"/><path d="M109.98649,3530.74065a17.987,17.987,0,1,1,14.7509,20.7509" transform="translate(-104.73769 -3510.74045)" style="fill:none;stroke:#e53633;stroke-linejoin:round;stroke-width:2px"/><path d="M105.73769,3533.74045a21.97925,21.97925,0,1,1,19.0003,21.7972" transform="translate(-104.73769 -3510.74045)" style="fill:none;stroke:#e53633;stroke-linejoin:round;stroke-width:2px"/><path d="M109.63432,3549.751v1.1819a2.65018,2.65018,0,0,0,2.696,2.3636h2.63729a2.62064,2.62064,0,0,0,2.66671-2.3636v-1.5395a2.21469,2.21469,0,0,0-1.80871-2.0181l-4.3606-1.1576a2.2382,2.2382,0,0,1-1.83069-2.0181v-1.5395a2.62062,2.62062,0,0,1,2.66669-2.3636h2.6666a2.62064,2.62064,0,0,1,2.66671,2.3636v1.1819" transform="translate(-104.73769 -3510.74045)" style="fill:none;stroke:#e53633;stroke-linejoin:round;stroke-width:2px"/><line x1="8.89662" y1="42.556" x2="8.89662" y2="46.556" style="fill:none;stroke:#e53633;stroke-linejoin:round;stroke-width:2px"/><line x1="8.89662" y1="25.556" x2="8.89662" y2="29.556" style="fill:none;stroke:#e53633;stroke-linejoin:round;stroke-width:2px"/></svg>