<svg xmlns="http://www.w3.org/2000/svg" viewBox="0 0 43 47"><title>icon_53</title><path d="M752.72331,2816.947h0a2.17567,2.17567,0,0,0,1.8971.698h0a2.19787,2.19787,0,0,1,2.4722,2.096h0a2.22,2.22,0,0,0,1.0107,1.7674h0a2.22837,2.22837,0,0,1,.5628,3.2112h0a2.23173,2.23173,0,0,0-.3487,2.0098h0a2.21306,2.21306,0,0,1-1.60989,2.8239h0a2.19188,2.19188,0,0,0-1.545,1.3117v.0001a2.17721,2.17721,0,0,1-3.02931,1.1152h0a2.16656,2.16656,0,0,0-2.0183,0h0a2.18015,2.18015,0,0,1-3.0313-1.1152v-.0001a2.197,2.197,0,0,0-1.5473-1.3117h0a2.217,2.217,0,0,1-1.61479-2.8239h0a2.23359,2.23359,0,0,0-.35221-2.0098h0a2.22678,2.22678,0,0,1,.5571-3.2112h0a2.21506,2.21506,0,0,0,1.0076-1.7674h0a2.19338,2.19338,0,0,1,2.46851-2.096h0a2.17249,2.17249,0,0,0,1.896-.698h0A2.17209,2.17209,0,0,1,752.72331,2816.947Z" transform="translate(-728.11652 -2794.23033)" style="fill:none;stroke:#505050;stroke-linejoin:round;stroke-width:2px"/><circle cx="23.00779" cy="30" r="3" style="fill:none;stroke:#505050;stroke-linejoin:round;stroke-width:2px"/><polyline points="26 38 26 46 23 43 20 46 20 38" style="fill:none;stroke:#505050;stroke-linejoin:round;stroke-width:2px"/><line x1="15" y1="13" x2="31" y2="13" style="fill:none;stroke:#505050;stroke-linejoin:round;stroke-width:2px"/><line x1="19" y1="17" x2="27" y2="17" style="fill:none;stroke:#505050;stroke-linejoin:round;stroke-width:2px"/><path d="M746.11652,2836.23033h-14a2.99994,2.99994,0,0,1-3-3v-2h6" transform="translate(-728.11652 -2794.23033)" style="fill:none;stroke:#505050;stroke-linejoin:round;stroke-width:2px"/><path d="M765.11652,2800.23033v33a3,3,0,0,1-3,3h-6" transform="translate(-728.11652 -2794.23033)" style="fill:none;stroke:#505050;stroke-linejoin:round;stroke-width:2px"/><path d="M732.11652,2836.23033a3,3,0,0,0,3-3v-35a3,3,0,0,1,6,0v2h29v-2a3,3,0,0,0-3-3h-29" transform="translate(-728.11652 -2794.23033)" style="fill:none;stroke:#505050;stroke-linejoin:round;stroke-width:2px"/></svg>