<svg xmlns="http://www.w3.org/2000/svg" viewBox="0 0 48 43.53"><defs><style>.cls-1{fill:none;stroke:#fff;stroke-linejoin:round;stroke-width:2px;}</style></defs><title>slider_item_img_1</title><g id="Слой_2" data-name="Слой 2"><g id="Layer_1" data-name="Layer 1"><path class="cls-1" d="M4.5,10A3.59,3.59,0,0,1,1,6.14V4.86A3.59,3.59,0,0,1,4.5,1,3.59,3.59,0,0,1,8,4.86V6.14A3.59,3.59,0,0,1,4.5,10Z"/><path class="cls-1" d="M3.38,24.13,1.4,19a5.4,5.4,0,0,1-.31-2.58C1.42,14,2.64,13,5,13H6.83a4.82,4.82,0,0,1,3.7,1.53L15,20l6,1s.45,3-3,3H12L7,18"/><path class="cls-1" d="M21.5,43l-5-8c-.4-.61-.68-1.11-1.21-1.28C14,33.34,11.76,32.57,10,32c-1.18-.38-3.21-1.29-3.95-2.48-.54-.89-1-1.85-1.37-2.65"/><path class="cls-1" d="M11,23l1.41,3.28a2,2,0,0,0,1,1c1.1.49,3.21,1.44,4.56,2a4.86,4.86,0,0,1,3,2.89L26.5,43"/><path class="cls-1" d="M15.5,10A3.59,3.59,0,0,1,12,6.14V4.86A3.59,3.59,0,0,1,15.5,1,3.59,3.59,0,0,1,19,4.86V6.14A3.59,3.59,0,0,1,15.5,10Z"/><path class="cls-1" d="M14,13h4a4.35,4.35,0,0,1,3.53,1.53L26,20l6,1s.45,3-3,3H23"/><path class="cls-1" d="M32.5,43l-5-8c-.4-.61-.68-1.11-1.21-1.28L24,33"/><path class="cls-1" d="M23.72,27s3.39,1.56,5.28,2.29a4.86,4.86,0,0,1,3,2.89L37.5,43"/><path class="cls-1" d="M11,23H6.24c-2.94,0-5,3.13-5,6"/><line class="cls-1" x1="48" y1="23" x2="32" y2="23"/><line class="cls-1" x1="15.84" y1="43" x2="17.17" y2="36.07"/><line class="cls-1" x1="12.82" y1="32.88" x2="12" y2="43"/></g></g></svg>