<svg xmlns="http://www.w3.org/2000/svg" viewBox="0 0 403.33333 118.97027"><title>icon_21</title><rect x="11.53044" y="2" width="381.49896" height="86.68393" style="fill:none;stroke:#000;stroke-miterlimit:10;stroke-width:4px"/><rect x="35.5417" y="13.34197" width="4" height="64"/><rect x="64.87503" y="13.34197" width="4" height="64"/><rect x="94.87503" y="13.34197" width="4" height="64"/><rect x="124.87503" y="13.34197" width="4" height="64"/><rect x="154.87503" y="13.34197" width="4" height="64"/><rect x="184.87503" y="13.34197" width="4" height="64"/><rect x="214.87503" y="13.34197" width="4" height="64"/><rect x="244.87503" y="13.34197" width="4" height="64"/><rect x="274.87503" y="13.34197" width="4" height="64"/><rect x="304.87503" y="13.34197" width="4" height="64"/><rect x="334.87503" y="13.34197" width="4" height="64"/><rect x="364.87503" y="13.34197" width="4" height="64"/><rect x="2" y="88.68393" width="399.33333" height="16.28634" style="fill:none;stroke:#000;stroke-miterlimit:10;stroke-width:4px"/><path d="M596.66667-75.66667a12,12,0,0,1-12,12,12,12,0,0,1-12-12Z" transform="translate(-547 180.63694)" style="fill:none;stroke:#000;stroke-miterlimit:10;stroke-width:4px"/><path d="M627.875-75.66667a12,12,0,0,1-12,12,12,12,0,0,1-12-12Z" transform="translate(-547 180.63694)" style="fill:none;stroke:#000;stroke-miterlimit:10;stroke-width:4px"/><path d="M892-75.66667a12,12,0,0,1-12,12,12,12,0,0,1-12-12Z" transform="translate(-547 180.63694)" style="fill:none;stroke:#000;stroke-miterlimit:10;stroke-width:4px"/><path d="M923.20836-75.66667a12,12,0,0,1-12,12,12,12,0,0,1-12-12Z" transform="translate(-547 180.63694)" style="fill:none;stroke:#000;stroke-miterlimit:10;stroke-width:4px"/></svg>