<svg xmlns="http://www.w3.org/2000/svg" viewBox="0 0 47.99311 39"><title>icon_50</title><path d="M668.77881,3433.24045a4.00016,4.00016,0,1,0,4.0002-4A4.00014,4.00014,0,0,0,668.77881,3433.24045Z" transform="translate(-641.78601 -3416.24045)" style="fill:none;stroke:#505050;stroke-linejoin:round;stroke-width:2px"/><path d="M679.15861,3443.39145l3.28851,2.8083,3.29129-3.2912-2.8085-3.2884a11.91452,11.91452,0,0,0,1.5415-3.7127l4.30771-.3396v-4.6547l-4.30761-.3394a11.91324,11.91324,0,0,0-1.5415-3.7129l2.8084-3.2885-3.2912-3.2912-3.2885,2.8084a11.91563,11.91563,0,0,0-3.7129-1.5415l-.3394-4.3076h-4.6546l-.3394,4.3076a11.92385,11.92385,0,0,0-3.71329,1.5417l-3.28841-2.8083-3.2914,3.2914,2.8086,3.2884a11.91621,11.91621,0,0,0-1.5413,3.7129l-2.0583.1622" transform="translate(-641.78601 -3416.24045)" style="fill:none;stroke:#505050;stroke-linejoin:round;stroke-width:2px"/><path d="M651.77912,3439.24025a4.05312,4.05312,0,0,1-4-4.2854v-1.4291a4.0095,4.0095,0,1,1,8,0v1.4292A4.0531,4.0531,0,0,1,651.77912,3439.24025Z" transform="translate(-641.78601 -3416.24045)" style="fill:none;stroke:#505050;stroke-linejoin:round;stroke-width:2px"/><path d="M642.77912,3454.24045s.6563-5.5625,1-8,1.8-4,4-4h2l6.981,8h6s.44729,4-3,4h-5.981l-5-6" transform="translate(-641.78601 -3416.24045)" style="fill:none;stroke:#505050;stroke-linejoin:round;stroke-width:2px"/><polyline points="15.993 31 19.993 25 33.993 25 27.993 35 22.993 35" style="fill:none;stroke:#505050;stroke-linejoin:round;stroke-width:2px"/><line x1="6.99311" y1="38" x2="35.99311" y2="38" style="fill:none;stroke:#505050;stroke-linejoin:round;stroke-width:2px"/></svg>