<svg xmlns="http://www.w3.org/2000/svg" viewBox="0 0 46 45"><defs><style>.cls-1{fill:none;stroke:#fff;stroke-linejoin:round;stroke-width:2px;}</style></defs><title>Ресурс 4</title><g id="Слой_2" data-name="Слой 2"><g id="Layer_1" data-name="Layer 1"><line class="cls-1" x1="23" y1="11" x2="40" y2="11"/><path class="cls-1" d="M45,41V10a3,3,0,0,0-3-3,2.52,2.52,0,0,0-2,1V39a2.52,2.52,0,0,1,2-1,3,3,0,0,1,0,6H1V11H25"/><path class="cls-1" d="M9,18H9a3,3,0,0,1,3,3v2H9L7,25v1L6,27H3"/><polyline class="cls-1" points="3 16 6 16 7 17"/><polyline class="cls-1" points="38 16 35 16 32.99 18 32 18"/><polyline class="cls-1" points="22 20 24 20 26 18 30 18"/><path class="cls-1" d="M26,40H24V35l-2-2H19V31a3,3,0,0,1,3-3h3l4,4v5Z"/><polygon class="cls-1" points="9 40 11 38 11 34 13 32 13 31 11 29 7 29 5 31 5 34 7 36 7 40 9 40"/><circle class="cls-1" cx="7" cy="4" r="3"/><line class="cls-1" x1="7" y1="7" x2="7" y2="21"/><polyline class="cls-1" points="20 21 20 24 25 24 29 28 29 28 31 28 32 27 33 27 35 29 38 29"/></g></g></svg>