<svg xmlns="http://www.w3.org/2000/svg" viewBox="0 0 101.20751 117.30438"><title>person_18</title><path d="M1719.5,105.43655c-1.55408-3.05447-2.88257-5.66568-4.1897-8.23481.45111-1.20158.55091-2.516,1.25983-3.16645,2.507-2.29986,2.7381-5.44943,2.81372-8.31362.14154-5.36177,1.096-10.32888,4.10645-14.82932,1.03625-1.5492.975-3.5029,2.1325-5.12748a22.499,22.499,0,0,1,11.51673-8.27681,10.94037,10.94037,0,0,0,2.08184-.99706,30.47514,30.47514,0,0,1,12.35553-3.80373c4.96827-.57283,9.96289-1.90343,15.04627-1.17541A59.85857,59.85857,0,0,1,1778.526,54.13c1.63892.59166,2.75842.49351,3.65033-.849.989.51161,1.64655.93353,2.36066,1.20837a41.0338,41.0338,0,0,1,16.47607,12.05179,11.99534,11.99534,0,0,1,2.09717,3.12021c1.81116,4.44339,4.7879,8.29523,6.40436,12.8321.42785,1.20076,2.06988,7.17158,1.96551,8.16527-.19671,1.874-.51159,3.7355-.80987,5.83039,1.79492,2.62329,1.79492,2.62329,4.57367,3.17139,2.775,5.63045.68884,10.28994-3.10846,15.02266l-7.53028-.89726a25.30311,25.30311,0,0,0-2.05908,4.45748c-2.11181,7.8965-7.37775,13.19638-14.09741,17.218a47.11571,47.11571,0,0,1-13.97644,5.31338c-.92456,1.72023-1.88214,3.502-2.95532,5.49892-.354,2.78074.75012,5.15178,2.70269,7.60881,3.19123,4.01567,5.80146,8.49305,8.88788,13.12224-13.15991,2.4774-25.7453,1.69239-38.33923.224,2.04376-2.87086,4.149-5.74025,6.15839-8.67536,2.02032-2.95121,3.94513-5.96789,5.93841-8.9964-1.02978-2.24179-1.92871-4.19873-3.04217-6.62271a67.04662,67.04662,0,0,0-7.66187-2.377,37.59827,37.59827,0,0,1-13.21289-5.41022,27.67271,27.67271,0,0,1-9.214-10.04684,48.62469,48.62469,0,0,1-3.19788-9.14973,29.08584,29.08584,0,0,1-1.00042-5.57207C1719.36993,108.57288,1719.5,106.7401,1719.5,105.43655Zm89.21967-.93655h-1.96051c-.48621,2.1718-.98285,4.39025-1.442,6.44084l4.55475,2.2377c1.28259-1.10947,2.51922-2.1792,2.96594-2.56558.81921-1.90272,1.312-2.85961,1.62354-3.87224.10961-.35642-.22449-.84938-.45166-1.59285-.955.63447-1.72327,1.145-2.50977,1.66761,0,.74275.0412,1.39381-.01239,2.037-.04761.57211-.2002,1.13549-.415,2.282-1.47406-1.43136-2.5437-2.47-3.60638-3.50187a11.28136,11.28136,0,0,0,.929-3.22316l.19532.19534.81713-.69708-.3153-.31531C1808.86,103.86469,1808.62756,104.137,1808.71967,104.5Zm-56.29255-14.427c.879,4.23769-1.57678,6.95789-4.808,9.64474h-3.32849c.52508,3.73023,2.96417,6.00027,5.53052,8.64581h-3.11768c-1.23145-1.43491-2.58447-3.01144-4.174-4.86357-2.81165,0-6.135-.04379-9.45648.01575-2.1333.03824-3.90082-1.00487-5.78034-1.72954-2.05566-.7926-1.87018-2.95784-2.3576-4.49982a19.746,19.746,0,0,1-.49787-5.20067c.56464-1.82147.80774-2.60567,1.33313-4.30082-1.63836.99464-2.41479,1.466-2.86834,1.74133-.49616,4.00761-1.1734,7.65522-1.34381,11.32635a58.54635,58.54635,0,0,0,.81243,13.08495c.79859,4.47506,3.37391,10.95456,6.36853,14.38667a33.88017,33.88017,0,0,0,11.61585,8.18233c3.33472,1.56442,5.52161,1.99976,10.32721,2.01507a3.56975,3.56975,0,0,1,1.78241.48385c1.2055.74425,2.32971,1.62006,3.47119,2.43162,4.176.637,7.59076-1.57927,10.35028-2.77367,2.5697.36082,4.29163.90458,5.95068.75419a32.219,32.219,0,0,0,5.34528-1.4914c3.90869-1.069,7.39911-3.07931,10.91333-4.97894a23.57743,23.57743,0,0,0,9.45917-9.44949c1.34253-2.41549,2.03174-5.26027,3.65344-7.436,1.65466-2.22013.61993-3.851.11383-5.1634.37769-2.01335.65912-3.51391.82465-4.39637-1.64136-2.2229-2.9386-3.8509-4.08557-5.57865a37.28558,37.28558,0,0,1-1.95868-3.67622c-1.16376-2.27013-2.41077-4.4548-5.06025-5.30578-.23028-.074-.45861-.15413-.66088-.22234-.39826.39816-.75122.75113-1.30573,1.30552.21607,4.92553-.05981,9.98207-3.23785,14.47546-7.54383,0-15.0141.12888-22.47467-.08323-2.07672-.059-4.1247-1.12733-5.85627-1.63583-.53717-3.07355-1.1491-5.54561-1.35778-8.05125-.2182-2.62088-.04871-5.27405-.04871-7.80377l-2.65094-1.27507C1753.55676,88.94321,1753.2038,89.29624,1752.42712,90.073Zm43.27808-18.9417a44.19913,44.19913,0,0,1-18.34009,3.40091c-5.15368-.15666-10.31592-.02841-15.47436-.03557a8.19408,8.19408,0,0,1-2.94483-.11865c-3.7937-1.56612-7.92175-1.76335-11.84082-2.63692a51.30212,51.30212,0,0,1-11.59625-4.26362,43.35766,43.35766,0,0,0-2.95227,5.2488c-.78333,1.94331-2.81043,3.25882-3.09045,5.43578,2.68127-.24151,5.42572.25851,7.26794-.80469,4.30792-2.48617,8.1673.5916,12.24341.27379,1.11841-.08721,2.3612,1.42012,3.49591,2.16239v4.28483c1.02283.86552,2.10077,1.77763,3.4237,2.89713a28.31528,28.31528,0,0,1,2.64051-3.77145,28.8896,28.8896,0,0,1,3.509-2.704,44.44973,44.44973,0,0,0,4.73157-.03578c1.54394-.173,3.04144-.80765,4.58435-.934a26.54757,26.54757,0,0,1,19.95868,7.24639,8.10259,8.10259,0,0,0,2.18469.92879C1791.98694,81.93992,1792.00122,81.32062,1795.7052,71.13132Zm-9.3009,15.28974c-3.19-1.16843-6.45826-2.21615-10.04236-1.92093-3.49854.28815-6.99695.57735-10.36536.85535-.59979-.9802-1.16925-1.91075-1.69555-2.77079l-2.83088,1.3501c-2.01641,5.545-.43652,11.44951-1.03448,17.07691a15.54453,15.54453,0,0,0,6.75171,2.483c2.49182.02045,5.30487-.7342,7.4021.17573,3.28308,1.42447,6.41015.289,9.28888.86667,2.10748-1.47631,1.7893-3.18573,1.22009-5.37742l-14.42468-.95006c-.41077-.45728-.83814-.93311-1.19239-1.32745.349-3.0746,3.28779-3.58289,4.52466-5.43523,4.3418.32807,8.59687-.91262,12.39826,2.11Zm-52.06067,2.12c7.37488-.06772,9.06054.97509,12.15637,7.13037-.30865.56821-.59027,1.08673-.87195,1.60524l.66626.52443c1.0918-.90995,2.18366-1.81989,3.22443-2.68726-.50464-3.96575,2.21466-7.64148.69287-11.2688-3.2384-1.12573-6.278-2.18237-9.31769-3.239-2.837,1.81739-6.75427.81864-8.96985,3.81817-.62616-.62626-.97967-.97983-1.33569-1.33586.27252-.42937.54242-.85466.81232-1.28l-.42371-.46446-2.43158,1.46708V96.7326c.94391,1.09719,1.70093,1.97707,2.37408,2.75953,3.19971.14164,6.30909-.583,8.59327.83835,1.42346-1.40078,2.55951-2.5188,3.688-3.62935-.21613-.21615-.56965-.56973-1.1-1.1001H1734.101c-.64807-.64811-1.1195-1.11951-1.88879-1.8888C1732.85364,92.15606,1733.55676,90.4502,1734.34363,88.54107Zm26.61316,74.12452c3.73974-7.02695,8.70831-13.21882,10.2232-21.45037l-4.15759,1.277-.602-.53659-9.04779,2.09047c1.25409,4.99041,2.44671,9.95024,2.20257,15.14641C1759.52405,160.27927,1760.431,161.411,1760.95679,162.66559ZM1810.272,102.438q.221.54723.442,1.09443l4.4939-.34608c-1.02063-1.30153-1.58289-2.01847-2.12635-2.71136C1812.10046,101.16049,1811.18628,101.79925,1810.272,102.438Zm-31.82843-8.71457c3.01081,1.69711,3.01081,1.69711,4.86866,1.09389C1782.082,92.94826,1780.35736,93.45285,1778.4436,93.72343ZM1718.75,100.5h.5v-2h-.5Z" transform="translate(-1715.3103 -51.2994)"/><path d="M1746.87036,113.5546h3.12274c1.159,3.19752,3.76593,4.14318,7.01239,3.93982.81806-.818,1.63617-1.63619,2.62378-2.62385v-2.26995H1762.5c0,.64731.21716,1.37756-.04016,1.84845-.81677,1.49423-1.5213,3.2971-2.81293,4.21827-1.43512,1.02356-3.10773,3.14453-5.3595,1.1201-2.58953.44195-3.65-2.22454-5.75036-2.90229C1747.85114,116.66383,1747.59961,115.09642,1746.87036,113.5546Z" transform="translate(-1715.3103 -51.2994)"/><path d="M1755.0791,107.484c-1.84875-.45123-3.62494-.88476-5.49072-1.34013V104.673h4.493C1754.659,105.36141,1756.3175,105.89214,1755.0791,107.484Z" transform="translate(-1715.3103 -51.2994)"/></svg>