<svg xmlns="http://www.w3.org/2000/svg" viewBox="0 0 104.55603 116.42533"><title>person_16</title><path d="M1075.55234,56.65359l4.78174-1.30495,5.16275,3.38364,1.38452-1.028,1.91626.92324c1.28232-1.40731,2.50479-2.74891,3.64432-3.99953h5.68612l1.909,1.909c1.01053-1.15124,2.00568-2.28492,3.45788-3.93931,1.03821.22932,2.98862-.81175,4.6811.86757a1.46377,1.46377,0,0,0,1.43185-.0011,4.99112,4.99112,0,0,1,4.6-.884A19.85144,19.85144,0,0,1,1118.47174,54.5c.087,0,.31571.07122.41028-.01129.741-.6464,1.45618-1.32227,2.15759-1.969h9.21674c5.00158,1.557,5.70877,5.02474,5.14325,9.00955,8.91168-1.7946,7.848-3.11013,17.69549,1.13622.80548,1.61007,1.56479,3.12788,2.402,4.80131-.32812.659-.735,1.47607-1.12238,2.254.34351.34653.56916.76106.7707.74965,3.37683-.19112,5.85907,1.05009,7.15832,4.74516-1.07239,1.46223-2.34378,3.19582-3.63357,4.95451.32272.32273.79385.79384,1.29745,1.29741h3.02921c1.103,1.1816,2.23413,2.39326,3.48684,3.73518v3.17658l-5.96139,3.81951c.65991.43248,1.45443.95322,1.9638,1.287V96.916q-1.64387,1.80219-3.23028,3.54144l5.22641,4.33v3.40411l-5.47916,2.04961c3.48755,3.58452,6.98367,6.98817,4.96643,13.25735l-2.06018,1.3463.38782.44252-6.462,1.527c-.35525,2.2891-.74044,4.77112-1.0849,6.99072-4.01278,2.85535-7.89492,1.57293-11.7789.55969-.6235,1.37645-1.196,2.64032-1.82238,4.02316h-6.12906c-1.90845-2.40783-5.43921-1.22376-8.18726-2.78161-.2738.362-.66546.87978-.96808,1.27983-.45959,2.19077-.91208,4.34746-1.36456,6.50414,2.04645,1.70137.43079,4.27829,1.575,6.35871,1.01258,1.84108,1.06626,4.20954,1.54676,6.36075,3.27685,1.61732,6.66079,2.8903,9.6271,2.45178,2.14667.8295,3.54605,1.51727,5.02368,1.91278a28.029,28.029,0,0,1,10.83985,5.182c.3099.25482.34344.84575.63076,1.61784l-2.56759.28809c-.484-.78481-.78592-1.96683-1.45633-2.238-2.474-1.00068-4.51856-2.89688-6.95148-3.70431-2.80694-.93158-5.91626-.95214-9.136-1.40207v6.88643l-1.87167.61071a28.43252,28.43252,0,0,0-.42016-4.80142,31.22139,31.22139,0,0,0-2.087-4.66638c-1.79767,1.79767-3.457,3.27493-4.89331,4.94405-1.4603,1.697-2.70084,3.583-4.18625,5.58673-.79663-3.6546-.79663-3.6546,6.23694-10.6882-.62613-2.298-.72583-5.03844-2.05145-6.911-1.558-2.20085.28268-4.98712-1.85886-6.76707.35336-2.502.70676-5.004,1.07031-7.5782-2.39322.63273-4.7988.83788-6.10748,3.54428,1.77719,4.3515.5842,9.026.20218,13.8065-.3746,4.68694-2.35224,8.74007-3.48743,13.21427h-2.81283c.75338-2.26714,1.45562-4.38031,2.13559-6.42643-1.5925-1.2629-2.28965.17951-2.84171.94843-1.557,2.16882-2.89682,4.49362-4.41318,6.90138l-1.33819-1.50735c-.61811-2.5721,3.95361-3.67981,2.10522-7.02248l-2.11642,1.081c-1.67166.14808-3.79248-.23951-5.14453.60449-1.61258,1.00657-3.811-.52843-4.8957,1.52255-3.07943-.48094-3.41931,1.67552-3.49307,3.96053l-1.61035-.08388c-.864-2.23258.84815-3.5757,1.44266-5.41347,7.57883-2.22235,15.13306-3.94035,23.081-3.4088a18.28891,18.28891,0,0,0,2.23807-8.3212c.05719-8.34822.08313-8.348-1.34225-10.61022-5.377,2.82071-10.70481,5.99639-16.66425,4.82543-5.864-3.92962-11.28668-7.72591-16.8913-11.23136a30.70272,30.70272,0,0,1-5.19873-4.304c-1.18927-1.16616-2.30523-2.41242-3.54687-3.51861-2.44174-2.17535-3.82138-4.7411-3.383-8.1077a21.44113,21.44113,0,0,0,.01227-2.38923l-2.98767-2.08779v-2.80319c.8417-.85091,1.96591-1.98741,3.25149-3.287l-5.23754-6.48254,1.23031-4.97769c-1.24911-1.251-2.3779-2.38156-3.829-3.83488,1.69559-1.40826,3.11032-2.58324,4.658-3.86863-.96768-1.44265-2.011-2.99807-3.08105-4.59329,0-1.28473,0-2.616-.00232-3.94747,1.30163-1.15323,2.15939-3.09517,4.44079-2.50323,1.00009-2.03529,2.04273-4.01264,4.97022-4.249l-1.53638-4.23984c1.19779-.96844,2.519-2.0367,4.2215-3.41319a12.84248,12.84248,0,0,1-1.018-3.52489C1074.54184,59.731,1075.14761,58.35878,1075.55234,56.65359Zm71.28314,53.01652h-4.05121c1.13968.90533,1.69708,1.34809,2.25083,1.788A6.34386,6.34386,0,0,0,1146.5,109.5a3.88357,3.88357,0,0,0,1.0022-1.49443l4.12924,2.49384c-1.34689-2.93581-1.34689-2.93581-4.13144-1.99941A1.67666,1.67666,0,0,0,1146.83548,109.67011Zm-56.37143-33.75524.12659.8707c1.03723-.32927,2.0683-.67961,3.11282-.9837,2.67328-.77827,5.34839-2.164,8.03027-2.182,7.51313-.05052,15.1391-1.09421,22.5203.95184,3.72207,1.03176,7.75995,2.05521,10.16134,5.45355a27.2668,27.2668,0,0,1,3.984,7.8004c1.19437,4.05041,1.70822,8.30148,2.53391,12.58037h1.20511a2.86234,2.86234,0,0,0,.345-.92751,32.31215,32.31215,0,0,0-.80136-7.11891c-.76493-2.95524-.182-6.25935-.182-9.35967a3.80517,3.80517,0,0,1-.74667-.76454c-3.08664-6.11069-4.63788-7.11458-11.7363-9.82816-4.49112-1.71688-9.28073-1.47416-13.768-2.89472-.30236-.09572-.80337-.1563-.97186.01-1.49679,1.47766-3.37335.77858-5.095.99591a51.48164,51.48164,0,0,0-8.43332,1.33395,28.89532,28.89532,0,0,0-10.22247,5.4241l-.04425-.864-1.95441.38235.08765.64573C1089.25241,77.38583,1089.88943,77.33115,1090.46405,75.91487Zm10.72351,67.75433c5.25848-2.22164,10.09039-3.89108,14.56333-6.24313,6.152-3.235,13.17889-4.887,18.35171-9.92607,2.98849-.69106,3.57886-3.43289,4.30728-5.66624,1.18213-3.62432,2.57392-6.73735,6.76456-7.52256.11587-.02171.19809-.22312.14664-.1613a33.42971,33.42971,0,0,0-5.33728-2.57264c-2.06827-.59916-3.49628-2.03467-5.24009-3.045-6.67736-3.8687-8.69986-10.44761-10.21084-17.298-.631-2.86061-.89957-5.80114-1.3414-8.76213-3.74686,3.08707-6.99359,6.31933-11.66553,7.56652-3.41022.91038-6.62137,2.63865-10.056,3.36567a50.24276,50.24276,0,0,1-11.04126,1.0073c-3.30173-.04686-6.5928-.845-10.12888-1.34571.3646-.85569.68485-1.60733,1.12281-2.63515-1.94361.23224-3.88184-.59182-4.802,1.68987a7.29348,7.29348,0,0,1,.67324.67992c-1.22045,1.53468-.61444,3.34112-.81839,5.02565-.22647,1.87086-.85958,3.71146-.92276,5.57854-.08731,2.58-1.27288,4.84248-1.69882,7.29035-.55688,3.20032-3.45462,5.84869-1.95022,10.01638.84051,1.01841,1.97119,2.57186,3.28711,3.9482a52.92639,52.92639,0,0,0,13.15731,10.34562C1092.87244,137.44319,1096.929,140.74919,1101.18756,143.6692Zm45.57648-26.42-3.99,1.46972c-.528,1.165-.96729,2.13442-1.29975,2.86807l2.38843,2.821h4.57987c.435-.94576.881-1.91529,1.25036-2.71826C1148.65082,120.10973,1147.79993,118.81972,1146.764,117.24923Zm-.47791-2.30042,2.84513,1.42,2.21725-2.21731v-2.5721a2.21219,2.21219,0,0,1-2.71707-.03508c-.23471-.13615-.7829.26815-1.44669.52465.47358.809.83625,1.42855,1.2414,2.12066ZM1086.5,77.83334v.33332h1v-.33332Z" transform="translate(-1061.92761 -52.39646)"/><path d="M1092.887,136.44263c-1.04382-2.07608-3.62857-2.746-5.11905-4.92826-1.226-1.795-3.85577-2.57352-5.63552-4.073-.861-.72543-1.19864-2.072-1.88486-3.34422.9783-.74853,1.88931-1.44561,3.429-2.62371,6.32892-.32867,12.93888,2.36249,20.267,3.822l1.61487-.93629c1.75,1.2888,3.46631,2.55273,5.68121,4.18389-3.61846,2.13848-5.35574,5.39628-8.1004,7.77481C1097.83566,137.43993,1097.83566,137.43993,1092.887,136.44263Zm10.75385-6.30275c-4.29645.42082-7.9784-2.7562-12.14923-1.2799-.06372,2.04172,1.74887,2.55916,2.508,3.54281h7.20029l-.5304-.63188Z" transform="translate(-1061.92761 -52.39646)"/><path d="M1103.95877,115.49128c-.73868-.80592-1.524-1.66266-2.4285-2.64951V109.98c1.72193-1.66028,3.51441-3.38855,5.87543-5.665l8.67438-1.04224,5.26571,2.64214a6.0959,6.0959,0,0,1-.11441,7.337C1115.68231,116.10518,1115.89856,116.66549,1103.95877,115.49128Zm14.77533-5.11348c-1.977-2.34034-3.95044-4.10567-6.99954-3.86356a5.63879,5.63879,0,0,0-1.24161.38616v3.77236c-.68344.66133-1.698,1.64306-2.75034,2.66132h9.82392Z" transform="translate(-1061.92761 -52.39646)"/><path d="M1082.5654,114.91521c3.29159,1.20575,5.813,4.275,9.82916,3.51129v1.97394c-4.60861.57549-8.1701-1.61608-11.79931-3.99681v-3.86038c-1.29566-1.954-2.25-3.39331-3.19346-4.81618.46531-.93711.87418-1.76064,1.40131-2.82232,2.82517-1.36427,2.82517-1.36427,8.4971-.33287,1.64841,1.94753,3.49692,4.13149,5.2207,6.168-.52685.80722-.865,1.32525-1.31906,2.021l5.56653,3.06559c-.73025.632-1.22366,1.059-1.73178,1.49874C1091.44247,114.03076,1087.05109,114.29939,1082.5654,114.91521Zm7.1918-3.579c-.64691-2.06824-1.46148-3.17189-3.21438-2.80716-1.32367.27543-2.2995,1.01968-1.88895,2.80716Z" transform="translate(-1061.92761 -52.39646)"/><path d="M1112.129,95.0061l-5.12586,5.87732c-.25-1.10013-.43493-1.91407-.62747-2.7614,1.87158-1.78951,3.66065-3.5001,5.72672-5.47558h4.58008l5.98907,5.37157-.66306,1.74545C1119.017,98.29967,1117.16251,94.62191,1112.129,95.0061Z" transform="translate(-1061.92761 -52.39646)"/><path d="M1077.97244,98.30882c.80655-1.23453,1.31391-2.01108,1.80426-2.76164h3.14661c.183.14962.44751.33449.67529.55692,1.65961,1.6207,3.31189,3.24894,4.71268,4.62542v2.71487c-1.69519-1.76159-3.26755-3.39557-4.62393-4.80508Z" transform="translate(-1061.92761 -52.39646)"/></svg>