<svg xmlns="http://www.w3.org/2000/svg" viewBox="0 0 101.43225 116.07271"><title>person_19</title><path d="M1584.41455,334.6481c.334,2.46469-.56171,4.813,1.08533,6.80719-2.91529,4.19019,1.6261,8.42905-.22919,12.60977-1.83124,3.64-4.81952,5.8783-8.63922,7.54077a25.67881,25.67881,0,0,1-12.0376,1.83863V369.379H1561.5a7.44118,7.44118,0,0,1,.03247-1.818,7.89009,7.89009,0,0,1,.87122-1.65732L1561,364.5c-2.59106,0-5.265.1937-7.89752-.05383-2.69727-.25363-5.36493.63894-8.16748-.77964-2.137-1.08166-5.166.62339-7.9159-1.53048-.26062.793-.53558,1.62967-.8106,2.46637-.68421,2.474-.68421,2.474.38916,4.63684-.64411.09921-1.213.1868-1.9928.30691V363.1048c-.52832-.52826-.88159-.88153-1.335-1.33484-5.76453-.82022-11.40076-2.75907-17.17017-3.94879-4.24322-.875-4.922-3.77768-5.48932-6.69071-.831-4.267-.91443-8.67962-1.34478-13.33682-4.20636-.81131-6.30555-4.51025-8.76307-8.1264v-9.19083c.85407-.71527,1.98865-1.66541,3.26514-2.73441-1.87061-2.34069-3.64313-4.55865-5.65216-7.0726,1.42755-2.00015,2.7951-3.91613,4.22082-5.91372-2.86444-4.41629-3.82244-5.95649,5.32331-11.96878-.39966-.80286-.80933-1.62592-1.32166-2.65519.36182-.74942.765-1.57663,1.16095-2.40731.33136-.69547.6543-1.395.98749-2.10688-2.76715-4.75532.79163-7.30162,3.2533-9.85414l5.56433-1.55688v-5.059c.9953-.93017,1.84332-1.72273,3.05053-2.851l6.77448.93846c.92224-1.68137,1.70294-3.90561,4.60858-3.79506a1.8793,1.8793,0,0,0,1.41821-1.16916c.08869-1.90933,2.06183-1.69218,2.89673-2.84675,2.10883.56262,4.60651-1.133,6.72394,2.04547.47058-1.40062.75049-2.23355,1.03033-3.06649l.67371.63593V256.7672l4.36139-3.17681c7.41144-.72049,13.49976,1.92063,18.87152,7.03488,1.77564-2.16781,3.62628-1.0363,4.97437-.05345,2.84112,2.0714,5.65509,4.36284,5.922,8.53447,1.97132.47328,4.08283.98024,7.01239,1.6836a32.9687,32.9687,0,0,1,2.7616,3.13958c1.63849,2.29712,3.22046,4.62217,3.14514,7.69515-.08679,3.54033-.43146,7.138,1.53461,10.7014,4.0296,1.75693,4.0296,1.75693,6.48419,8.934a17.35589,17.35589,0,0,1-1.22839,2.86029,13.979,13.979,0,0,1-2.03424,2.095c.49688,1.52963.92663,2.85281,1.47186,4.5314-.93408.75672-1.85584,1.50351-2.77673,2.24952-.71753,1.387-1.49695,2.89361-2.47388,4.78192,2.11474,3.23361.65576,6.97387-.03711,10.66946C1591.84338,331.78616,1589.16046,333.839,1584.41455,334.6481ZM1508.5,325.5v-3.49683l-.63971.62949c-.64716-1.17081-1.29431-2.34161-1.913-3.46088-2.4281,1.9733-2.4281,1.9733-4.42145,6.2699.7066,1.9195,1.10608,3.98526,2.16858,5.62015,1.10449,1.69955,2.84991,2.9826,4.39056,4.52322l1.113-2.69528,2.30194,2.05261c0,3.34888-.80029,7.08158.22119,10.22156,1.05737,3.25006-.51629,7.27213,3.11035,10.0398.6529.20224,1.71033.45205,2.7074.8522,4.05664,1.628,8.35223,2.37274,12.56354,3.41678a40.06711,40.06711,0,0,0,6.07428.995,32.18981,32.18981,0,0,1,6.61963.88114c2.29394.68258,4.95782.02121,7.44366.18856,2.37067.15967,4.71369.8378,7.08106.91459a62.89769,62.89769,0,0,0,11.09936-.75419,32.70763,32.70763,0,0,0,10.19928-3.22918,36.09428,36.09428,0,0,0,3.944-2.66895c1.75818-3.45013.84332-7.271.876-10.96658.03235-3.66763.85577-7.43637-.80328-10.45316.96759-2.69079,2.948-1.56442,3.91375-1.81912,1.58612-1.41516,2.819-2.51514,3.72065-3.31952.529-2.07065.94537-3.70065,1.35052-5.28668-1.23871-.51419-2.10614-.87427-3.12146-1.29575,0,2.2598.01489,4.24851-.02667,6.236-.00354.16824-.38428.32861-.95758.78628v-4.48047c-1.04352,1.377-1.76349,2.32709-2.83039,3.7349-.57647-4.33515,1.03229-6.76645,3.68171-8.48459l2.88635,1.22864c-.04828-2.83014-.04828-2.83014-1.76544-5.1792-3.69507,1.395-6.05829,3.86844-6.1847,9.262-1.10211-2.23251-1.63366-3.30914-2.10467-4.26327,1.00073-1.1622,1.72424-2.00241,2.6225-3.04554-2.85065-3.81555-7.44843-4.48034-11.31482-7.09191a8.481,8.481,0,0,1-3.41773,8.002,34.51084,34.51084,0,0,1-18.04358-2.97513,8.0663,8.0663,0,0,1-.74548-8.58206c-1.79645-1.831-3.5578-3.737-6.43622-3.22647a85.8174,85.8174,0,0,0-5.13672,24.8956c1.9068-2.63752,5.04328-1.55231,7.40717-2.82218,2.10968-1.13333,4.53534-2.88461,8.46612-1.50665-5.30908,4.49893-11.58038,4.696-16.52942,7.06046-.9129-.38306-1.62225-.6807-2.7-1.13291.44055-5.78461,2.25916-11.4841,2.48657-17.72269-.44213.82789-.88433,1.65577-1.08294,2.02762h-17.11749c-2.67847-.82812-1.91315-4.1708-5.15394-3.78625-.04772,2.10379.54932,4.65893-1.06219,6.31094a9.89638,9.89638,0,0,0-3.08386,7.596Zm25.78534-43.4846-5.8963.75994c.45654,2.087.88623,4.05132,1.37066,6.26577-1.19244.964-2.34423,1.89523-3.05035,2.46612v5.64319l10.51721,1.39035c.89521,1.16669,1.913,2.49332,2.85492,3.72089,3.324-2.419,4.90375-5.97336,5.8935-9.92914l1.58612.56519c-.76917,2.28613-1.50739,4.48043-2.35767,7.00793,1.62781,1.24618,3.20209,2.45142,4.87891,3.73511.55609-.85517,1.33874-1.50943,1.35431-2.18146.0559-2.411,1.34668-3.09491,3.47119-2.98743.14758.00745.31549-.38742.44537-.55777-.32068-.40112-.61786-.77279-.88184-1.103.44092-1.23447.85962-2.40671,1.549-4.3367a15.58717,15.58717,0,0,1,2.31543-1.93833c1.19977-.7417,2.63019-1.57385,4.03388-.98755,2.5979,1.08515,5.45117,1.97974,7.094,4.48255,1.48609,2.26425,1.09082,4.85684.97663,7.20031-.88318.29361-1.39667.46436-1.91016.63507l.06763.43937h2.3634c.9054,1.104,2.35339,2.06881,2.4043,3.10247.09887,2.00568,1.3789,2.97242,2.574,3.93845a33.43076,33.43076,0,0,0,4.78833,2.85263c.15918.08926.46039-.0748.98133-.1777-.37476-.7388-.7129-1.40549-1.39289-2.74607.37372-2.96038.83582-6.62109,1.28626-10.18936-3.03778-2.89242-5.43213-5.985-6.388-10.26779-2.42347-3.56949-6.44251-5.3268-10.596-7.19212-.38886,1.84771.63452,4.27934-2.38562,4.9174-3.17078-.32773-5.02527-2.90951-7.16327-4.97456-.82941,1.9382-1.66962,3.90156-2.49219,5.82387h-5.76465c-1.88592-1.37757-3.76867-2.75284-5.71539-4.17486-.895,2.083-1.59,4.00795-4.621,3.03017C1535.75977,284.86386,1534.90533,283.21312,1534.28534,282.0154Zm19.4632,19.59813c-.51594,4.08169-.97864,7.74234-1.49762,11.84881,4.97168,1.41834,9.60839,3.40891,14.68573,2.99814.91772-.8707,1.75946-1.66937,2.03424-1.93a24.98018,24.98018,0,0,0,1.47839-4.16111,36.25132,36.25132,0,0,0,.05072-4.87188C1565.12433,303.60852,1559.96423,300.77509,1553.74854,301.61353Zm-19.30915,10.80072c3.09754-3.61774,1.20423-7.476,2.83234-10.93479-.7887-.353-1.511-.97732-2.18506-.92908-4.46692.31974-9.10632-1.10739-13.38019,1.24167-.17084,1.89511-1.58636,2.54557-3.09613,3.07935v5.23892c.81293.813,1.51557,1.5156,2.30383,2.30393Zm33.31861-10.76c-3.18988-8.61155-3.18988-8.61155-8.17212-9.06366-.94428,1.78323-1.9422,3.66772-3.02552,5.71347C1560.11005,299.36609,1563.6214,300.41666,1567.758,301.65427Zm-29.20624,7.584,2.05151.39407c-.16693-1.24081-.28686-2.13223-.46686-3.47006C1539.46448,307.46655,1539.05121,308.2688,1538.55176,309.23828Z" transform="translate(-1498.11554 -253.47346)"/><path d="M1522.23138,327.99393c.54572-.60337,1.15961-1.282,1.58362-1.7508.94416.36695,1.39057.39774,1.49414.60221,1.40027,2.76413,1.60523,5.91742,3.11823,8.71185a19.98535,19.98535,0,0,0,8.97809,8.945c.56018.271,1.10589.57181,1.92016.99481h7.28614c6.79577-3.07709,9.32965-9.19,11.74707-15.1861.66467-1.64871,1.69287-2.58474,2.94067-4.14743.57117,3.37726-1.43329,5.64432-2.16412,8.2378a21.77418,21.77418,0,0,1-3.72,7.429c-1.8106,2.33243-4.2846,4.14981-6.90979,6.60358a32.07285,32.07285,0,0,1-6.78845,1.15384,13.38773,13.38773,0,0,1-9.08618-3.48c-4.72852-4.03076-5.81268-5.4477-8.39294-11.42472A61.00991,61.00991,0,0,1,1522.23138,327.99393Z" transform="translate(-1498.11554 -253.47346)"/><path d="M1508.34546,325.37213v5.03247h-1.67017v-2.57821c-1.16021-.22416-2.1889-.42292-3.20117-.61847.50226-2.00537.95-3.79316,1.47284-5.88086C1506.20557,322.8251,1507.34692,324.18359,1508.34546,325.37213Z" transform="translate(-1498.11554 -253.47346)"/><path d="M1541.95929,297.42587c-1.99872-2.44684-3.4552-4.22983-4.84058-5.92587h-3.11682c-.89984.89865-2.02624,2.02356-3.04217,3.03809l-2.42816-.12516c0-.88134-.32868-1.94189.05694-2.39618,1.66632-1.96328,3.55573-3.70367,6.45172-3.52633.98755.06045,1.98194.00958,2.62128.00958l2.52277,1.308C1540.48511,291.9086,1543.22424,293.54355,1541.95929,297.42587Z" transform="translate(-1498.11554 -253.47346)"/><path d="M1564.25055,311.90466c-.945-1.15139-1.67108-2.03616-2.64575-3.22381-.04261-1.08084-.70166-2.781,1.33911-3.91992l2.20825.95068C1566.77679,309.434,1566.77679,309.434,1564.25055,311.90466Z" transform="translate(-1498.11554 -253.47346)"/><path d="M1530.08917,304.58926c.37189.3718.72345.72333,1.24292,1.24268V309.197c-.6,1.15842-.98279,1.89749-1.19287,2.303-1.83,0-2.46-1.24289-2.66016-4.55942Z" transform="translate(-1498.11554 -253.47346)"/></svg>