<svg xmlns="http://www.w3.org/2000/svg" viewBox="0 0 82.95732 124.17581"><title>person_17</title><path d="M1293.38962,86.98592c-3.12854-2.87961-2.97385-6.9372-2.88989-10.45657,1.545-3.19886,2.51165-6.26211,4.33078-8.6854a32.94453,32.94453,0,0,1,7.4577-7.235c2.48364-1.71823,4.95636-3.79873,8.2583-4.13553,3.17761-.32412,6.33288-.86707,9.90484-1.3713.2605-.399.76929-1.17851,1.51478-2.32046a15.63416,15.63416,0,0,1,9.39563-1.20412c4.86486.92343,9.96533,1.1571,14.34906,3.91922,4.25091,2.67843,8.64825,5.19391,10.5672,10.27255.24346.64436.57232,1.25646,1.17413,2.56087,1.0979-2.01186,1.85181-3.39337,2.84607-5.21537v6.623c.86755.9111,1.5459,1.62345,2.23346,2.34552V78.351c1.15667,2.74355,2.05359,4.8709,2.813,6.67234-.65815,2.83951-.648,5.81237-2.01361,7.87387-1.48743,2.24532-2.57636,4.62323-4.37549,7.26615l4.43353.49194,4.13776,5.15951c-.32941,5.70873,1.34845,11.7484-3.56086,16.72286H1359.797c-.18817,3.20789-.18817,3.20789,1.725,6.63534l-1.84771.4674.52887.71659-2.28131-1.15115c-.20661,1.06027-.371,1.90383-.57428,2.94656-.44617.4462-1.035,1.03508-1.73578,1.73589v5.98452c2.30847,3.99347,5.15753,8.01781,4.958,13.18671,4.65992,7.13634,9.68164,14.05341,12.79248,22.07814-.11779.11774-.23065.33107-.35412.33736-.66321.03377-1.3291.016-2.16956.016-1.92962-8.36053-8.17-14.472-12.05029-22.36455-8.88519,8.81333-17.89453,17.37354-30.06213,22.168-.10944-.243-.3686-.81881-.62775-1.39457-1.31409-3.05869.42737-6.74805-1.33752-9.97417.31561-.55988.6184-1.09712.93005-1.65006-.5741-.61758-1.01605-1.09292-1.63873-1.76278-1.88874,2.82849-3.73487,5.5933-5.65943,8.47549v6.40289h-2.88v-4.73106l-.656-.3042c-.49829.80824-.99664,1.61649-1.66125,2.69448-1.08191-1.65558-1.84595-2.82482-2.80243-4.28844v-8.087c-5.02417,1.23992-5.53516,6.04358-8.06128,9.76241v4.96435h-1.608c-1.10675-3.9095,1.49017-7.04776,1.94635-10.60072,2.27587-2.03308,4.23108-4.40477,6.93829-6.07519,1.52808-.94283,2.467-2.88466,3.57861-4.44258.72547-1.01669,1.28467-2.152,2.2248-3.75751v-3.63751c-2.97767-2.17482-6.3454-1.10087-7.93415-1.28087-8.69616-3.06645-14.52228-7.43069-17.81521-14.71142-2.0701-9.80278-.71564-19.88-1.24582-29.88547-.13431-2.53433.92721-4.688,1.16565-7.07692C1291.80951,91.65765,1292.71869,89.4498,1293.38962,86.98592Zm34.13565,69.98814c3.25732-.58085,5.7901-.9094,8.25964-1.50155,3.77008-.904,7.67316-1.583,11.19312-3.1103a17.89864,17.89864,0,0,0,8.3349-8.15968c-3.0495-7.03668-1.207-14.47694-2.0459-21.95844-1.23065.5506-2.18762.97873-3.16889,1.41774-.53619-.60352-.97576-1.09831-1.59814-1.79879,0-2.88258.15576-6.03947-.04468-9.17359-.19226-3.00542-.754-5.9872-1.1549-8.99142-1.80488-2.10632-3.90125-4.00452-5.27771-6.329-1.14527-1.93406-3.11939-3.94093-2.41993-6.40174.48987-1.7231.71027-3.60586,2.00849-5.16994,2.08288-2.50944,3.843-5.28686,5.98608-8.29735-2.53607,0-5.0639-.6116-7.05414.16127-2.27417.88314-4.42737.62384-6.63958.86019-2.20362.23543-4.38062.848-6.58338.93427-3.99017.15624-7.991.05334-11.98706.02408-.26923-.002-.53644-.29326-.69018-.38313-.17261-1.2753-.33417-2.4686-.54053-3.99331-3.713,1.95141-6.83039,4.1855-10.30652,5.27507-5.03857,1.57931-8.37933,4.26245-9.296,9.58127-2.15945,1.77357.13959,4.8851-2,6.66463.36273,4.24662-.66461,8.39026-.89987,12.5794-.19666,3.5018-.451,7.03867.75427,10.619.8313,2.46955.39417,5.315,1.01495,8.05847,2.04535,9.03839,7.62406,13.4799,17.048,15.29612-1.4076-1.85926-1.0473-3.76121-.59778-5.71653l1.63324.17v4.6738c1.23755,1.89762,3.24512.58177,4.295,1.28166,2.656,1.77053,5.47571.89989,8.13031.78919a35.9075,35.9075,0,0,0,7.81574-1.50343,30.17157,30.17157,0,0,0,8.89685-3.89062,13.13571,13.13571,0,0,0,4.05194-3.72466,14.25088,14.25088,0,0,0,2.89685-8.78975l1.85962.20195a11.43419,11.43419,0,0,1-2.24854,8.48465,26.655,26.655,0,0,1-13.01745,9.39558c-4.75965,1.65195-9.76105,2.08576-14.325,3.19749-.46936,2.57707-.89484,4.91319-1.31037,7.19442.78162.84417,1.533,1.65577,2.31433,2.49965-.48816,1.15362-.84778,2.00349-1.26239,2.98335a18.55,18.55,0,0,1,.92353,2.41513,18.07637,18.07637,0,0,1,.27691,2.60863C1321.99481,161.4863,1325.33453,159.43271,1327.52527,156.97406Zm2.24451,14.98735c1.83618-.55742,3.48211-.745,4.78125-1.51649a76.561,76.561,0,0,0,7.78106-5.33066c2.55786-1.98287,4.69251-4.60648,7.43848-6.22835,3.63782-2.14868,5.82593-5.579,8.79065-7.87821a6.02877,6.02877,0,0,0-2.22943-4.78639c-2.53479,3.95633-5.33649,7.13995-9.64368,8.57247-1.32336.44011-2.692.75631-4.05457,1.064-3.96154.89455-7.73272,2.588-11.89227,2.70526-.76953.0217-1.51593.86306-1.81744,1.04747C1330.08569,163.67207,1329.1026,167.48331,1329.76978,171.96141Zm35.56512-59.074a24.51233,24.51233,0,0,1-1.81573-2.06993,18.544,18.544,0,0,1-1.19611-2.12576h-2.6167c1.055,1.7946,2.05273,3.49185,3.27277,5.56718l-2.00367.20047c-.61163-1.54284-1.11425-2.81072-1.60742-4.05479-1.33313,2.59966-2.529,4.93159-3.59686,7.014.82281.87614,1.70892,1.81966,2.71368,2.88945h4.74842A7.90366,7.90366,0,0,0,1365.3349,112.88743Zm-9.87518-5.84709c.23028,1.73831-.30158,3.60889.72735,5.434.02777-3.54228,1.95911-5.58376,4.75775-6.77183,2.16327.81464,4.10028,1.9411,4.03486,4.792.58917-4.63266.58917-4.63266-1.85877-7.85114h-3.2641C1358.426,104.07414,1357.13855,105.36153,1355.45972,107.04034Zm-39.68384,49.6838c-.379,2.44287-.70862,4.56758-1.17462,7.57113l2.93847-4.41981c-.0722-1.293-.15673-2.807-.25988-4.65529C1316.55756,155.94244,1316.20428,156.29572,1315.77588,156.72414Zm.53937,11.34037L1317,168.5c.45984-.45987.91968-.91974,1.535-1.53513-.06427-1.399-.13525-2.943-.20623-4.48712l-.47773-.00293Q1317.08316,165.26965,1316.31525,168.06451Z" transform="translate(-1290.40499 -51.31985)"/><path d="M1314.5,87.5c-5.56757,7.73808-8.33746,12.46629-10.32788,18.90934-.96552,3.12534-1.98505,6.34784-1.65131,9.58251a19.64268,19.64268,0,0,0,6.94141,3.0652,11.61752,11.61752,0,0,0,6.08832-.04937,28.78584,28.78584,0,0,1,9.878-1.577,8.05951,8.05951,0,0,1,5.97485,2.45754c-.64581,1.95034-3.15015,1.59117-4.0899,3.66688-.69068,1.52548-3.12867,2.22973-4.72876,3.3822-1.55341,1.11888-2.95984,2.45283-4.56128,3.49118a8.86146,8.86146,0,0,1-5.81494,1.0522,58.80549,58.80549,0,0,1-15.63327-11.41152c-.47992-2.74936,1.251-3.9448,3.6018-4.74331.487-3.43565.97733-6.89437,1.518-10.7089l-2.94681-.16668c-.11893-.77929-.254-1.664-.39658-2.59857L1296.559,100.059V96.05592c.58566-1.122,2.48526-1.67286,1.72879-3.76574a2.78379,2.78379,0,0,0,.21417.21934c1.66266-.3365,3.37442-1.08351,4.974-.8922,1.54926.1853,2.983,1.33558,4.522,2.08874.6698-.93684,1.20343-1.68326,1.76288-2.4658-3.48919-1.7708-3.48919-1.7708-8.11425-.93071a17.61464,17.61464,0,0,0-3.3588,1.98063,2.363,2.363,0,0,1-1.28467.20982c-1.58191-1.56806-.30182-5.52707,2.92935-8.93579h5.85437l5.49451,3.90074c1.7757.21306.6557-3.06612,3.21869-1.5712Zm-13,7c1,0,2,0,3.09052-.10472l-.19526.19528.69709.81709.3153-.3153A2.87991,2.87991,0,0,0,1304.5,94.5c-1.00592-1.37017-1.99408-1.37017-2.89526.09052l-.19532-.19529-.81707.6971.3153.31533A2.87961,2.87961,0,0,0,1301.5,94.5Zm2.12207,6.50291c.6991-1.32864,1.21692-2.3127,1.88538-3.58314l-1.88538.24532c0,1.005,0,1.91986-.08331,3.57226q-.0271-.42518-.05408-.85036l-2.94666.38543a1.61693,1.61693,0,0,0,1.295.70762A4.071,4.071,0,0,0,1303.62207,101.00291Z" transform="translate(-1290.40499 -51.31985)"/><path d="M1314.14337,88.03845c2.42536-2.54456,4.42633-4.64391,6.09552-6.3952,6.9585-.57732,12.6922.24339,16.22931,6.30764.15033,2.29547.12854,4.51763-1.347,6.42843-2.604.81322-4.74109-.64584-6.51569-1.96409-3.44769-2.56094-7.19128-3.14035-11.2497-2.91881-.48211.02631-.96679.00358-.94842-.59582C1315.60858,88.59639,1314.80969,88.29218,1314.14337,88.03845Z" transform="translate(-1290.40499 -51.31985)"/><path d="M1311.39014,99.02261c2.69018-5.701,2.69018-5.701,5.31964-7.30058,6.74255-1.57235,9.79333,2.87055,12.954,7.897a61.668,61.668,0,0,1-3.82843,5.963c-1.66529,2.085-4.54663,1.81144-7.63825,2.44373C1314.86029,106.77718,1313.07843,103.11722,1311.39014,99.02261Zm13.53277-3.36779c-.68-.76532-.8789-1.14187-1.02148-1.12165a8.24137,8.24137,0,0,0-1.40143.43241c.6026.17143,1.20526.34285-.19434-.586-1.46942-.91054-1.47009-.9191-3.38378-.77191-.0879.00677-.1449.41363-.26093.77191C1320.00372,94.37959,1321.25146,94.37959,1324.92291,95.65482Zm-7.54828,6.96653c-.96734-1.14315-2.20422-2.60489-3.59448-4.24793.515,3.78968.82343,4.05782,8.06018,7.20174,1.56922-1.12937,3.2168-2.31513,4.35224-3.13228,1.15814-3.82781-1.94788-3.57017-3.50177-5.01409v2.3409C1320.30371,102.12035,1320.30371,102.12035,1317.37463,102.62135Z" transform="translate(-1290.40499 -51.31985)"/></svg>