<svg xmlns="http://www.w3.org/2000/svg" viewBox="0 0 100.82743 116.90086"><title>person_15</title><path d="M863.5,129.5q.74626,0,1.49284.0002c.16925-.26008.48384-.51943.48553-.78078.02987-4.6232.02163-9.24664.02163-14.35511a45.09933,45.09933,0,0,1-5.0662,1.09419c-1.8026.18138-3.63754.0415-5.93368.0415.20416,1.09544.40055,2.08207.5692,3.07343a20.34964,20.34964,0,0,1,.41456,2.808c.18014,6.48268,4.24229,19.22194,8.03359,24.53394,3.63964,5.09953,9.12254,7.7652,14.47119,10.57332,4.52523.05054,8.93241,1.67823,13.51134,1.01134l-1.40157,2.08249c-2.68777-.5609-5.56061.8401-8.20658-1.00543l-1.23407,5.28192,1.7592,3.2852-1.35294.50159-1.79465-3.78226c-3.19235-2.67572-6.54214-.757-9.69828.16788-3.96418,1.16176-7.75869,2.90251-11.7314,4.43387l-.45192-1.3949c6.01268-2.74794,11.75284-6.091,18.23237-5.57138l2.954-1.51955c-.12645-.41839-.12082-1.05185-.41662-1.263a17.43726,17.43726,0,0,0-3.584-2.18162c-3.88427-1.5309-6.65369-4.71563-10.2266-6.68787-3.15056-4.806-6.6164-9.32594-8.03045-15.2-.74934-3.11283-.30766-6.66807-2.54579-9.42019a2.00338,2.00338,0,0,1-.2512-1.37528,17.69057,17.69057,0,0,0-1.22068-7.75237c-.98045-.72929-2.349-1.21279-2.63842-2.06343-.84592-2.48639-2.29385-4.81307-2.18466-7.61043.11014-2.82127.02426-5.65019.02426-8.0455.96509-1.875,1.45984-3.67209,2.60391-4.82463,1.15231-1.16083,2.79422-1.8368,3.377-4.53922-.40354-3.57787.32721-8.02844,1.443-12.42118,1.0281-4.04759,2.18112-8.06344,3.32086-12.24649-.28515-1.24313-.63516-2.769-1.03625-4.51754l-2.5778-1.48341c.15236-.36374.20223-.75528.35157-.79784,1.79274-.51092,3.60023-.97012,5.66242-1.51059L857.15522,53.487a2.74037,2.74037,0,0,1,3.58825-.8805c1.90489,1.07934,3.35083,1.28173,5.30514.016.94007-.60884,2.98237.40008,3.83422-.24148,1.33481-1.00532,2.13923-1.06569,3.21814.018,1.12809-1.791,2.11013-.17012,3.22669.01231.97591.15945,2.07622-.44258,3.38386-.77485l10.67654,4.64056c16.15311.75155,30.24954,7.74468,43.25879,17.57613-1.04762,5.063-2.25694,9.8647-2.20116,14.87349.017,1.52419-.65339,3.04809-.93415,4.58578-.282,1.54464.63417,3.32789-.937,4.61305.1753,2.86516-.91621,5.86742.92646,8.55241-.2867,1.961-3.26726,2.29221-2.90627,5.14968l7.12372-2.30766,3.69115,4.32617v10.89839c-1.00864,2.2364-1.61774,4.61171-3.00356,6.3774-1.44647,1.843-3.641,3.09879-5.71628,4.7795l-2.1062-1.32859-1.56413.91532-1.96176-1.08688-2.45026,3.70086c-.13805,5.76489-3.01652,11.20367-1.92288,17.35547.718,1.0599,1.60647,2.37128,2.49931,3.68916-3.28755,1.80167-2.67044,6.68053-6.69311,8.52292.34374-.89261.59811-1.64752.92039-2.37224.93987-2.11346,1.90685-4.21484,3.08252-6.80395L917.5,155.5c0-2.164-.78764-4.83691.19875-6.36361,1.24177-1.92191.25355-3.799,1.12951-5.57676a14.98534,14.98534,0,0,0,1.57443-5.79787,10.04768,10.04768,0,0,1,1.49544-4.94837l7.01825.83566c5.11765-1.27044,5.35332-5.68689,7.35715-8.5335.415-2.73392.82075-5.4066,1.22647-8.07929-2.07045-1.14879.1058-4.02923-2.9243-5.53626a7.88143,7.88143,0,0,0-1.98607.037,10.45668,10.45668,0,0,0-2.58182.97764,14.04529,14.04529,0,0,0-2.40432,1.41558,16.35918,16.35918,0,0,0-1.65885,1.53679c-1.39825,4.79658-2.60725,8.944-3.94992,13.5499-.69554-.64334-1.27289-.938-1.46558-1.39482-1.16432-2.76053-2.28956-5.49722-2.07594-8.65078.21329-3.14834-.00061-6.32356.07744-9.48441a14.11538,14.11538,0,0,1,.6891-2.82047c-.38444-.26514-1.00281-1.03547-1.69732-1.11165-3.17707-.3485-6.37549-.50246-9.89551-.74941-.45981,3.14015-.966,6.597-1.46283,9.99006l-2.01051,2.57219-30.45576-4.1584-2.241-2.6466v-9.60579c-.514-.514-.98485-.98484-1.456-1.45587-.16715.26289-.44056.50956-.484.79168-.36288,2.3543-.73161,4.70961-1.00324,7.07555-.272,2.36916.66386,4.90609-1.01354,7.075,0,5.16032-.04323,10.32146.0541,15.47994.01232.65312.76162,1.29233,1.5295,2.5079l4.37012,1.29548,3.55161-2.60927.60651,1.77995-5.49055,2.80847A22.73923,22.73923,0,0,1,863.5,129.5Zm-8.89914-17.6374c1.96156-.394,3.693-.36785,5.00571-1.09632,1.80159-.99979,2.65842,1.60564,4.16308.71419a11.86092,11.86092,0,0,0,1.65625-1.37962c.38066-5.35524-.47763-10.49926.53081-15.45171H854.60086Zm.81609-26.97082c2.48168-.92243,3.87218-2.50285,5.97078-2.91661,1.88738-.3721,3.58313-1.71617,5.337-2.618,1.34775,1.35116,3.20658,2.17615,2.6975,4.82009-3.86431,3.01442-7.67673,6.67733-13.4738,6.40183-.0708-.00336-.16233.4294-.33786.92086,2.60334,0,5.08-.14184,7.53077.04885a13.72875,13.72875,0,0,1,4.96959,1.20381c.95256.47368,1.4494,1.86382,2.082,2.74734h1.87067c.58675-2.627,2.625-3.58107,5.07955-4.11641,4.80839,2.5485,10.30941-.20175,15.14133,2.11641,5.18606-.39342,9.90264,2.27012,14.82245,2.107.55321.55322.844,1.07783,1.26925,1.2321,3.272,1.18715,6.57011,2.30245,10.31478,3.59726a160.90167,160.90167,0,0,0-5.36234-30.98H907.442l-1.10736-3.10269L903.2723,62.891c-8.18818-2.18177-16.083-2.7858-24.11041-4.124-1.35836,1.16251-3.36737.68785-5.27348.72443-1.98655.03813-3.97441.00851-5.57343.00851a38.95371,38.95371,0,0,1-3.60076,1.96082,4.7798,4.7798,0,0,1-1.79745.03918,73.02066,73.02066,0,0,0-3.92684,7.09455,45.88883,45.88883,0,0,0-2.44172,7.96655C855.98458,79.12508,855.82137,81.77709,855.417,84.89178Zm49.45433,13.0345c-10.05387-2.37606-19.61993-2.77839-29.14441-3.55793-.6499,3.76593.53947,7.27183-1.17323,10.49151-.19951.37507.395,1.13011.5218,1.73.26,1.22971.45231,2.47371.61071,3.36439,3.2927,1.95964,6.73049,1.47924,10.10414,1.55321.8059.01768,1.92278-.18514,2.36078.25127,1.98378,1.9765,5.02187-.62906,6.8198,1.7121H902.182C903.102,108.15277,903.96786,103.14812,904.87128,97.92628Z" transform="translate(-847.4699 -51.56439)"/><path d="M889.5,130.5c-.36192-1.59274,1.07915-2.53772,1.4006-3.89.21038-.885.50322-1.75031.77943-2.6938l-2.18541-.77893.29826-1.98448,4.68256,2.41284c-.29211,1.83316.23309,3.45042-.74551,5.48577-.90522,1.88271-.29073,4.53423-.213,6.8427A23.39224,23.39224,0,0,1,891.21,146.19734c-2.03994-.23593-4.077-.81316-6.01474-.57685-1.31591.16046-2.49267,1.462-4.7123,2.87951H887.5l-1.26643,1.88793c-3.2301.37061-6.21453.30385-8.34471-1.97119l-1.42873-8.55962-6.906-1.60307c3.48406-1.0343,7.01317-.56342,10.69407-.81879L888.5,131.5c-.11632.61632-.03058,1.401-.38133,1.822a15.42166,15.42166,0,0,1-9.54634,5.441c-.34707,1.8524.13516,3.08888,2.32689,3.96264,1.69092-.85184,3.79859-1.79147,5.76619-2.9658a3.68257,3.68257,0,0,0,1.7517-2.205c.24491-2.04744,1.77163-3.86468,1.08289-6.05477l.82929-.32929Z" transform="translate(-847.4699 -51.56439)"/><path d="M926.35112,127.55013c-1.20177-5.04929,3.5023-7.759,4.41225-12.03,2.60283,1.15114,2.60283,1.15114,3.65466,5.14759l-3.19324-2.63694c-.68921,1.41443-1.80389,2.59991-1.61511,3.51709C930.22539,124.53925,927.18143,125.356,926.35112,127.55013Z" transform="translate(-847.4699 -51.56439)"/><path d="M942.5,165.5c-3.22107.10664-5.97923-1.5652-8.88351-2.52951-2.05047-.68082-4.53811-.554-6.11649-2.47049,4.956-.08659,9.3656,2.04523,13.93462,3.49971C941.90161,164.14836,942.1501,164.98344,942.5,165.5Z" transform="translate(-847.4699 -51.56439)"/><path d="M885.97316,128.48264c-2.36295,2.494-4.28762,4.29436-8.43547,3.84806l5.92674-3.44843V125.661l.68081-.17189Z" transform="translate(-847.4699 -51.56439)"/><path d="M915.5,158.5c-.10624.60625-.0023,1.40781-.35383,1.78616q-2.81967,3.03494-5.86,5.86c-.37837.35152-1.1799.24758-1.78615.35384Q911.5,162.5,915.5,158.5Z" transform="translate(-847.4699 -51.56439)"/><path d="M942.581,165.23352l5.71635,1.70174-3.06231.93287c-.41211-.27423-1.70014-1.13139-2.98818-1.98855Z" transform="translate(-847.4699 -51.56439)"/><path d="M900.5,153.5a2.46462,2.46462,0,0,1-3,2A2.46462,2.46462,0,0,1,900.5,153.5Z" transform="translate(-847.4699 -51.56439)"/><path d="M917.5,155.5a2.46461,2.46461,0,0,1-2,3A2.46461,2.46461,0,0,1,917.5,155.5Z" transform="translate(-847.4699 -51.56439)"/><path d="M927.75392,160.37959H923.661a4.761,4.761,0,0,1,.25459-.77066C925.13849,159.78545,926.66855,158.78436,927.75392,160.37959Z" transform="translate(-847.4699 -51.56439)"/><path d="M891.5,157.5c.39191-.33333.74859-.88458,1.183-.95485A17.81809,17.81809,0,0,1,895.5,156.5c-.39191.33333-.74858.88458-1.183.95483A17.8157,17.8157,0,0,1,891.5,157.5Z" transform="translate(-847.4699 -51.56439)"/><path d="M907.00278,147.00291l2.35338-1.52172.12735,1.90775-1.98027.145Z" transform="translate(-847.4699 -51.56439)"/><path d="M907.52642,167.27647l-1.911.16405-.08764-.6457,1.9544-.38236Z" transform="translate(-847.4699 -51.56439)"/><ellipse cx="30.5301" cy="114.93561" rx="0.35355" ry="1.41422"/><path d="M895.5,156.5c.08533-1.496,1.242-.84936,2-1C897.41467,156.996,896.258,156.34936,895.5,156.5Z" transform="translate(-847.4699 -51.56439)"/><path d="M901.5,152.5c.08533-1.496,1.242-.84936,2-1C903.41467,152.996,902.258,152.34936,901.5,152.5Z" transform="translate(-847.4699 -51.56439)"/><ellipse cx="34.5301" cy="73.43561" rx="0.70711" ry="0.23571"/><path d="M900.5,153.5l1-1Z" transform="translate(-847.4699 -51.56439)"/><path d="M903.5,151.5l1-1Z" transform="translate(-847.4699 -51.56439)"/><path d="M904.5,150.5l1-1Z" transform="translate(-847.4699 -51.56439)"/><path d="M906.5,148.5l-1,1Z" transform="translate(-847.4699 -51.56439)"/><path d="M906.5,148.5l1-1Z" transform="translate(-847.4699 -51.56439)"/><path d="M887.39526,148.40945l.69709-.8171.3153.3153-.8171.69709Z" transform="translate(-847.4699 -51.56439)"/><path d="M888.5,131.5l1-1v1Z" transform="translate(-847.4699 -51.56439)"/><path d="M863.40945,129.60474l-.8171-.69709.3153-.3153.6971.81709Z" transform="translate(-847.4699 -51.56439)"/><path d="M877.44152,83.8829l1.46671-4.17716a2.20106,2.20106,0,0,1,.98547-.18157,20.126,20.126,0,0,1,5.02319,1.04177c2.41443,1.08825,4.98947.64441,7.42293,1.26793,2.24819.576,4.57238.93154,6.74044,1.721a42.49345,42.49345,0,0,1,5.28079,2.749V91.102c-.18468.10151-.4504.36854-.72483.37784a24.73533,24.73533,0,0,1-3.96738-.02,25.34449,25.34449,0,0,1-3.06989-.95092c-4.195-1.1084-8.51928-1.642-12.66963-2.98317C879.93727,86.23574,879.90715,86.329,877.44152,83.8829Z" transform="translate(-847.4699 -51.56439)"/><path d="M888.93385,103.08985l-3.96612-1.72589-.41034.49528L885.757,103.423l-3.09414,3.5633c.7703,2.45357,3.31767,1.00238,5.28637,1.96366l-3.93571,1.21211a18.89092,18.89092,0,0,1-3.30267-2.03954,16.78467,16.78467,0,0,1-2.18-3.12808V100.715l5.0084-3.58285,8.73481,6.22879v4.27614c-.69629-.19336-1.38444-.18315-1.53112-.45991C890.09679,105.958,889.60682,104.656,888.93385,103.08985Z" transform="translate(-847.4699 -51.56439)"/><path d="M888.65838,108.67072h1.65678l.07868.47551-1.62719.3883Z" transform="translate(-847.4699 -51.56439)"/><path d="M860.48638,109.43484l2.95569-4.55438-.46516-.51973-4.48414,3.58258,1.7446,2.049-3.67491-1.57342v-5.55547l2.81475-2.2698h3.9401c2.65724,3.41971.52512,6.6506-.215,10.26129ZM862.5,102.83333v.33334h1v-.33334Z" transform="translate(-847.4699 -51.56439)"/></svg>